<svg id="Corprate" xmlns="http://www.w3.org/2000/svg" xmlns:xlink="http://www.w3.org/1999/xlink" viewBox="0 0 4376.48776 4376.48776">
  <defs>
    <style>
      .cls-1 {
        fill: url(#linear-gradient);
      }

      .cls-2 {
        fill: url(#linear-gradient-2);
      }

      .cls-3 {
        fill: url(#linear-gradient-3);
      }

      .cls-4 {
        fill: #fff;
      }

      .cls-5 {
        fill: url(#linear-gradient-4);
      }
    </style>
    <linearGradient id="linear-gradient" x1="640.92179" y1="3735.56596" x2="3735.56596" y2="640.92179" gradientUnits="userSpaceOnUse">
      <stop offset="0.20968" stop-color="#369"/>
      <stop offset="0.52151" stop-color="#fff"/>
      <stop offset="0.81183" stop-color="#369"/>
    </linearGradient>
    <linearGradient id="linear-gradient-2" x1="701.17943" y1="701.9503" x2="3675.50978" y2="3676.28065" xlink:href="#linear-gradient"/>
    <linearGradient id="linear-gradient-3" x1="779.53304" y1="8914.09564" x2="3630.34422" y2="6063.28446" gradientTransform="translate(1191.45624 -251.79356) rotate(8.94686)" xlink:href="#linear-gradient"/>
    <linearGradient id="linear-gradient-4" x1="1087.51354" y1="8610.28666" x2="3310.36373" y2="6387.43647" gradientTransform="translate(1372.79757 -271.96509) rotate(10.27455)" gradientUnits="userSpaceOnUse">
      <stop offset="0.20968" stop-color="#369"/>
      <stop offset="0.52688" stop-color="#369" stop-opacity="0.7"/>
      <stop offset="0.81183" stop-color="#369"/>
    </linearGradient>
  </defs>
  <title>Sol_Emblem_CORPORATE</title>
  <g>
    <circle class="cls-1" cx="2188.24388" cy="2188.24388" r="2188.24388"/>
    <circle class="cls-2" cx="2188.34461" cy="2189.11548" r="2103.16916"/>
    <circle class="cls-3" cx="2204.93863" cy="7488.69005" r="2015.68646" transform="translate(-1154.3953 -4868.05993) rotate(-8.94686)"/>
    <circle class="cls-4" cx="2188.17678" cy="2186.60682" r="1658.0922"/>
    <circle class="cls-5" cx="2198.93863" cy="7498.86157" r="1571.65107" transform="translate(-1318.86879 -4789.61993) rotate(-10.27455)"/>
    <g>
      <g id="layer10">
        <path id="path4357-3" class="cls-4" d="M1790.34641,6835.99607h166.25248l-44.08592,55.41752c23.87008,50.65689,24.94287,102.95657,15.65635,158.17291h242.18754l49.01413,70.504H1789.91048c68.29141-85.65751,65.40819-202.99641.43593-284.09439h0Z" transform="translate(-16.59403 -5302.08323)"/>
      </g>
      <g id="layer23">
        <path id="path4388-4" class="cls-4" d="M1436.0834,6836.16369l-230.219-.13411-108.45471,157.93821,201.5883-.70407c2.11212,21.59033,3.25195,37.5149,10.35936,53.97591l-248.59093.03356-49.91934,72.81718h425.70568c-36.945-44.38761-59.27294-114.45572-47.00261-180.13205l-154.14984,2.3803,24.87586-40.76689,139.43219-.50288c11.90148-32.68724,24.23885-48.3771,36.375-64.90515h0Z" transform="translate(-16.59403 -5302.08323)"/>
      </g>
      <path class="cls-4" d="M1752.809,7008.816a140.19942,140.19942,0,0,1-27.65846,57.19438l44.25354,21.85855,0.20118,0.3017a188.22566,188.22566,0,0,0,28.463-59.54116l-0.26822.03356Z" transform="translate(-16.59403 -5302.08323)"/>
      <path class="cls-4" d="M1478.97346,6947.19632a139.8297,139.8297,0,0,1,27.52435-57.16083l-45.05816-22.26088a188.85485,188.85485,0,0,0-28.396,59.20587h0.067Z" transform="translate(-16.59403 -5302.08323)"/>
      <path class="cls-4" d="M1506.39726,7065.64161a139.84651,139.84651,0,0,1-27.45732-57.19438l-45.8963,20.24932h-0.03352a188.74967,188.74967,0,0,0,28.36249,59.34l0.13411-.20118Z" transform="translate(-16.59403 -5302.08323)"/>
      <path class="cls-4" d="M1584.71262,7114.75634a139.76949,139.76949,0,0,1-57.09379-27.75906l-22.16029,44.79-0.26822.16763a189.30618,189.30618,0,0,0,59.44057,28.53016v-0.067Z" transform="translate(-16.59403 -5302.08323)"/>
      <path class="cls-4" d="M1584.67906,6841.05492l-20.11525-45.52753v-0.03352a188.70373,188.70373,0,0,0-59.13883,28.329l22.22736,44.95757A140.07266,140.07266,0,0,1,1584.67906,6841.05492Z" transform="translate(-16.59403 -5302.08323)"/>
      <path class="cls-4" d="M1725.41875,7131.82083l-21.89211-44.2871a140.12677,140.12677,0,0,1-57.22786,27.4238l20.04821,45.561a188.59969,188.59969,0,0,0,59.407-28.463Z" transform="translate(-16.59403 -5302.08323)"/>
      <path class="cls-4" d="M1725.05,6889.70028a139.84366,139.84366,0,0,1,27.7255,57.12731l45.12524-19.88059h0.067a188.10308,188.10308,0,0,0-28.463-59.23938l-0.067.10059Z" transform="translate(-16.59403 -5302.08323)"/>
      <path class="cls-4" d="M1646.29878,6840.85373a139.53833,139.53833,0,0,1,57.16083,27.35673l21.95914-44.45469,0.03356-.03352a188.8784,188.8784,0,0,0-59.23939-28.329l0.03356,0.20114Z" transform="translate(-16.59403 -5302.08323)"/>
      <path class="cls-4" d="M1478.90643,7008.44731a141.56128,141.56128,0,0,1,.067-61.251l-45.86278-20.21584h-0.067a190.71595,190.71595,0,0,0-.067,101.71615h0.03352Z" transform="translate(-16.59403 -5302.08323)"/>
      <path class="cls-4" d="M1615.92481,7118.243a140.707,140.707,0,0,1-31.21219-3.48661l-20.08173,45.66159v0.067a190.71352,190.71352,0,0,0,101.71611,0l-20.04821-45.561A139.6218,139.6218,0,0,1,1615.92481,7118.243Z" transform="translate(-16.59403 -5302.08323)"/>
      <path class="cls-4" d="M1527.61883,7086.99729a141.78769,141.78769,0,0,1-21.2216-21.32219l-44.92405,22.19381-0.13411.20118a190.64081,190.64081,0,0,0,43.85125,43.91829l0.26822-.16763Z" transform="translate(-16.59403 -5302.08323)"/>
      <path class="cls-4" d="M1584.67906,6841.05492a141.89384,141.89384,0,0,1,61.61972-.20114L1666.28,6795.628l-0.03356-.20114a190.71563,190.71563,0,0,0-101.71607.067v0.03352Z" transform="translate(-16.59403 -5302.08323)"/>
      <path class="cls-4" d="M1527.65238,6868.78042l-22.22736-44.95757a190.05367,190.05367,0,0,0-43.98532,43.95181l45.05816,22.26088A140.8993,140.8993,0,0,1,1527.65238,6868.78042Z" transform="translate(-16.59403 -5302.08323)"/>
      <path class="cls-4" d="M1703.49317,6868.244a140.4926,140.4926,0,0,1,21.59033,21.45626l44.38761-21.92563,0.067-.10059a191.365,191.365,0,0,0-44.01888-43.91829l-0.03356.03352Z" transform="translate(-16.59403 -5302.08323)"/>
      <path class="cls-4" d="M1752.77552,6946.794a141.80108,141.80108,0,0,1,3.45313,31.1116,140.202,140.202,0,0,1-3.41958,30.91041l44.99109,19.81355,0.26822-.03356a190.59583,190.59583,0,0,0-.13415-101.68259h-0.067Z" transform="translate(-16.59403 -5302.08323)"/>
      <path class="cls-4" d="M1725.15053,7065.97687a142.90324,142.90324,0,0,1-21.62389,21.55685l21.89211,44.2871,0.3017,0.20118a191.30091,191.30091,0,0,0,43.88473-43.88473l-0.20118-.3017Z" transform="translate(-16.59403 -5302.08323)"/>
      <path class="cls-4" d="M1433.04365,6926.98052l-550.856,50.82451,550.789,50.89159A190.7158,190.7158,0,0,1,1433.04365,6926.98052Z" transform="translate(-16.59403 -5302.08323)"/>
      <path class="cls-4" d="M1478.90643,7008.44731a141.56128,141.56128,0,0,1,.067-61.251l-45.86278-20.21584h-0.067a190.71595,190.71595,0,0,0-.067,101.71615h0.03352Z" transform="translate(-16.59403 -5302.08323)"/>
      <path class="cls-4" d="M1564.63089,7160.48505l50.82452,550.82251,50.89159-550.789V7160.485A190.71462,190.71462,0,0,1,1564.63089,7160.48505Z" transform="translate(-16.59403 -5302.08323)"/>
      <path class="cls-4" d="M1615.92481,7118.243a140.707,140.707,0,0,1-31.21219-3.48661l-20.08173,45.66159v0.067a190.71352,190.71352,0,0,0,101.71611,0l-20.04821-45.561A139.6218,139.6218,0,0,1,1615.92481,7118.243Z" transform="translate(-16.59403 -5302.08323)"/>
      <path class="cls-4" d="M1461.3391,7088.03661l-92.79836,136.71664,136.64957-92.79835A190.64146,190.64146,0,0,1,1461.3391,7088.03661Z" transform="translate(-16.59403 -5302.08323)"/>
      <path class="cls-4" d="M1527.61883,7086.99729a141.78769,141.78769,0,0,1-21.2216-21.32219l-44.92405,22.19381-0.13411.20118a190.64081,190.64081,0,0,0,43.85125,43.91829l0.26822-.16763Z" transform="translate(-16.59403 -5302.08323)"/>
      <path class="cls-4" d="M1666.2464,6795.4268l-50.791-550.72192-50.89159,550.789A190.593,190.593,0,0,1,1666.2464,6795.4268Z" transform="translate(-16.59403 -5302.08323)"/>
      <path class="cls-4" d="M1584.67906,6841.05492a141.89384,141.89384,0,0,1,61.61972-.20114L1666.28,6795.628l-0.03356-.20114a190.71563,190.71563,0,0,0-101.71607.067v0.03352Z" transform="translate(-16.59403 -5302.08323)"/>
      <path class="cls-4" d="M1505.425,6823.82285h0l-136.91779-92.9995,92.93247,136.95131h0A190.70654,190.70654,0,0,1,1505.425,6823.82285Z" transform="translate(-16.59403 -5302.08323)"/>
      <path class="cls-4" d="M1527.65238,6868.78042l-22.22736-44.95757a190.05367,190.05367,0,0,0-43.98532,43.95181l45.05816,22.26088A140.8993,140.8993,0,0,1,1527.65238,6868.78042Z" transform="translate(-16.59403 -5302.08323)"/>
      <path class="cls-4" d="M1769.50467,6867.67406l92.86539-136.85071-136.88427,92.93242A190.708,190.708,0,0,1,1769.50467,6867.67406Z" transform="translate(-16.59403 -5302.08323)"/>
      <path class="cls-4" d="M1703.49317,6868.244a140.4926,140.4926,0,0,1,21.59033,21.45626l44.38761-21.92563,0.067-.10059a191.365,191.365,0,0,0-44.01888-43.91829l-0.03356.03352Z" transform="translate(-16.59403 -5302.08323)"/>
      <path class="cls-4" d="M1798.0683,7028.596l550.62133-50.791-550.72192-50.89159A190.14858,190.14858,0,0,1,1798.0683,7028.596Z" transform="translate(-16.59403 -5302.08323)"/>
      <path class="cls-4" d="M1752.77552,6946.794a141.80108,141.80108,0,0,1,3.45313,31.1116,140.202,140.202,0,0,1-3.41958,30.91041l44.99109,19.81355,0.26822-.03356a190.59583,190.59583,0,0,0-.13415-101.68259h-0.067Z" transform="translate(-16.59403 -5302.08323)"/>
      <path class="cls-4" d="M1725.72053,7132.02193l136.61605,92.7648-92.73132-136.64953A189.33441,189.33441,0,0,1,1725.72053,7132.02193Z" transform="translate(-16.59403 -5302.08323)"/>
      <path class="cls-4" d="M1725.15053,7065.97687a142.90324,142.90324,0,0,1-21.62389,21.55685l21.89211,44.2871,0.3017,0.20118a191.30091,191.30091,0,0,0,43.88473-43.88473l-0.20118-.3017Z" transform="translate(-16.59403 -5302.08323)"/>
    </g>
    <g>
      <path class="cls-4" d="M1245.96729,5925.85479q45.60352-29.31885,63.35938-1.70312l14.60156,22.71191q17.52246,27.25342-28.083,56.57324L1186.64893,6073.639l-12.14844-18.89551,109.19629-70.20215q21.438-13.78272,16.06641-22.14258l-14.60156-22.71094q-5.606-8.72168-27.0459,5.0625l-67.95312,43.6875q-45.60645,29.32031-63.35937,1.70117l-8.99414-13.98926q-17.75391-27.6167,27.84961-56.93652l105.5625-67.86719,12.14844,18.89551-105.5625,67.86719q-21.44238,13.78418-15.833,22.50488l8.99414,13.99024q5.60742,8.72168,27.04688-5.0625Z" transform="translate(-16.59403 -5302.08323)"/>
      <path class="cls-4" d="M1327.61768,5845.59014q-13.96436-29.71289,35.10449-52.77246l78.97852-37.11426q49.06641-23.05811,63.03125,6.65527l36.93164,78.58691q13.77979,29.32471-35.28906,52.38281l-78.97852,37.11426q-49.0708,23.061-63.03125-6.65527Zm169.20313,27.40723q23.06543-10.83838,18.8418-19.833l-36.93066-78.58789q-4.41064-9.38232-27.47754,1.457l-78.97852,37.11523q-23.06836,10.83984-18.6582,20.22363l36.74707,78.19629q4.40918,9.38379,27.47754-1.457Z" transform="translate(-16.59403 -5302.08323)"/>
      <path class="cls-4" d="M1545.26709,5712.46123l27.29492-8.96,40.4209,123.13574,117.18457-38.4668,7.00586,21.34375-144.47949,47.42676Z" transform="translate(-16.59403 -5302.08323)"/>
      <path class="cls-4" d="M2106.83057,5746.16729l-30.87891,3.74121-94.0625-113.71289-65.47461,133.041-30.4502,3.68945,82.06543-163.11914,20.79981-2.52051Z" transform="translate(-16.59403 -5302.08323)"/>
      <path class="cls-4" d="M2137.93506,5746.10186l1.66113-152.05469,120.30615,1.31445q54.21094,0.5918,53.85351,33.42188l-0.20312,18.57422q-0.29883,27.43359-37.92969,31.55664l35.31836,69.07813-30.66992-.33594-34.89648-68.209-77.97217-.85156-0.74219,67.82031Zm30.14258-129.2793-0.42871,39.31055,91.57764,1q25.48242,0.27832,25.59961-10.08789l0.20313-18.57617q0.11426-10.36816-25.373-10.64551Z" transform="translate(-16.59403 -5302.08323)"/>
      <path class="cls-4" d="M2378.7832,5599.2874l26.47461,4.05859,70.43164,136.44531L2583.32422,5630.636l24.33789,3.73047L2584.627,5784.67607l-27.33008-4.1875,16.002-104.40625-91.36914,92.85449-23.27344-3.56641L2399.043,5649.594l-15.9668,104.19336-27.33008-4.18945Z" transform="translate(-16.59403 -5302.08323)"/>
      <path class="cls-4" d="M2827.03711,5857.31279l-29.72656-9.15234-39.63281-142.1543-113.959,94.86914-29.31445-9.02539L2755.76172,5676.262l20.02344,6.16406Z" transform="translate(-16.59403 -5302.08323)"/>
      <path class="cls-4" d="M2919.64258,5731.37139l120.46289,55.98926q57.00293,26.4917,39.52148,64.10059l-29.31445,63.07324q-17.29687,37.21728-74.29883,10.72363l-120.46484-55.98926Zm65.83984,173.51563q30.94629,14.38476,38.77734-2.46094l29.31445-63.07226q8.0127-17.23535-22.93555-31.62207l-94.41406-43.88184-45.15625,97.15625Z" transform="translate(-16.59403 -5302.08323)"/>
      <path class="cls-4" d="M3241.85156,6082.26592l-26.209-16.749-0.28711-147.5752-135.13086,61.043-25.8457-16.51562,167.06055-73.70605,17.65625,11.28223Z" transform="translate(-16.59403 -5302.08323)"/>
    </g>
    <g>
      <path class="cls-4" d="M1388.04,9174.15947l-10.792,19.70313-101.73145-55.72168q-47.554-26.04639-30.7417-56.73437l39.43018-71.98926q16.80908-30.68994,64.36035-4.64551l101.73193,55.72168-10.7915,19.70117-101.73193-55.7207q-22.35571-12.24463-28.37256-1.25586l-39.43018,71.98926q-6.019,10.98926,16.33594,23.23145Z" transform="translate(-16.59403 -5302.08323)"/>
      <path class="cls-4" d="M1473.54981,9108.33721q11.95459-30.57715,62.44922-10.83789l81.27539,31.77149q50.4917,19.73877,38.54,50.31836l-31.61328,80.87207q-11.79785,30.17725-62.292,10.43652l-81.27539-31.77148q-50.499-19.7417-38.5415-50.31836Zm96.53809,141.63867q23.7356,9.27832,27.35547.02539l31.61523-80.87207q3.7749-9.65625-19.96387-18.93652l-81.27441-31.77149q-23.74146-9.28125-27.51367.376l-31.457,80.46973q-3.7749,9.65625,19.96289,18.93652Z" transform="translate(-16.59403 -5302.08323)"/>
      <path class="cls-4" d="M1670.6958,9308.32158l36.46484-147.62793,116.80225,28.85059q52.63183,13.00049,44.76172,44.875l-4.45508,18.03418q-6.57788,26.63379-44.15332,22.02246l18.54883,75.334-29.77734-7.35547-18.33642-74.39062-75.70068-18.69824-16.26465,65.84473Zm58.96826-118.92969-9.42773,38.16406,88.91211,21.96191q24.74194,6.11279,27.231-3.9541l4.45459-18.0332q2.48584-10.06641-22.25781-16.17773Z" transform="translate(-16.59403 -5302.08323)"/>
      <path class="cls-4" d="M1904.75977,9361.48272l17.92871-151.00391,117.32813,13.93066q53.83594,6.39258,49.96777,38.99609l-3.56738,30.02832q-3.87012,32.60742-57.708,26.21094l-88.80078-10.54395-6.62109,55.76856Zm43.80762-125.30957-6.01074,50.62109,88.80078,10.543q25.30664,3.00586,26.53271-7.29l3.56592-30.0293q1.22314-10.29492-24.08789-13.30078Z" transform="translate(-16.59403 -5302.08323)"/>
      <path class="cls-4" d="M2131.18359,9265.98272q-0.36108-32.82861,53.85351-33.42383l87.25879-.95605q54.21094-.59473,54.57227,32.23633l0.95117,86.82715q0.35449,32.39795-53.85742,32.99121l-87.25928.95605q-54.21606.59326-54.57178-32.23535Zm142.53125,95.21191q25.48389-.27832,25.37793-10.21387l-0.95117-86.82715q-0.11426-10.36816-25.60059-10.08789l-87.25879.95508q-25.48828.27978-25.37256,10.64648l0.9458,86.39551q0.11426,10.36816,25.60059,10.08789Z" transform="translate(-16.59403 -5302.08323)"/>
      <path class="cls-4" d="M2388.64746,9377.72588l-21.20019-150.5791,119.13672-16.77441q53.68506-7.55859,58.26367,24.95313l2.59082,18.39453q3.82471,27.16553-32.76074,36.89551l45.29785,62.98828-30.374,4.27637-44.748-62.19238-77.21387,10.87109,9.45606,67.16211Zm10.37793-132.33984,5.48144,38.92871,90.69043-12.76953q25.23633-3.55225,23.793-13.82031l-2.58887-18.39453q-1.4458-10.26709-26.68555-6.71289Z" transform="translate(-16.59403 -5302.08323)"/>
      <path class="cls-4" d="M2827.78125,9284.23955l-29.957,8.36816L2687.64551,9194.429l-44.60059,141.41211-29.542,8.252,56.45313-173.65332,20.17969-5.63769Z" transform="translate(-16.59403 -5302.08323)"/>
      <path class="cls-4" d="M2765.8418,9143.8665l172.91211-68.47266,8.27149,20.88672-72.09668,28.54981,47.71582,120.49609-26.71,10.57715-47.71582-120.49609-74.10547,29.3457Z" transform="translate(-16.59403 -5302.08323)"/>
      <path class="cls-4" d="M3038.95117,9116.98076l22.2793,40.99414,112.16211-60.95605,10.72656,19.73633-137.4043,74.67578-72.61133-133.60937,137.4043-74.67383,10.72656,19.73731-112.16309,60.957,18.15332,33.40137,106.46973-57.86133,10.72559,19.73633Z" transform="translate(-16.59403 -5302.08323)"/>
    </g>
    <g>
      <path class="cls-4" d="M978.23047,6030.14873L1116.50391,6193.554l-13.02637,11.02344L965.2041,6041.17119Z" transform="translate(-16.59403 -5302.08323)"/>
      <path class="cls-4" d="M929.8457,6072.13213l143.72266,158.63672-12.64746,11.457L917.19971,6083.58916Z" transform="translate(-16.59403 -5302.08323)"/>
      <path class="cls-4" d="M882.89258,6115.74736L1031.915,6269.41924l-12.25,11.87988L870.64209,6127.62725Z" transform="translate(-16.59403 -5302.08323)"/>
      <path class="cls-4" d="M837.48145,6160.90166l154.13281,148.53125L979.77344,6321.72,825.64111,6173.18877Z" transform="translate(-16.59403 -5302.08323)"/>
      <path class="cls-4" d="M793.58789,6207.58916L952.65527,6350.8294l-11.41943,12.68066L782.168,6220.26885Z" transform="translate(-16.59403 -5302.08323)"/>
      <path class="cls-4" d="M751.3418,6255.70049L915.15625,6393.4749l-10.98291,13.05859-163.814-137.77441Z" transform="translate(-16.59403 -5302.08323)"/>
      <path class="cls-4" d="M710.7168,6305.2376l168.37158,132.16406-10.53564,13.42188L700.18115,6318.65947Z" transform="translate(-16.59403 -5302.08323)"/>
      <path class="cls-4" d="M671.79639,6356.097l172.74072,126.41211L834.459,6496.28057,661.71973,6369.8665Z" transform="translate(-16.59403 -5302.08323)"/>
      <path class="cls-4" d="M634.60742,6408.24736l176.90625,120.52539-9.6084,14.10254L625,6422.34893Z" transform="translate(-16.59403 -5302.08323)"/>
      <path class="cls-4" d="M599.209,6461.60674L780.06543,6576.1165l-9.12842,14.418L590.08057,6476.02373Z" transform="translate(-16.59403 -5302.08323)"/>
      <path class="cls-4" d="M565.625,6516.12432l184.59619,108.37793-8.64014,14.71582L556.98486,6530.83916Z" transform="translate(-16.59403 -5302.08323)"/>
      <path class="cls-4" d="M533.90527,6571.72588l188.12012,102.11719-8.14111,14.99707L525.76465,6586.722Z" transform="translate(-16.59403 -5302.08323)"/>
      <path class="cls-4" d="M504.05176,6628.3665l191.44141,95.75586-7.63379,15.26074L496.418,6643.62822Z" transform="translate(-16.59403 -5302.08323)"/>
      <path class="cls-4" d="M476.125,6685.94854l194.53418,89.30371L663.54,6790.75908l-194.5332-89.30273Z" transform="translate(-16.59403 -5302.08323)"/>
      <path class="cls-4" d="M450.13135,6744.44951l197.40918,82.75781-6.59717,15.73535-197.40967-82.75586Z" transform="translate(-16.59403 -5302.08323)"/>
      <path class="cls-4" d="M426.10449,6803.7835l200.06934,76.11621-6.06787,15.94922-200.06885-76.11621Z" transform="translate(-16.59403 -5302.08323)"/>
      <path class="cls-4" d="M404.07715,6863.8958l202.498,69.38574-5.53027,16.14258-202.499-69.38574Z" transform="translate(-16.59403 -5302.08323)"/>
      <path class="cls-4" d="M384.07617,6924.68486l204.707,62.58105-4.99023,16.31836L379.0874,6941.00322Z" transform="translate(-16.59403 -5302.08323)"/>
      <path class="cls-4" d="M366.11035,6986.10674l206.68311,55.72168-4.44189,16.47559-206.68262-55.72168Z" transform="translate(-16.59403 -5302.08323)"/>
      <path class="cls-4" d="M350.20508,7048.13408l208.42969,48.77539-3.8877,16.61523-208.43066-48.77539Z" transform="translate(-16.59403 -5302.08323)"/>
      <path class="cls-4" d="M336.39258,7110.6292l209.93408,41.77832-3.33105,16.73438-209.93408-41.77734Z" transform="translate(-16.59403 -5302.08323)"/>
      <path class="cls-4" d="M324.66357,7173.56963l211.22119,34.7207-2.76758,16.83789L321.896,7190.40752Z" transform="translate(-16.59403 -5302.08323)"/>
      <path class="cls-4" d="M315.04785,7236.8626l212.27344,27.62988-2.20312,16.92188L312.8457,7253.78447Z" transform="translate(-16.59403 -5302.08323)"/>
      <path class="cls-4" d="M307.57715,7300.44072l213.06641,20.49707-1.63379,16.98535-213.06641-20.498Z" transform="translate(-16.59403 -5302.08323)"/>
      <path class="cls-4" d="M302.229,7364.25615l213.63818,13.32324-1.06152,17.03125-213.63818-13.32422Z" transform="translate(-16.59403 -5302.08323)"/>
      <path class="cls-4" d="M299.03027,7428.21025l213.97266,6.11523-0.4873,17.05762L298.542,7445.26885Z" transform="translate(-16.59403 -5302.08323)"/>
      <path class="cls-4" d="M297.99609,7492.25127l214.0498-1.09961,0.08838,17.06348-214.05078,1.10059Z" transform="translate(-16.59403 -5302.08323)"/>
      <path class="cls-4" d="M299.11475,7556.2874l213.89209-8.31641,0.66309,17.05078-213.8916,8.31641Z" transform="translate(-16.59403 -5302.08323)"/>
      <path class="cls-4" d="M302.39844,7620.27666l213.48877-15.54687,1.23926,17.01953L303.6377,7637.29424Z" transform="translate(-16.59403 -5302.08323)"/>
      <path class="cls-4" d="M307.8418,7684.10088L520.68408,7661.345l1.814,16.9668-212.84277,22.75684Z" transform="translate(-16.59403 -5302.08323)"/>
      <path class="cls-4" d="M315.43848,7747.69561l211.95312-29.94629,2.3877,16.89648-211.9541,29.94629Z" transform="translate(-16.59403 -5302.08323)"/>
      <path class="cls-4" d="M325.18994,7810.99639l210.81348-37.09766,2.95752,16.80566-210.81348,37.09766Z" transform="translate(-16.59403 -5302.08323)"/>
      <path class="cls-4" d="M337.07959,7873.96416l209.437-44.21484,3.52539,16.69531-209.437,44.21484Z" transform="translate(-16.59403 -5302.08323)"/>
      <path class="cls-4" d="M351.09473,7936.47588l207.81641-51.2793,4.08838,16.56641-207.81689,51.2793Z" transform="translate(-16.59403 -5302.08323)"/>
      <path class="cls-4" d="M367.19531,7998.45244l205.98-58.26953,4.644,16.4209-205.979,58.26855Z" transform="translate(-16.59403 -5302.08323)"/>
      <path class="cls-4" d="M385.39844,8059.87139L589.29,7994.68682l5.19727,16.25391-203.89209,65.18359Z" transform="translate(-16.59403 -5302.08323)"/>
      <path class="cls-4" d="M405.64355,8120.60674l201.58887-71.99414,5.73926,16.07129-201.58887,71.99316Z" transform="translate(-16.59403 -5302.08323)"/>
      <path class="cls-4" d="M427.917,8180.63213l199.0625-78.707,6.27344,15.86719-199.06055,78.709Z" transform="translate(-16.59403 -5302.08323)"/>
      <path class="cls-4" d="M452.17627,8239.85674l196.33057-85.28711,6.79883,15.65137-196.33105,85.28711Z" transform="translate(-16.59403 -5302.08323)"/>
      <path class="cls-4" d="M478.3916,8298.23662l193.3916-91.74512,7.3125,15.416-193.3916,91.74609Z" transform="translate(-16.59403 -5302.08323)"/>
      <path class="cls-4" d="M506.56445,8355.847l190.11377-98.375,7.8418,15.1543-190.11279,98.375Z" transform="translate(-16.59403 -5302.08323)"/>
      <path class="cls-4" d="M536.48389,8412.17705l186.92236-104.31836,8.31494,14.90039L544.7998,8427.07842Z" transform="translate(-16.59403 -5302.08323)"/>
      <path class="cls-4" d="M568.34961,8467.65752L751.687,8357.18291l8.80615,14.61621L577.15527,8482.27275Z" transform="translate(-16.59403 -5302.08323)"/>
      <path class="cls-4" d="M602.06055,8522.0833l179.53662-116.55469,9.29248,14.3125L611.35156,8536.3958Z" transform="translate(-16.59403 -5302.08323)"/>
      <path class="cls-4" d="M637.57275,8575.345L813.10254,8452.8294l9.76563,13.99219-175.52832,122.5166Z" transform="translate(-16.59403 -5302.08323)"/>
      <path class="cls-4" d="M674.87646,8627.41338l171.30127-128.36914,10.2334,13.65625L685.11035,8641.06963Z" transform="translate(-16.59403 -5302.08323)"/>
      <path class="cls-4" d="M713.92383,8678.18486l166.8584-134.0791,10.68848,13.30176-166.8584,134.0791Z" transform="translate(-16.59403 -5302.08323)"/>
      <path class="cls-4" d="M754.66748,8727.62822L916.8999,8587.97979l11.13232,12.93164L765.7998,8740.56182Z" transform="translate(-16.59403 -5302.08323)"/>
      <path class="cls-4" d="M797.05713,8775.65947l157.41553-145.05664,11.56445,12.54785-157.4165,145.05664Z" transform="translate(-16.59403 -5302.08323)"/>
      <path class="cls-4" d="M841.06641,8822.2376l152.41113-150.30273,11.981,12.15039L853.04785,8834.388Z" transform="translate(-16.59403 -5302.08323)"/>
      <path class="cls-4" d="M886.60254,8867.28252l147.23584-155.37891,12.38721,11.7373L898.98975,8879.0208Z" transform="translate(-16.59403 -5302.08323)"/>
      <path class="cls-4" d="M933.64355,8910.76885L1075.542,8750.49443l12.77539,11.31152L946.4209,8922.08135Z" transform="translate(-16.59403 -5302.08323)"/>
      <path class="cls-4" d="M982.12988,8952.636l136.40479-164.97266,13.15088,10.873L995.28223,8963.50908Z" transform="translate(-16.59403 -5302.08323)"/>
      <path class="cls-4" d="M1031.97949,8992.81377l130.75391-169.47656,13.50928,10.42285L1045.48926,9003.2376Z" transform="translate(-16.59403 -5302.08323)"/>
      <path class="cls-4" d="M1083.17139,9031.306l124.96143-173.791,13.854,9.96191-124.9624,173.792Z" transform="translate(-16.59403 -5302.08323)"/>
    </g>
    <g>
      <path class="cls-4" d="M3446.7041,6040.65068L3308.43066,6204.055l-13.02637-11.02148,138.27344-163.40625Z" transform="translate(-16.59403 -5302.08323)"/>
      <path class="cls-4" d="M3494.71,6083.06865l-143.72168,158.63672-12.64648-11.457,143.72266-158.63672Z" transform="translate(-16.59403 -5302.08323)"/>
      <path class="cls-4" d="M3541.26758,6127.10576l-149.02344,153.67188-12.25-11.87988,149.02246-153.6709Z" transform="translate(-16.59403 -5302.08323)"/>
      <path class="cls-4" d="M3586.27051,6172.66826L3432.1377,6321.19854l-11.84082-12.28613,154.13281-148.53125Z" transform="translate(-16.59403 -5302.08323)"/>
      <path class="cls-4" d="M3629.74219,6219.74639l-159.06836,143.24023-11.41894-12.67969,159.06738-143.24121Z" transform="translate(-16.59403 -5302.08323)"/>
      <path class="cls-4" d="M3671.55957,6268.22881l-163.82129,137.78711-10.98437-13.05957,163.82129-137.78809Z" transform="translate(-16.59403 -5302.08323)"/>
      <path class="cls-4" d="M3711.73047,6318.136l-168.37207,132.165-10.53613-13.42187,168.37207-132.165Z" transform="translate(-16.59403 -5302.08323)"/>
      <path class="cls-4" d="M3750.19141,6369.344l-172.73926,126.41309-10.07812-13.77051,172.74024-126.41309Z" transform="translate(-16.59403 -5302.08323)"/>
      <path class="cls-4" d="M3786.91113,6421.82647l-176.90527,120.52637-9.6084-14.10254,176.90625-120.52637Z" transform="translate(-16.59403 -5302.08323)"/>
      <path class="cls-4" d="M3821.83008,6475.50225L3640.97461,6590.011l-9.12891-14.417,180.85644-114.50977Z" transform="translate(-16.59403 -5302.08323)"/>
      <path class="cls-4" d="M3854.92773,6530.3167l-184.59668,108.37793-8.64062-14.71582,184.59668-108.377Z" transform="translate(-16.59403 -5302.08323)"/>
      <path class="cls-4" d="M3886.14746,6586.19951L3698.02832,6688.3167l-8.1416-14.99609,188.12012-102.11719Z" transform="translate(-16.59403 -5302.08323)"/>
      <path class="cls-4" d="M3915.502,6643.096l-191.44922,95.76855-7.63379-15.26172,191.44922-95.76855Z" transform="translate(-16.59403 -5302.08323)"/>
      <path class="cls-4" d="M3942.90625,6700.93193l-194.5332,89.30469-7.11914-15.50781,194.5332-89.30469Z" transform="translate(-16.59403 -5302.08323)"/>
      <path class="cls-4" d="M3968.37988,6759.66338l-197.40918,82.75684-6.59766-15.73633,197.41016-82.75781Z" transform="translate(-16.59403 -5302.08323)"/>
      <path class="cls-4" d="M3991.877,6819.20928l-200.06836,76.11719-6.06836-15.94922,200.06836-76.11719Z" transform="translate(-16.59403 -5302.08323)"/>
      <path class="cls-4" d="M4013.36719,6879.514l-202.499,69.38672-5.53125-16.14356,202.498-69.38574Z" transform="translate(-16.59403 -5302.08323)"/>
      <path class="cls-4" d="M4032.81836,6940.471L3828.126,7003.05986l-4.98926-16.31738,204.69238-62.58789Z" transform="translate(-16.59403 -5302.08323)"/>
      <path class="cls-4" d="M4050.24512,7002.05889l-206.68262,55.72168-4.44141-16.47559,206.68262-55.72266Z" transform="translate(-16.59403 -5302.08323)"/>
      <path class="cls-4" d="M4065.59766,7064.22686L3857.168,7113.00029l-3.88867-16.61523L4061.71,7047.61162Z" transform="translate(-16.59403 -5302.08323)"/>
      <path class="cls-4" d="M4078.84766,7126.82061L3868.915,7168.59893l-3.33106-16.73535,209.93457-41.77832Z" transform="translate(-16.59403 -5302.08323)"/>
      <path class="cls-4" d="M4090.01953,7189.88311l-211.22266,34.72168-2.76758-16.83887,211.22168-34.7207Z" transform="translate(-16.59403 -5302.08323)"/>
      <path class="cls-4" d="M4099.06055,7253.25225l-212.25977,27.6377-2.20215-16.9209,212.25879-27.63672Z" transform="translate(-16.59403 -5302.08323)"/>
      <path class="cls-4" d="M4105.97266,7316.90068l-213.06641,20.498-1.63379-16.98535,213.06738-20.49707Z" transform="translate(-16.59403 -5302.08323)"/>
      <path class="cls-4" d="M4110.75,7380.762l-213.63769,13.32422-1.06348-17.03125,213.63867-13.32324Z" transform="translate(-16.59403 -5302.08323)"/>
      <path class="cls-4" d="M4113.373,7444.74443l-213.97266,6.11523-0.48731-17.05762,213.97168-6.11523Z" transform="translate(-16.59403 -5302.08323)"/>
      <path class="cls-4" d="M4113.84082,7508.763l-214.05762-1.08691,0.08691-17.06445,214.05762,1.08789Z" transform="translate(-16.59403 -5302.08323)"/>
      <path class="cls-4" d="M4112.14063,7572.79326l-213.89258-8.31641,0.66406-17.05078,213.8916,8.31641Z" transform="translate(-16.59403 -5302.08323)"/>
      <path class="cls-4" d="M4108.28027,7636.75029L3894.792,7621.2044l1.24024-17.01855,213.4873,15.5459Z" transform="translate(-16.59403 -5302.08323)"/>
      <path class="cls-4" d="M4102.26367,7700.54522l-212.84277-22.75684,1.81445-16.9668,212.84277,22.75684Z" transform="translate(-16.59403 -5302.08323)"/>
      <path class="cls-4" d="M4094.0918,7764.06865l-211.95312-29.94726,2.38672-16.89649,211.95313,29.94727Z" transform="translate(-16.59403 -5302.08323)"/>
      <path class="cls-4" d="M4083.77148,7827.27959L3872.958,7790.18193l2.957-16.80664,210.81348,37.09766Z" transform="translate(-16.59403 -5302.08323)"/>
      <path class="cls-4" d="M4071.31348,7890.137L3861.877,7845.92217l3.52539-16.69531,209.43652,44.21484Z" transform="translate(-16.59403 -5302.08323)"/>
      <path class="cls-4" d="M4056.73535,7952.51982l-207.81641-51.2793,4.08887-16.56641,207.81641,51.27832Z" transform="translate(-16.59403 -5302.08323)"/>
      <path class="cls-4" d="M4040.07813,8014.3499l-205.97949-58.26855,4.64453-16.4209L4044.72363,7997.93Z" transform="translate(-16.59403 -5302.08323)"/>
      <path class="cls-4" d="M4021.32324,8075.60186l-203.8916-65.18359,5.19726-16.25488,203.8916,65.18457Z" transform="translate(-16.59403 -5302.08323)"/>
      <path class="cls-4" d="M4000.53711,8136.15557l-201.58789-71.99316,5.73926-16.07031,201.58887,71.99414Z" transform="translate(-16.59403 -5302.08323)"/>
      <path class="cls-4" d="M3977.72852,8195.97881l-199.06152-78.708,6.27441-15.86816,199.06152,78.707Z" transform="translate(-16.59403 -5302.08323)"/>
      <path class="cls-4" d="M3952.94727,8254.98565l-196.33106-85.28711,6.79883-15.65137,196.33106,85.28711Z" transform="translate(-16.59403 -5302.08323)"/>
      <path class="cls-4" d="M3926.2168,8313.13115l-193.3916-91.74609,7.31348-15.416,193.3916,91.74609Z" transform="translate(-16.59403 -5302.08323)"/>
      <path class="cls-4" d="M3897.51563,8370.47979l-190.11328-98.374,7.8418-15.1543,190.11328,98.373Z" transform="translate(-16.59403 -5302.08323)"/>
      <path class="cls-4" d="M3867.12012,8426.55693l-186.9209-104.31836,8.31543-14.90039,186.92188,104.31836Z" transform="translate(-16.59403 -5302.08323)"/>
      <path class="cls-4" d="M3834.7666,8481.75127l-183.33887-110.47363,8.80664-14.61523L3843.57227,8467.137Z" transform="translate(-16.59403 -5302.08323)"/>
      <path class="cls-4" d="M3800.57031,8535.87432l-179.53809-116.55566,9.291-14.31152,179.53809,116.55566Z" transform="translate(-16.59403 -5302.08323)"/>
      <path class="cls-4" d="M3764.582,8588.8167l-175.52734-122.5166,9.76563-13.99121,175.52832,122.51563Z" transform="translate(-16.59403 -5302.08323)"/>
      <path class="cls-4" d="M3726.81055,8640.54522l-171.30078-128.36816,10.2334-13.65527,171.30176,128.36914Z" transform="translate(-16.59403 -5302.08323)"/>
      <path class="cls-4" d="M3687.31641,8690.95732l-166.86426-134.06641,10.68652-13.30273,166.86523,134.06641Z" transform="translate(-16.59403 -5302.08323)"/>
      <path class="cls-4" d="M3646.12988,8740.0335l-162.23926-139.63672,11.13281-12.93262,162.23828,139.63574Z" transform="translate(-16.59403 -5302.08323)"/>
      <path class="cls-4" d="M3603.30176,8787.68584l-157.417-145.05664,11.56445-12.54785,157.416,145.05664Z" transform="translate(-16.59403 -5302.08323)"/>
      <path class="cls-4" d="M3558.875,8833.86748l-152.41113-150.30273,11.98242-12.15039,152.41016,150.30273Z" transform="translate(-16.59403 -5302.08323)"/>
      <path class="cls-4" d="M3512.93262,8878.50225l-147.23535-155.37988,12.38672-11.7373L3525.32031,8866.764Z" transform="translate(-16.59403 -5302.08323)"/>
      <path class="cls-4" d="M3465.50293,8921.56084l-141.89746-160.27441,12.77637-11.31152,141.89746,160.27539Z" transform="translate(-16.59403 -5302.08323)"/>
      <path class="cls-4" d="M3416.6416,8962.99053l-136.4043-164.97363,13.15234-10.874L3429.793,8952.11748Z" transform="translate(-16.59403 -5302.08323)"/>
      <path class="cls-4" d="M3366.43457,9002.719l-130.75293-169.47852,13.50976-10.42285,130.75391,169.47754Z" transform="translate(-16.59403 -5302.08323)"/>
      <path class="cls-4" d="M3314.89844,9040.74932l-124.96289-173.792,13.85547-9.96191,124.96094,173.791Z" transform="translate(-16.59403 -5302.08323)"/>
    </g>
    <g>
      <path class="cls-4" d="M1814.71582,8349.3257v332.11717a39.58331,39.58331,0,0,0,39.46728,39.46728h704.29364a39.58331,39.58331,0,0,0,39.46728-39.46728V8349.3257h0s1.57867-101.62826-96.69484-122.74328c-72.81713-15.58758-139.91151-37.09922-174.05075-78.53987H2085.264c-34.13921,41.44065-101.03624,62.95037-174.05072,78.53987-98.07612,21.31231-96.49744,122.74328-96.49744,122.74328h0Z" transform="translate(-16.59403 -5302.08323)"/>
      <path class="cls-4" d="M3252.70636,7382.17987a20.99941,20.99941,0,0,0-1.38138-22.891,362.684,362.684,0,0,0-26.8377-31.57383c-25.45645-26.64042-3.74944-70.64644,32.95316-66.50237,9.86682,1.184,20.12834,2.56538,30.1945,4.14408a20.34957,20.34957,0,0,0,22.891-14.0109c41.63794-130.242,37.88862-253.77465,29.20577-328.36779-2.36806-19.53631-27.82439-25.06173-38.0859-8.09079-41.046,67.48906-147.01563,173.45872-419.73459,247.06518-375.53118,101.23359-492.155,384.214-527.67559,530.04765q-87.02534,84.36132-169.11734,173.656a41.4496,41.4496,0,0,0-3.74938,4.53871H2336.278q45.58469-47.06472,92.35342-92.94745C2908.5516,7745.87288,3142.39526,7571.42551,3252.70636,7382.17987Z" transform="translate(-16.59403 -5302.08323)"/>
      <path class="cls-4" d="M2278.25909,7931.76382H2027.24717a39.58331,39.58331,0,0,0-39.46728,39.46728v71.43376a39.58331,39.58331,0,0,0,39.46728,39.46728h358.36292a39.58331,39.58331,0,0,0,39.46728-39.46728V7971.2311a39.58331,39.58331,0,0,0-39.46728-39.46728h-107.351Z" transform="translate(-16.59403 -5302.08323)"/>
    </g>
  </g>
</svg>
