<svg id="Logistics" xmlns="http://www.w3.org/2000/svg" xmlns:xlink="http://www.w3.org/1999/xlink" viewBox="0 0 4376.48776 4376.48776">
  <defs>
    <style>
      .cls-1 {
        fill: url(#linear-gradient);
      }

      .cls-2 {
        fill: url(#linear-gradient-2);
      }

      .cls-3 {
        fill: url(#linear-gradient-3);
      }

      .cls-4 {
        fill: #fff;
      }

      .cls-5 {
        fill: url(#linear-gradient-4);
      }
    </style>
    <linearGradient id="linear-gradient" x1="640.92179" y1="3735.56596" x2="3735.56596" y2="640.92179" gradientUnits="userSpaceOnUse">
      <stop offset="0.2097" stop-color="#063"/>
      <stop offset="0.50538" stop-color="#fff"/>
      <stop offset="0.8118" stop-color="#063"/>
    </linearGradient>
    <linearGradient id="linear-gradient-2" x1="701.17943" y1="701.9503" x2="3675.50978" y2="3676.28065" gradientUnits="userSpaceOnUse">
      <stop offset="0.20968" stop-color="#063"/>
      <stop offset="0.52151" stop-color="#fff"/>
      <stop offset="0.81183" stop-color="#063"/>
    </linearGradient>
    <linearGradient id="linear-gradient-3" x1="764.99995" y1="-1371.44963" x2="3615.81112" y2="-4222.26081" gradientTransform="translate(-408.31166 -374.67759) rotate(8.94686)" xlink:href="#linear-gradient-2"/>
    <linearGradient id="linear-gradient-4" x1="1072.98044" y1="-1675.25861" x2="3295.83063" y2="-3898.1088" gradientTransform="translate(-462.01912 -434.30828) rotate(10.27455)" gradientUnits="userSpaceOnUse">
      <stop offset="0.20968" stop-color="#063"/>
      <stop offset="0.52688" stop-color="#063" stop-opacity="0.7"/>
      <stop offset="0.81183" stop-color="#063"/>
    </linearGradient>
  </defs>
  <title>Sol_Emblem_LOGISTICS</title>
  <g>
    <circle class="cls-1" cx="2188.24388" cy="2188.24388" r="2188.24388"/>
    <circle class="cls-2" cx="2188.34461" cy="2189.11548" r="2103.16916"/>
    <circle class="cls-3" cx="2190.40554" cy="-2796.85522" r="2015.68646" transform="translate(459.55205 5290.08098) rotate(-8.94686)"/>
    <circle class="cls-4" cx="2188.17678" cy="2186.60682" r="1658.0922"/>
    <circle class="cls-5" cx="2184.40554" cy="-2786.6837" r="1571.65107" transform="translate(530.01491 5328.39776) rotate(-10.27455)"/>
    <g>
      <g id="layer10">
        <path id="path4357-3" class="cls-4" d="M1775.81331-3449.54921H1942.0658l-44.08592,55.41752c23.87008,50.65689,24.94287,102.95657,15.65635,158.17291h242.18754l49.01413,70.504H1775.37738c68.29141-85.65751,65.40819-202.99641.43593-284.09439h0Z" transform="translate(-2.06093 4983.46204)"/>
      </g>
      <g id="layer23">
        <path id="path4388-4" class="cls-4" d="M1421.55031-3449.38158l-230.219-.13411L1082.8766-3291.57748l201.5883-.70407c2.11212,21.59033,3.25195,37.5149,10.35936,53.97591l-248.59093.03356L996.314-3165.4549h425.70568c-36.945-44.38761-59.27294-114.45572-47.00261-180.13205l-154.14984,2.3803,24.87586-40.76689,139.43219-.50288c11.90148-32.68724,24.23885-48.3771,36.375-64.90515h0Z" transform="translate(-2.06093 4983.46204)"/>
      </g>
      <path class="cls-4" d="M1738.2759-3276.72923a140.19942,140.19942,0,0,1-27.65846,57.19438l44.25354,21.85855,0.20119,0.3017a188.22564,188.22564,0,0,0,28.463-59.54116l-0.26822.03356Z" transform="translate(-2.06093 4983.46204)"/>
      <path class="cls-4" d="M1464.44037-3338.349a139.8297,139.8297,0,0,1,27.52435-57.16083l-45.05816-22.26088a188.85485,188.85485,0,0,0-28.396,59.20587h0.067Z" transform="translate(-2.06093 4983.46204)"/>
      <path class="cls-4" d="M1491.86417-3219.90366a139.84651,139.84651,0,0,1-27.45732-57.19438l-45.8963,20.24932H1418.477a188.74967,188.74967,0,0,0,28.36249,59.34l0.13411-.20118Z" transform="translate(-2.06093 4983.46204)"/>
      <path class="cls-4" d="M1570.17952-3170.78893a139.7695,139.7695,0,0,1-57.09379-27.75906l-22.16029,44.79-0.26822.16763a189.30618,189.30618,0,0,0,59.44057,28.53016v-0.067Z" transform="translate(-2.06093 4983.46204)"/>
      <path class="cls-4" d="M1570.146-3444.49036l-20.11525-45.52753v-0.03352a188.70373,188.70373,0,0,0-59.13883,28.329l22.22736,44.95757A140.07266,140.07266,0,0,1,1570.146-3444.49036Z" transform="translate(-2.06093 4983.46204)"/>
      <path class="cls-4" d="M1710.88566-3153.72445l-21.89211-44.2871a140.12677,140.12677,0,0,1-57.22786,27.4238l20.04821,45.561a188.59971,188.59971,0,0,0,59.407-28.463Z" transform="translate(-2.06093 4983.46204)"/>
      <path class="cls-4" d="M1710.51693-3395.845a139.84366,139.84366,0,0,1,27.7255,57.12731l45.12524-19.88059h0.067a188.10308,188.10308,0,0,0-28.463-59.23938l-0.067.10059Z" transform="translate(-2.06093 4983.46204)"/>
      <path class="cls-4" d="M1631.76569-3444.69154a139.53833,139.53833,0,0,1,57.16083,27.35673l21.95914-44.45469,0.03356-.03352a188.8784,188.8784,0,0,0-59.23939-28.329l0.03356,0.20114Z" transform="translate(-2.06093 4983.46204)"/>
      <path class="cls-4" d="M1464.37333-3277.098a140.92533,140.92533,0,0,1-3.319-30.54168,140.40265,140.40265,0,0,1,3.38606-30.70931l-45.86278-20.21584h-0.067a189.52074,189.52074,0,0,0-6.93974,50.99218,189.0425,189.0425,0,0,0,6.87271,50.724h0.03352Z" transform="translate(-2.06093 4983.46204)"/>
      <path class="cls-4" d="M1601.39171-3167.30224a140.707,140.707,0,0,1-31.21219-3.48661l-20.08173,45.66159v0.067a190.10881,190.10881,0,0,0,50.89155,6.90627,189.611,189.611,0,0,0,50.82456-6.90627l-20.04821-45.561A139.62179,139.62179,0,0,1,1601.39171-3167.30224Z" transform="translate(-2.06093 4983.46204)"/>
      <path class="cls-4" d="M1513.08573-3198.548a141.78769,141.78769,0,0,1-21.2216-21.32219l-44.92405,22.19381-0.13411.20118a190.64081,190.64081,0,0,0,43.85125,43.91829l0.26822-.16763Z" transform="translate(-2.06093 4983.46204)"/>
      <path class="cls-4" d="M1570.146-3444.49036a141.22723,141.22723,0,0,1,31.24567-3.48665,141.71148,141.71148,0,0,1,30.37406,3.28551l19.98118-45.22579-0.03356-.20114a189.10535,189.10535,0,0,0-50.75744-6.87271,189.45794,189.45794,0,0,0-50.95863,6.93974v0.03352Z" transform="translate(-2.06093 4983.46204)"/>
      <path class="cls-4" d="M1513.11929-3416.76486l-22.22736-44.95757a190.05367,190.05367,0,0,0-43.98532,43.95181l45.05816,22.26088A140.8993,140.8993,0,0,1,1513.11929-3416.76486Z" transform="translate(-2.06093 4983.46204)"/>
      <path class="cls-4" d="M1688.96007-3417.30126a140.4926,140.4926,0,0,1,21.59033,21.45626l44.38761-21.92563,0.067-.10059a191.365,191.365,0,0,0-44.01888-43.91829l-0.03356.03352Z" transform="translate(-2.06093 4983.46204)"/>
      <path class="cls-4" d="M1738.24243-3338.75124a141.80108,141.80108,0,0,1,3.45313,31.1116,140.202,140.202,0,0,1-3.41958,30.91041l44.99109,19.81355,0.26822-.03356a189.63409,189.63409,0,0,0,6.83915-50.62337,188.69849,188.69849,0,0,0-6.9733-51.05922h-0.067Z" transform="translate(-2.06093 4983.46204)"/>
      <path class="cls-4" d="M1710.61744-3219.5684a142.9032,142.9032,0,0,1-21.62389,21.55686l21.89211,44.2871,0.3017,0.20118a191.30091,191.30091,0,0,0,43.88473-43.88473l-0.20119-.3017Z" transform="translate(-2.06093 4983.46204)"/>
      <path class="cls-4" d="M1418.51055-3358.56475l-550.856,50.82452,550.789,50.89159a189.04205,189.04205,0,0,1-6.87271-50.724A189.52112,189.52112,0,0,1,1418.51055-3358.56475Z" transform="translate(-2.06093 4983.46204)"/>
      <path class="cls-4" d="M1464.37333-3277.098a140.92533,140.92533,0,0,1-3.319-30.54168,140.40265,140.40265,0,0,1,3.38606-30.70931l-45.86278-20.21584h-0.067a189.52074,189.52074,0,0,0-6.93974,50.99218,189.0425,189.0425,0,0,0,6.87271,50.724h0.03352Z" transform="translate(-2.06093 4983.46204)"/>
      <path class="cls-4" d="M1550.09779-3125.06022l50.82452,550.82251,50.89159-550.789v-0.03356a189.61383,189.61383,0,0,1-50.82456,6.90627A190.10878,190.10878,0,0,1,1550.09779-3125.06022Z" transform="translate(-2.06093 4983.46204)"/>
      <path class="cls-4" d="M1601.39171-3167.30224a140.707,140.707,0,0,1-31.21219-3.48661l-20.08173,45.66159v0.067a190.10881,190.10881,0,0,0,50.89155,6.90627,189.611,189.611,0,0,0,50.82456-6.90627l-20.04821-45.561A139.62179,139.62179,0,0,1,1601.39171-3167.30224Z" transform="translate(-2.06093 4983.46204)"/>
      <path class="cls-4" d="M1446.806-3197.50867L1354.00765-3060.792l136.64957-92.79835A190.64146,190.64146,0,0,1,1446.806-3197.50867Z" transform="translate(-2.06093 4983.46204)"/>
      <path class="cls-4" d="M1513.08573-3198.548a141.78769,141.78769,0,0,1-21.2216-21.32219l-44.92405,22.19381-0.13411.20118a190.64081,190.64081,0,0,0,43.85125,43.91829l0.26822-.16763Z" transform="translate(-2.06093 4983.46204)"/>
      <path class="cls-4" d="M1651.71331-3490.11847l-50.791-550.72192-50.89159,550.789a189.2746,189.2746,0,0,1,50.95862-6.93974A190.20554,190.20554,0,0,1,1651.71331-3490.11847Z" transform="translate(-2.06093 4983.46204)"/>
      <path class="cls-4" d="M1570.146-3444.49036a141.22723,141.22723,0,0,1,31.24567-3.48665,141.71148,141.71148,0,0,1,30.37406,3.28551l19.98118-45.22579-0.03356-.20114a189.10535,189.10535,0,0,0-50.75744-6.87271,189.45794,189.45794,0,0,0-50.95863,6.93974v0.03352Z" transform="translate(-2.06093 4983.46204)"/>
      <path class="cls-4" d="M1490.89192-3461.72243h0l-136.91779-92.9995,92.93246,136.95131h0A190.70654,190.70654,0,0,1,1490.89192-3461.72243Z" transform="translate(-2.06093 4983.46204)"/>
      <path class="cls-4" d="M1513.11929-3416.76486l-22.22736-44.95757a190.05367,190.05367,0,0,0-43.98532,43.95181l45.05816,22.26088A140.8993,140.8993,0,0,1,1513.11929-3416.76486Z" transform="translate(-2.06093 4983.46204)"/>
      <path class="cls-4" d="M1754.97157-3417.87121l92.86539-136.85071-136.88427,92.93242A190.708,190.708,0,0,1,1754.97157-3417.87121Z" transform="translate(-2.06093 4983.46204)"/>
      <path class="cls-4" d="M1688.96007-3417.30126a140.4926,140.4926,0,0,1,21.59033,21.45626l44.38761-21.92563,0.067-.10059a191.365,191.365,0,0,0-44.01888-43.91829l-0.03356.03352Z" transform="translate(-2.06093 4983.46204)"/>
      <path class="cls-4" d="M1783.53521-3256.94924l550.62133-50.791-550.72192-50.89159a190.02647,190.02647,0,0,1,6.9733,51.05922A189.46031,189.46031,0,0,1,1783.53521-3256.94924Z" transform="translate(-2.06093 4983.46204)"/>
      <path class="cls-4" d="M1738.24243-3338.75124a141.80108,141.80108,0,0,1,3.45313,31.1116,140.202,140.202,0,0,1-3.41958,30.91041l44.99109,19.81355,0.26822-.03356a189.63409,189.63409,0,0,0,6.83915-50.62337,188.69849,188.69849,0,0,0-6.9733-51.05922h-0.067Z" transform="translate(-2.06093 4983.46204)"/>
      <path class="cls-4" d="M1711.18743-3153.52334l136.61605,92.7648-92.73132-136.64953A189.33441,189.33441,0,0,1,1711.18743-3153.52334Z" transform="translate(-2.06093 4983.46204)"/>
      <path class="cls-4" d="M1710.61744-3219.5684a142.9032,142.9032,0,0,1-21.62389,21.55686l21.89211,44.2871,0.3017,0.20118a191.30091,191.30091,0,0,0,43.88473-43.88473l-0.20119-.3017Z" transform="translate(-2.06093 4983.46204)"/>
    </g>
    <g>
      <path class="cls-4" d="M1231.43457-4359.6905q45.60352-29.31885,63.35938-1.70264l14.60156,22.71143q17.52246,27.25379-28.083,56.57324l-109.19629,70.20264-12.14844-18.89575,109.19629-70.20264q21.438-13.78235,16.06641-22.1416l-14.60156-22.71094q-5.606-8.722-27.0459,5.06177l-67.95312,43.68726q-45.60645,29.32141-63.35937,1.70215l-8.99414-13.99q-17.75391-27.616,27.84961-56.93677l105.5625-67.86645,12.14844,18.89551-105.5625,67.8667q-21.44238,13.78491-15.833,22.50513l8.99414,13.99024q5.60742,8.72168,27.04688-5.0625Z" transform="translate(-2.06093 4983.46204)"/>
      <path class="cls-4" d="M1313.085-4439.95466q-13.96436-29.71252,35.10449-52.77295l78.97852-37.1145q49.06641-23.05737,63.03125,6.65576l36.93164,78.5874q13.77979,29.324-35.28906,52.38281l-78.97852,37.114q-49.0708,23.0603-63.03125-6.65576Zm169.20313,27.40723q23.06543-10.83874,18.8418-19.83276l-36.93066-78.58789q-4.41065-9.38306-27.47754,1.45654l-78.97852,37.11475q-23.06836,10.84094-18.6582,20.22388l36.74707,78.19678q4.40918,9.38306,27.47754-1.45728Z" transform="translate(-2.06093 4983.46204)"/>
      <path class="cls-4" d="M1530.73438-4573.08332l27.29492-8.96045,40.4209,123.13574,117.18457-38.4668,7.00586,21.34326-144.47949,47.42725Z" transform="translate(-2.06093 4983.46204)"/>
      <path class="cls-4" d="M2092.29785-4539.37776l-30.87891,3.74121-94.0625-113.71289-65.47461,133.041-30.4502,3.689,82.06543-163.11865,20.79981-2.52051Z" transform="translate(-2.06093 4983.46204)"/>
      <path class="cls-4" d="M2123.40234-4539.44368l1.66113-152.05469,120.30664,1.31445q54.21094,0.5918,53.85352,33.42236l-0.20312,18.57471q-0.29883,27.43213-37.93066,31.55566l35.31934,69.07813-30.6709-.335-34.89648-68.20947-77.97168-.85205-0.74219,67.82031Zm30.14258-129.27832-0.42871,39.30957,91.57813,1.001q25.48242,0.27832,25.59961-10.08887l0.20313-18.5752q0.11426-10.36816-25.373-10.646Z" transform="translate(-2.06093 4983.46204)"/>
      <path class="cls-4" d="M2364.251-4686.25715l26.47461,4.0581,70.43066,136.44482L2568.791-4654.909l24.33887,3.73047-23.03516,150.31006-27.33008-4.18848,16.002-104.40527-91.36914,92.854-23.27344-3.56641-59.61328-115.77588L2368.543-4531.75813l-27.3291-4.18848Z" transform="translate(-2.06093 4983.46204)"/>
      <path class="cls-4" d="M2812.50391-4428.23274l-29.72656-9.15234-39.63184-142.15381-113.96,94.86914-29.31348-9.0249,141.35645-115.58887,20.02441,6.16455Z" transform="translate(-2.06093 4983.46204)"/>
      <path class="cls-4" d="M2905.10938-4554.17415l120.46387,55.98975q57.00147,26.4917,39.52149,64.10059l-29.31543,63.07324q-17.29687,37.218-74.29785,10.72363L2841.0166-4416.2762Zm65.84082,173.51563q30.94629,14.38477,38.77734-2.46094l29.31445-63.07227q8.01123-17.23389-22.93555-31.62158l-94.41406-43.88135-45.15625,97.15576Z" transform="translate(-2.06093 4983.46204)"/>
      <path class="cls-4" d="M3227.31934-4203.27961l-26.209-16.74853-0.28711-147.5752-135.13184,61.04248-25.8457-16.51514,167.06152-73.70605,17.65625,11.28174Z" transform="translate(-2.06093 4983.46204)"/>
    </g>
    <g>
      <path class="cls-4" d="M1398.15137-1244.54316l26.07764,12.05176-54.36914,117.64453,111.958,51.74121-9.42432,20.3916-138.03516-63.793Z" transform="translate(-2.06093 4983.46204)"/>
      <path class="cls-4" d="M1565.30811-1132.89277q9.95142-31.28613,61.61719-14.85547L1710.085-1121.299q51.66357,16.43115,41.71484,47.71973l-26.31738,82.74707q-9.82031,30.87744-61.48535,14.44531l-83.16016-26.44922q-51.66943-16.43262-41.71484-47.7207Zm105.49707,135.09766q24.28638,7.72559,27.30127-1.74316l26.31641-82.748q3.14209-9.88037-21.14648-17.60547l-83.15918-26.44922q-24.29-7.72412-27.43213,2.15625l-26.186,82.335q-3.14355,9.88184,21.147,17.60645Z" transform="translate(-2.06093 4983.46204)"/>
      <path class="cls-4" d="M1939.13086-1001.12129l28.293,4.97754-8.7583,49.7793q-5.614,31.91162-59.01074,22.5166l-66.15869-11.64062q-53.40088-9.39551-47.707-41.72949l14.9707-85.09277q5.68945-32.3335,59.085-22.94141l117.21582,20.62207-3.89258,22.125-117.21582-20.623q-25.10449-4.4165-26.89941,5.79394L1814.083-972.24043q-1.79883,10.21143,23.30469,14.62793l66.16113,11.63965q25.0979,4.4165,26.82324-5.36914Z" transform="translate(-2.06093 4983.46204)"/>
      <path class="cls-4" d="M2026.51758-1061.218l28.61816,2.5166-13.32031,151.47949-28.61719-2.5166Z" transform="translate(-2.06093 4983.46204)"/>
      <path class="cls-4" d="M2237.34766-993.465q54.21533-.09082,54.27149,32.74121l0.04492,27q0.0542,32.39941-54.16113,32.49121l-129.81543.21875-0.03906-22.46387,129.81641-.21875q25.48389-.04248,25.4707-9.97949l-0.04492-27q-0.01758-10.3667-25.50586-10.3252l-80.78272.13672q-54.21973.09082-54.27148-32.74121l-0.02881-16.63184q-0.05567-32.83008,54.16113-32.92285l125.49609-.21094,0.03809,22.46289-125.49707.21191q-25.48828.04248-25.4707,10.41113l0.02832,16.63086q0.01758,10.36816,25.50586,10.32617Z" transform="translate(-2.06093 4983.46204)"/>
      <path class="cls-4" d="M2324.32129-1055.61934l184.46289-23.68359,2.86035,22.28125-76.91309,9.875,16.50488,128.54492-28.49414,3.65918-16.50391-128.5459-79.05664,10.15039Z" transform="translate(-2.06093 4983.46204)"/>
      <path class="cls-4" d="M2547.43555-1089.26289l28.08594-6.041,31.97559,148.66406-28.08594,6.041Z" transform="translate(-2.06093 4983.46204)"/>
      <path class="cls-4" d="M2816.77734-1027.77461l6.46289,21.51465-111.08887,33.36914q-51.92871,15.59766-61.99219-17.916l-23.61231-78.61133q-10.06641-33.51123,41.85742-49.1084l111.08887-33.36914,6.46289,21.51367-111.08887,33.36914q-24.41455,7.333-20.80762,19.33106l23.61426,78.61035q3.605,12,28.01465,4.666Z" transform="translate(-2.06093 4983.46204)"/>
      <path class="cls-4" d="M2968.56055-1167.13008q49.49561-22.12061,62.89356,7.85449l11.0166,24.65039q13.21875,29.57959-36.27832,51.70117l-118.51953,52.9668-9.165-20.50976,118.51758-52.9668q23.269-10.39746,19.2168-19.46973l-11.0166-24.65137q-4.229-9.46582-27.5.93359l-73.75391,32.96094q-49.50147,22.12207-62.89453-7.85351l-6.78613-15.18457q-13.39453-29.97363,36.10254-52.0957l114.57519-51.2041,9.166,20.50879-114.57617,51.2041q-23.27051,10.40039-19.03906,19.86524l6.78613,15.18457q4.23047,9.46582,27.5-.93359Z" transform="translate(-2.06093 4983.46204)"/>
    </g>
    <g>
      <path class="cls-4" d="M963.69824-4255.39668l138.27344,163.40527-13.02637,11.02344L950.67188-4244.37422Z" transform="translate(-2.06093 4983.46204)"/>
      <path class="cls-4" d="M915.31348-4213.41328l143.72266,158.63672-12.64746,11.457L902.66748-4201.95625Z" transform="translate(-2.06093 4983.46204)"/>
      <path class="cls-4" d="M868.36035-4169.798l149.02246,153.67188-12.25,11.87988L856.10986-4157.91816Z" transform="translate(-2.06093 4983.46204)"/>
      <path class="cls-4" d="M822.94922-4124.64375L977.082-3976.1125l-11.84082,12.28711L811.10889-4112.35664Z" transform="translate(-2.06093 4983.46204)"/>
      <path class="cls-4" d="M779.05566-4077.95625L938.123-3934.716l-11.41943,12.68066L767.63574-4065.27656Z" transform="translate(-2.06093 4983.46204)"/>
      <path class="cls-4" d="M736.80957-4029.84492L900.624-3892.07051l-10.98291,13.05859-163.814-137.77441Z" transform="translate(-2.06093 4983.46204)"/>
      <path class="cls-4" d="M696.18457-3980.30781l168.37158,132.16406-10.53564,13.42188L685.64893-3966.88594Z" transform="translate(-2.06093 4983.46204)"/>
      <path class="cls-4" d="M657.26416-3929.44844l172.74072,126.41211-10.07812,13.77148L647.1875-3915.67891Z" transform="translate(-2.06093 4983.46204)"/>
      <path class="cls-4" d="M620.0752-3877.298l176.90625,120.52539-9.6084,14.10254L610.46777-3863.19648Z" transform="translate(-2.06093 4983.46204)"/>
      <path class="cls-4" d="M584.67676-3823.93867L765.5332-3709.42891l-9.12842,14.418L575.54834-3809.52168Z" transform="translate(-2.06093 4983.46204)"/>
      <path class="cls-4" d="M551.09277-3769.42109L735.689-3661.04316l-8.64014,14.71582L542.45264-3754.70625Z" transform="translate(-2.06093 4983.46204)"/>
      <path class="cls-4" d="M519.373-3713.81953l188.12012,102.11719-8.14111,14.99707L511.23242-3698.82344Z" transform="translate(-2.06093 4983.46204)"/>
      <path class="cls-4" d="M489.51953-3657.17891L680.96094-3561.423l-7.63379,15.26074-191.44141-95.75488Z" transform="translate(-2.06093 4983.46204)"/>
      <path class="cls-4" d="M461.59277-3599.59687L656.127-3510.29316l-7.11914,15.50684-194.5332-89.30273Z" transform="translate(-2.06093 4983.46204)"/>
      <path class="cls-4" d="M435.59912-3541.0959l197.40918,82.75781-6.59717,15.73535-197.40967-82.75586Z" transform="translate(-2.06093 4983.46204)"/>
      <path class="cls-4" d="M411.57227-3481.76191L611.6416-3405.6457l-6.06787,15.94922-200.06885-76.11621Z" transform="translate(-2.06093 4983.46204)"/>
      <path class="cls-4" d="M389.54492-3421.64961l202.498,69.38574-5.53027,16.14258-202.499-69.38574Z" transform="translate(-2.06093 4983.46204)"/>
      <path class="cls-4" d="M369.54395-3360.86055l204.707,62.58106-4.99023,16.31836-204.70557-62.58106Z" transform="translate(-2.06093 4983.46204)"/>
      <path class="cls-4" d="M351.57813-3299.43867L558.26123-3243.717l-4.44189,16.47559-206.68262-55.72168Z" transform="translate(-2.06093 4983.46204)"/>
      <path class="cls-4" d="M335.67285-3237.41133l208.42969,48.77539-3.8877,16.61523-208.43066-48.77539Z" transform="translate(-2.06093 4983.46204)"/>
      <path class="cls-4" d="M321.86035-3174.91621l209.93408,41.77832-3.33105,16.73438L318.5293-3158.18086Z" transform="translate(-2.06093 4983.46204)"/>
      <path class="cls-4" d="M310.13135-3111.97578l211.22119,34.7207-2.76758,16.83789-211.22119-34.7207Z" transform="translate(-2.06093 4983.46204)"/>
      <path class="cls-4" d="M300.51563-3048.68281l212.27344,27.62988-2.20312,16.92188-212.27246-27.62988Z" transform="translate(-2.06093 4983.46204)"/>
      <path class="cls-4" d="M293.04492-2985.10469l213.06641,20.49707-1.63379,16.98535-213.06641-20.498Z" transform="translate(-2.06093 4983.46204)"/>
      <path class="cls-4" d="M287.69678-2921.28926L501.335-2907.966l-1.06152,17.03125L286.63525-2904.259Z" transform="translate(-2.06093 4983.46204)"/>
      <path class="cls-4" d="M284.498-2857.33516l213.97266,6.11523-0.4873,17.05762-213.97363-6.11426Z" transform="translate(-2.06093 4983.46204)"/>
      <path class="cls-4" d="M283.46387-2793.29414l214.0498-1.09961,0.08838,17.06348-214.05078,1.10059Z" transform="translate(-2.06093 4983.46204)"/>
      <path class="cls-4" d="M284.58252-2729.258l213.89209-8.31641,0.66309,17.05078-213.8916,8.31641Z" transform="translate(-2.06093 4983.46204)"/>
      <path class="cls-4" d="M287.86621-2665.26875L501.355-2680.81563l1.23926,17.01953-213.48877,15.54492Z" transform="translate(-2.06093 4983.46204)"/>
      <path class="cls-4" d="M293.30957-2601.44453l212.84229-22.75586,1.814,16.9668L295.123-2584.47676Z" transform="translate(-2.06093 4983.46204)"/>
      <path class="cls-4" d="M300.90625-2537.8498l211.95313-29.94629,2.3877,16.89648L303.293-2520.95332Z" transform="translate(-2.06093 4983.46204)"/>
      <path class="cls-4" d="M310.65771-2474.549l210.81348-37.09766,2.95752,16.80566-210.81348,37.09766Z" transform="translate(-2.06093 4983.46204)"/>
      <path class="cls-4" d="M322.54736-2411.58125l209.437-44.21484,3.52539,16.69531-209.437,44.21484Z" transform="translate(-2.06093 4983.46204)"/>
      <path class="cls-4" d="M336.5625-2349.06953l207.81641-51.2793,4.08838,16.56641-207.81689,51.2793Z" transform="translate(-2.06093 4983.46204)"/>
      <path class="cls-4" d="M352.66309-2287.093l205.98-58.26953,4.644,16.4209-205.979,58.26855Z" transform="translate(-2.06093 4983.46204)"/>
      <path class="cls-4" d="M370.86621-2225.674l203.8916-65.18457,5.19727,16.25391L376.063-2209.42109Z" transform="translate(-2.06093 4983.46204)"/>
      <path class="cls-4" d="M391.11133-2164.93867l201.58887-71.99414,5.73926,16.07129-201.58887,71.99316Z" transform="translate(-2.06093 4983.46204)"/>
      <path class="cls-4" d="M413.38477-2104.91328l199.0625-78.707,6.27344,15.86719-199.06055,78.709Z" transform="translate(-2.06093 4983.46204)"/>
      <path class="cls-4" d="M437.644-2045.68867l196.33057-85.28711,6.79883,15.65137L444.44238-2030.0373Z" transform="translate(-2.06093 4983.46204)"/>
      <path class="cls-4" d="M463.85938-1987.30879l193.3916-91.74512,7.3125,15.416-193.3916,91.74609Z" transform="translate(-2.06093 4983.46204)"/>
      <path class="cls-4" d="M492.03223-1929.69844l190.11377-98.375,7.8418,15.1543-190.11279,98.375Z" transform="translate(-2.06093 4983.46204)"/>
      <path class="cls-4" d="M521.95166-1873.36836L708.874-1977.68672l8.31494,14.90039L530.26758-1858.467Z" transform="translate(-2.06093 4983.46204)"/>
      <path class="cls-4" d="M553.81738-1817.88789l183.3374-110.47461,8.80615,14.61621L562.623-1803.27266Z" transform="translate(-2.06093 4983.46204)"/>
      <path class="cls-4" d="M587.52832-1763.46211L767.06494-1880.0168l9.29248,14.3125L596.81934-1749.14961Z" transform="translate(-2.06093 4983.46204)"/>
      <path class="cls-4" d="M623.04053-1710.20039L798.57031-1832.716l9.76563,13.99219-175.52832,122.5166Z" transform="translate(-2.06093 4983.46204)"/>
      <path class="cls-4" d="M660.34424-1658.132l171.30127-128.36914,10.2334,13.65625L670.57813-1644.47578Z" transform="translate(-2.06093 4983.46204)"/>
      <path class="cls-4" d="M699.3916-1607.36055L866.25-1741.43965l10.68848,13.30176-166.8584,134.0791Z" transform="translate(-2.06093 4983.46204)"/>
      <path class="cls-4" d="M740.13525-1557.91719l162.23242-139.64844L913.5-1684.634,751.26758-1544.98359Z" transform="translate(-2.06093 4983.46204)"/>
      <path class="cls-4" d="M782.5249-1509.88594l157.41553-145.05664,11.56445,12.54785-157.4165,145.05664Z" transform="translate(-2.06093 4983.46204)"/>
      <path class="cls-4" d="M826.53418-1463.30781l152.41113-150.30273,11.981,12.15039L838.51563-1451.15742Z" transform="translate(-2.06093 4983.46204)"/>
      <path class="cls-4" d="M872.07031-1418.26289l147.23584-155.37891,12.38721,11.73731L884.45752-1406.52461Z" transform="translate(-2.06093 4983.46204)"/>
      <path class="cls-4" d="M919.11133-1374.77656L1061.00977-1535.051l12.77539,11.31152L931.88867-1363.46406Z" transform="translate(-2.06093 4983.46204)"/>
      <path class="cls-4" d="M967.59766-1332.90937L1104.00244-1497.882l13.15088,10.873L980.75-1322.03633Z" transform="translate(-2.06093 4983.46204)"/>
      <path class="cls-4" d="M1017.44727-1292.73164l130.75391-169.47656,13.50928,10.42285L1030.957-1282.30781Z" transform="translate(-2.06093 4983.46204)"/>
      <path class="cls-4" d="M1068.63916-1254.23945l124.96143-173.791,13.854,9.96191-124.9624,173.792Z" transform="translate(-2.06093 4983.46204)"/>
      <path class="cls-4" d="M1121.09717-1217.49531l119.03369-177.90332,14.18213,9.48926-119.0332,177.90332Z" transform="translate(-2.06093 4983.46204)"/>
      <path class="cls-4" d="M1174.76172-1182.5334L1287.751-1364.33906l14.49316,9.00781L1189.2544-1173.52656Z" transform="translate(-2.06093 4983.46204)"/>
    </g>
    <g>
      <path class="cls-4" d="M3432.17188-4244.89424l-138.27344,163.4043-13.02734-11.02149,138.27344-163.40625Z" transform="translate(-2.06093 4983.46204)"/>
      <path class="cls-4" d="M3480.17773-4202.47627l-143.72266,158.63672-12.64648-11.457,143.72266-158.63672Z" transform="translate(-2.06093 4983.46204)"/>
      <path class="cls-4" d="M3526.73438-4158.43916l-149.02344,153.67188-12.25-11.87988,149.02344-153.6709Z" transform="translate(-2.06093 4983.46204)"/>
      <path class="cls-4" d="M3571.73828-4112.87666l-154.13281,148.53027-11.8418-12.28613,154.13281-148.53125Z" transform="translate(-2.06093 4983.46204)"/>
      <path class="cls-4" d="M3615.209-4065.79853L3456.14063-3922.5583l-11.418-12.67969,159.06641-143.24121Z" transform="translate(-2.06093 4983.46204)"/>
      <path class="cls-4" d="M3657.02734-4017.31611L3493.20508-3879.529l-10.98437-13.05957L3646.043-4030.37666Z" transform="translate(-2.06093 4983.46204)"/>
      <path class="cls-4" d="M3697.19727-3967.40889l-168.37109,132.165L3518.29-3848.66572l168.37207-132.165Z" transform="translate(-2.06093 4983.46204)"/>
      <path class="cls-4" d="M3735.6582-3916.20088l-172.73828,126.41309-10.07812-13.77051L3725.582-3929.97139Z" transform="translate(-2.06093 4983.46204)"/>
      <path class="cls-4" d="M3772.37891-3863.71846l-176.90625,120.52637-9.60742-14.10254L3762.77148-3877.821Z" transform="translate(-2.06093 4983.46204)"/>
      <path class="cls-4" d="M3807.29785-3810.04268l-180.85645,114.50879-9.12793-14.417,180.85644-114.50977Z" transform="translate(-2.06093 4983.46204)"/>
      <path class="cls-4" d="M3840.39453-3755.22822l-184.5957,108.37793-8.64062-14.71582,184.5957-108.377Z" transform="translate(-2.06093 4983.46204)"/>
      <path class="cls-4" d="M3871.61523-3699.34541l-188.11914,102.11719-8.14258-14.99609,188.12109-102.11719Z" transform="translate(-2.06093 4983.46204)"/>
      <path class="cls-4" d="M3900.96973-3642.44893l-191.44922,95.76856-7.63379-15.26172,191.44922-95.76856Z" transform="translate(-2.06093 4983.46204)"/>
      <path class="cls-4" d="M3928.373-3584.613l-194.5332,89.30469-7.11914-15.50781,194.5332-89.30469Z" transform="translate(-2.06093 4983.46204)"/>
      <path class="cls-4" d="M3953.84766-3525.88154l-197.40918,82.75684-6.59863-15.73633L3947.25-3541.61885Z" transform="translate(-2.06093 4983.46204)"/>
      <path class="cls-4" d="M3977.34473-3466.33564l-200.06934,76.11719-6.06836-15.94922,200.06934-76.11719Z" transform="translate(-2.06093 4983.46204)"/>
      <path class="cls-4" d="M3998.834-3406.031l-202.498,69.38672-5.53125-16.14356,202.498-69.38574Z" transform="translate(-2.06093 4983.46204)"/>
      <path class="cls-4" d="M4018.28516-3345.07393l-204.69141,62.58887-4.99023-16.31738,204.69336-62.58789Z" transform="translate(-2.06093 4983.46204)"/>
      <path class="cls-4" d="M4035.71289-3283.486l-206.68359,55.72168-4.44141-16.47559,206.68359-55.72266Z" transform="translate(-2.06093 4983.46204)"/>
      <path class="cls-4" d="M4051.06445-3221.31807l-208.42969,48.77344-3.88867-16.61523,208.43164-48.77344Z" transform="translate(-2.06093 4983.46204)"/>
      <path class="cls-4" d="M4064.31543-3158.72432L3854.38281-3116.946l-3.332-16.73535,209.93555-41.77832Z" transform="translate(-2.06093 4983.46204)"/>
      <path class="cls-4" d="M4075.48633-3095.66182l-211.22266,34.72168-2.7666-16.83887,211.22168-34.7207Z" transform="translate(-2.06093 4983.46204)"/>
      <path class="cls-4" d="M4084.52734-3032.29268l-212.25977,27.6377-2.20117-16.9209,212.25781-27.63672Z" transform="translate(-2.06093 4983.46204)"/>
      <path class="cls-4" d="M4091.44043-2968.64424l-213.06738,20.498-1.63281-16.98535,213.06641-20.49707Z" transform="translate(-2.06093 4983.46204)"/>
      <path class="cls-4" d="M4096.21777-2904.78291l-213.6377,13.32422-1.06348-17.03125,213.63769-13.32324Z" transform="translate(-2.06093 4983.46204)"/>
      <path class="cls-4" d="M4098.83984-2840.80049l-213.97266,6.11523-0.48633-17.05762,213.97168-6.11523Z" transform="translate(-2.06093 4983.46204)"/>
      <path class="cls-4" d="M4099.30859-2776.78193l-214.05762-1.08691,0.08691-17.06445,214.05664,1.08789Z" transform="translate(-2.06093 4983.46204)"/>
      <path class="cls-4" d="M4097.60742-2712.75166l-213.8916-8.31641,0.66309-17.05078,213.89258,8.31641Z" transform="translate(-2.06093 4983.46204)"/>
      <path class="cls-4" d="M4093.748-2648.79463l-213.48828-15.5459,1.24023-17.01856,213.48633,15.5459Z" transform="translate(-2.06093 4983.46204)"/>
      <path class="cls-4" d="M4087.73047-2584.99971l-212.8418-22.75684,1.81445-16.9668,212.8418,22.75684Z" transform="translate(-2.06093 4983.46204)"/>
      <path class="cls-4" d="M4079.55859-2521.47627l-211.95312-29.94726,2.38769-16.89649,211.95313,29.94727Z" transform="translate(-2.06093 4983.46204)"/>
      <path class="cls-4" d="M4069.23828-2458.26533l-210.8125-37.09766,2.957-16.80664,210.8125,37.09766Z" transform="translate(-2.06093 4983.46204)"/>
      <path class="cls-4" d="M4056.78125-2395.40791l-209.4375-44.21484,3.52539-16.69531,209.4375,44.21484Z" transform="translate(-2.06093 4983.46204)"/>
      <path class="cls-4" d="M4042.20313-2333.0251l-207.81641-51.2793,4.08789-16.56641,207.81641,51.27832Z" transform="translate(-2.06093 4983.46204)"/>
      <path class="cls-4" d="M4025.54492-2271.195l-205.97852-58.26855,4.64453-16.4209,205.98047,58.26953Z" transform="translate(-2.06093 4983.46204)"/>
      <path class="cls-4" d="M4006.791-2209.94307l-203.89258-65.18359,5.19726-16.25488,203.89258,65.18457Z" transform="translate(-2.06093 4983.46204)"/>
      <path class="cls-4" d="M3986.00391-2149.38935L3784.417-2221.38252l5.73926-16.07031,201.58789,71.99414Z" transform="translate(-2.06093 4983.46204)"/>
      <path class="cls-4" d="M3963.19531-2089.56611l-199.06055-78.708,6.27344-15.86816,199.0625,78.707Z" transform="translate(-2.06093 4983.46204)"/>
      <path class="cls-4" d="M3938.41406-2030.55928L3742.084-2115.84639l6.79883-15.65137,196.33008,85.28711Z" transform="translate(-2.06093 4983.46204)"/>
      <path class="cls-4" d="M3911.68359-1972.41377L3718.293-2064.15986l7.3125-15.416,193.39258,91.74609Z" transform="translate(-2.06093 4983.46204)"/>
      <path class="cls-4" d="M3882.98242-1915.06514l-190.11328-98.374,7.8418-15.1543,190.11328,98.373Z" transform="translate(-2.06093 4983.46204)"/>
      <path class="cls-4" d="M3852.58789-1858.988L3665.666-1963.30635l8.31641-14.90039,186.92188,104.31836Z" transform="translate(-2.06093 4983.46204)"/>
      <path class="cls-4" d="M3820.23438-1803.79365l-183.33887-110.47363,8.80566-14.61524,183.33789,110.47461Z" transform="translate(-2.06093 4983.46204)"/>
      <path class="cls-4" d="M3786.03711-1749.6706L3606.5-1866.22627l9.291-14.31152,179.53711,116.55566Z" transform="translate(-2.06093 4983.46204)"/>
      <path class="cls-4" d="M3750.04981-1696.72822l-175.52832-122.5166,9.76563-13.99121,175.5293,122.51563Z" transform="translate(-2.06093 4983.46204)"/>
      <path class="cls-4" d="M3712.27734-1644.99971l-171.30078-128.36816,10.23438-13.65527L3722.51172-1658.654Z" transform="translate(-2.06093 4983.46204)"/>
      <path class="cls-4" d="M3672.7832-1594.5876L3505.91992-1728.654l10.68555-13.30273,166.86523,134.06641Z" transform="translate(-2.06093 4983.46204)"/>
      <path class="cls-4" d="M3631.59766-1545.51143l-162.24023-139.63672,11.13281-12.93262L3642.72852-1558.445Z" transform="translate(-2.06093 4983.46204)"/>
      <path class="cls-4" d="M3588.76953-1497.85908l-157.417-145.05664,11.56348-12.54785,157.416,145.05664Z" transform="translate(-2.06093 4983.46204)"/>
      <path class="cls-4" d="M3544.3418-1451.67744l-152.41016-150.30273,11.98242-12.15039,152.41016,150.30273Z" transform="translate(-2.06093 4983.46204)"/>
      <path class="cls-4" d="M3498.40039-1407.04268l-147.23633-155.37988,12.38672-11.7373L3510.78711-1418.781Z" transform="translate(-2.06093 4983.46204)"/>
      <path class="cls-4" d="M3450.9707-1363.98408L3309.07227-1524.2585l12.77734-11.31152,141.89746,160.27539Z" transform="translate(-2.06093 4983.46204)"/>
      <path class="cls-4" d="M3402.10938-1322.5544L3265.70508-1487.528l13.15234-10.874,136.40234,164.97461Z" transform="translate(-2.06093 4983.46204)"/>
      <path class="cls-4" d="M3351.90234-1282.82588l-130.75391-169.47852,13.50976-10.42285,130.75391,169.47754Z" transform="translate(-2.06093 4983.46204)"/>
      <path class="cls-4" d="M3300.36523-1244.7956l-124.96191-173.792,13.85449-9.96191,124.96191,173.791Z" transform="translate(-2.06093 4983.46204)"/>
      <path class="cls-4" d="M3247.58789-1208.51533L3128.543-1386.42549l14.18164-9.49023,119.04688,177.91016Z" transform="translate(-2.06093 4983.46204)"/>
      <path class="cls-4" d="M3193.60449-1174.04463l-112.99121-181.80371,14.49414-9.00781,112.98926,181.80566Z" transform="translate(-2.06093 4983.46204)"/>
    </g>
    <g>
      <polygon class="cls-4" points="3138.646 2277.364 2503.782 2719.012 1868.892 2277.364 2503.782 1835.69 3138.646 2277.364"/>
      <polygon class="cls-4" points="2401.159 3458.724 1845.716 3072.288 1845.716 2468.524 2401.159 2854.956 2401.159 3458.724"/>
      <polygon class="cls-4" points="2606.431 3458.724 3161.874 3072.288 3161.874 2468.524 2606.431 2854.956 2606.431 3458.724"/>
    </g>
  </g>
</svg>
