<svg id="Sol_Armada" data-name="Sol Armada" xmlns="http://www.w3.org/2000/svg" xmlns:xlink="http://www.w3.org/1999/xlink" viewBox="0 0 4376.48776 4376.48776">
  <defs>
    <style>
      .cls-1 {
        fill: url(#linear-gradient);
      }

      .cls-2 {
        fill: url(#linear-gradient-2);
      }

      .cls-3 {
        fill: url(#linear-gradient-3);
      }

      .cls-4 {
        fill: #cc3;
      }

      .cls-5 {
        fill: url(#linear-gradient-4);
      }
    </style>
    <linearGradient id="linear-gradient" x1="-1.04393" y1="2188.24388" x2="4375.44383" y2="2188.24388" gradientUnits="userSpaceOnUse">
      <stop offset="0.20968" stop-color="#cc3"/>
      <stop offset="0.52151" stop-color="#fff"/>
      <stop offset="0.81183" stop-color="#cc3"/>
    </linearGradient>
    <linearGradient id="linear-gradient-2" x1="701.17943" y1="701.9503" x2="3675.50978" y2="3676.28065" xlink:href="#linear-gradient"/>
    <linearGradient id="linear-gradient-3" x1="762.01517" y1="3611.9152" x2="3612.6263" y2="761.30408" gradientTransform="translate(-0.02006 -0.00282)" xlink:href="#linear-gradient"/>
    <linearGradient id="linear-gradient-4" x1="1071.71592" y1="3298.60952" x2="3294.36618" y2="1075.95926" gradientTransform="translate(-0.56737 1.35491)" gradientUnits="userSpaceOnUse">
      <stop offset="0.20968" stop-color="#fff" stop-opacity="0"/>
      <stop offset="0.52688" stop-color="#fff" stop-opacity="0.6"/>
      <stop offset="0.81183" stop-color="#fff" stop-opacity="0"/>
    </linearGradient>
  </defs>
  <title>Sol_Emblem</title>
  <g id="Background">
    <circle class="cls-1" cx="2187.19995" cy="2188.24388" r="2188.24388" transform="translate(-905.66212 2187.50571) rotate(-45)"/>
    <circle class="cls-2" cx="2188.34461" cy="2189.11548" r="2103.16916"/>
  </g>
  <g id="Large_Blue_Background" data-name="Large Blue Background">
    <circle class="cls-3" cx="2187.30068" cy="2186.60682" r="2015.68646" transform="translate(-312.40069 366.76984) rotate(-8.94686)"/>
  </g>
  <g id="White_Background" data-name="White Background">
    <circle cx="2188.17678" cy="2186.60682" r="1658.0922"/>
  </g>
  <circle id="SOL_Background" data-name="SOL Background" class="cls-4" cx="2187.30068" cy="2190.27834" r="1571.65107" transform="translate(-354.55079 425.26092) rotate(-10.27455)"/>
  <g id="SOL">
    <g>
      <g id="layer10">
        <path id="path4357-3" d="M2541.97145,1905.37792h332.505l-88.17183,110.835c47.74015,101.31378,49.88575,205.91314,31.3127,316.34582h484.37508l98.02827,141.00791h-858.921c136.58282-171.315,130.81638-405.99282.87186-568.18877h0Z" transform="translate(1.04393 0)"/>
      </g>
      <g id="layer23">
        <path id="path4388-4" d="M1833.44543,1905.71317l-460.438-.26822L1156.098,2221.32136l403.17659-1.40813c4.22423,43.18066,6.5039,75.02981,20.71872,107.95183l-497.18185.06712L982.9728,2473.56652h851.41136c-73.89-88.77522-118.54589-228.91144-94.00522-360.2641l-308.29968,4.76059,49.75172-81.53378,278.86439-1.00576c23.803-65.37447,48.4777-96.75421,72.75006-129.81029h0Z" transform="translate(1.04393 0)"/>
      </g>
      <path d="M2466.89663,2251.01787a280.39882,280.39882,0,0,1-55.31693,114.38877l88.50709,43.7171,0.40237,0.60339a376.45127,376.45127,0,0,0,56.92608-119.08233l-0.53644.06712Z" transform="translate(1.04393 0)"/>
      <path d="M1919.22555,2127.77842a279.65942,279.65942,0,0,1,55.04871-114.32165l-90.11632-44.52176a377.7097,377.7097,0,0,0-56.792,118.41174H1827.5Z" transform="translate(1.04393 0)"/>
      <path d="M1974.07316,2364.669a279.69307,279.69307,0,0,1-54.91464-114.38877l-91.79259,40.49863h-0.067a377.49937,377.49937,0,0,0,56.725,118.68l0.26822-.40237Z" transform="translate(1.04393 0)"/>
      <path d="M2130.70386,2462.89847a279.539,279.539,0,0,1-114.18758-55.51811l-44.32058,89.58-0.53644.33525a378.61232,378.61232,0,0,0,118.88114,57.06032v-0.13407Z" transform="translate(1.04393 0)"/>
      <path d="M2130.63675,1915.49562l-40.23049-91.055v-0.067a377.40749,377.40749,0,0,0-118.27767,56.65795l44.45473,89.91514A280.14535,280.14535,0,0,1,2130.63675,1915.49562Z" transform="translate(1.04393 0)"/>
      <path d="M2412.11614,2497.02744l-43.78422-88.5742a280.25359,280.25359,0,0,1-114.45572,54.84761l40.09642,91.122a377.19941,377.19941,0,0,0,118.814-56.92608Z" transform="translate(1.04393 0)"/>
      <path d="M2411.37868,2012.78634a279.68732,279.68732,0,0,1,55.451,114.25462l90.25047-39.76117h0.13407a376.20622,376.20622,0,0,0-56.92608-118.47877l-0.13407.20119Z" transform="translate(1.04393 0)"/>
      <path d="M2253.87619,1915.09325a279.07666,279.07666,0,0,1,114.32165,54.71346l43.91829-88.90937,0.06712-.067a377.75687,377.75687,0,0,0-118.47877-56.65794l0.06712,0.40229Z" transform="translate(1.04393 0)"/>
      <path d="M1919.09148,2250.28041a283.1226,283.1226,0,0,1,.13407-122.502L1827.5,2087.34674h-0.13407a381.43191,381.43191,0,0,0-.13407,203.4323h0.067Z" transform="translate(1.04393 0)"/>
      <path d="M2193.12825,2469.87185a281.41409,281.41409,0,0,1-62.42438-6.97322l-40.16346,91.32319v0.13407a381.427,381.427,0,0,0,203.43221,0l-40.09642-91.122A279.24359,279.24359,0,0,1,2193.12825,2469.87185Z" transform="translate(1.04393 0)"/>
      <path d="M2016.51628,2407.38035a283.57544,283.57544,0,0,1-42.4432-42.64439l-89.8481,44.38761-0.26822.40237a381.28162,381.28162,0,0,0,87.70251,87.83658l0.53644-.33525Z" transform="translate(1.04393 0)"/>
      <path d="M2130.63675,1915.49562a283.78766,283.78766,0,0,1,123.23945-.40229l39.96236-90.45158-0.06712-.40229a381.4313,381.4313,0,0,0-203.43213.13407v0.067Z" transform="translate(1.04393 0)"/>
      <path d="M2016.5834,1970.94661l-44.45473-89.91514a380.10729,380.10729,0,0,0-87.97065,87.90361l90.11632,44.52176A281.79868,281.79868,0,0,1,2016.5834,1970.94661Z" transform="translate(1.04393 0)"/>
      <path d="M2368.265,1969.87382a280.98525,280.98525,0,0,1,43.18066,42.91253l88.77522-43.85126,0.13407-.20119a382.73,382.73,0,0,0-88.03776-87.83658l-0.06712.067Z" transform="translate(1.04393 0)"/>
      <path d="M2466.82967,2126.97385a283.60215,283.60215,0,0,1,6.90627,62.2232,280.404,280.404,0,0,1-6.83915,61.82083l89.98217,39.6271,0.53644-.06712a381.19165,381.19165,0,0,0-.2683-203.36518H2557.013Z" transform="translate(1.04393 0)"/>
      <path d="M2411.5797,2365.33952a285.8064,285.8064,0,0,1-43.24778,43.11371l43.78422,88.5742,0.60339,0.40237a382.60185,382.60185,0,0,0,87.76946-87.76946l-0.40237-.60339Z" transform="translate(1.04393 0)"/>
      <path d="M1827.36593,2087.34683l-1101.71206,101.649,1101.578,101.78318A381.43161,381.43161,0,0,1,1827.36593,2087.34683Z" transform="translate(1.04393 0)"/>
      <path d="M1919.09148,2250.28041a283.1226,283.1226,0,0,1,.13407-122.502L1827.5,2087.34674h-0.13407a381.43191,381.43191,0,0,0-.13407,203.4323h0.067Z" transform="translate(1.04393 0)"/>
      <path d="M2090.54041,2554.35589l101.649,1101.645,101.78318-1101.57807v-0.06712A381.4292,381.4292,0,0,1,2090.54041,2554.35589Z" transform="translate(1.04393 0)"/>
      <path d="M2193.12825,2469.87185a281.41409,281.41409,0,0,1-62.42438-6.97322l-40.16346,91.32319v0.13407a381.427,381.427,0,0,0,203.43221,0l-40.09642-91.122A279.24359,279.24359,0,0,1,2193.12825,2469.87185Z" transform="translate(1.04393 0)"/>
      <path d="M1883.95684,2409.459l-185.59671,273.43329,273.29914-185.59671A381.28286,381.28286,0,0,1,1883.95684,2409.459Z" transform="translate(1.04393 0)"/>
      <path d="M2016.51628,2407.38035a283.57544,283.57544,0,0,1-42.4432-42.64439l-89.8481,44.38761-0.26822.40237a381.28162,381.28162,0,0,0,87.70251,87.83658l0.53644-.33525Z" transform="translate(1.04393 0)"/>
      <path d="M2293.77143,1824.23938l-101.582-1101.44384-101.78318,1101.578A381.186,381.186,0,0,1,2293.77143,1824.23938Z" transform="translate(1.04393 0)"/>
      <path d="M2130.63675,1915.49562a283.78766,283.78766,0,0,1,123.23945-.40229l39.96236-90.45158-0.06712-.40229a381.4313,381.4313,0,0,0-203.43213.13407v0.067Z" transform="translate(1.04393 0)"/>
      <path d="M1972.12867,1881.03148h0l-273.83558-185.999L1884.158,1968.93509h0A381.41306,381.41306,0,0,1,1972.12867,1881.03148Z" transform="translate(1.04393 0)"/>
      <path d="M2016.5834,1970.94661l-44.45473-89.91514a380.10729,380.10729,0,0,0-87.97065,87.90361l90.11632,44.52176A281.79868,281.79868,0,0,1,2016.5834,1970.94661Z" transform="translate(1.04393 0)"/>
      <path d="M2500.288,1968.7339l185.73078-273.70143L2412.2502,1880.89733A381.416,381.416,0,0,1,2500.288,1968.7339Z" transform="translate(1.04393 0)"/>
      <path d="M2368.265,1969.87382a280.98525,280.98525,0,0,1,43.18066,42.91253l88.77522-43.85126,0.13407-.20119a382.73,382.73,0,0,0-88.03776-87.83658l-0.06712.067Z" transform="translate(1.04393 0)"/>
      <path d="M2557.41524,2290.57785l1101.24265-101.582L2557.21405,2087.21268A380.29715,380.29715,0,0,1,2557.41524,2290.57785Z" transform="translate(1.04393 0)"/>
      <path d="M2466.82967,2126.97385a283.60215,283.60215,0,0,1,6.90627,62.2232,280.404,280.404,0,0,1-6.83915,61.82083l89.98217,39.6271,0.53644-.06712a381.19165,381.19165,0,0,0-.2683-203.36518H2557.013Z" transform="translate(1.04393 0)"/>
      <path d="M2412.71969,2497.42964l273.2321,185.52959-185.46264-273.29906A378.66886,378.66886,0,0,1,2412.71969,2497.42964Z" transform="translate(1.04393 0)"/>
      <path d="M2411.5797,2365.33952a285.8064,285.8064,0,0,1-43.24778,43.11371l43.78422,88.5742,0.60339,0.40237a382.60185,382.60185,0,0,0,87.76946-87.76946l-0.40237-.60339Z" transform="translate(1.04393 0)"/>
    </g>
  </g>
  <g id="Sol_Armada-2" data-name="Sol Armada">
    <g>
      <path d="M1228.3291,623.77178q45.60351-29.31885,63.35938-1.70312L1306.29,644.78057q17.52246,27.25342-28.083,56.57324L1169.01074,771.556l-12.14844-18.89551,109.19629-70.20264q21.438-13.782,16.06641-22.1416l-14.60156-22.71094q-5.606-8.72241-27.0459,5.062l-67.95312,43.687q-45.60645,29.321-63.35937,1.70215l-8.99414-13.98975q-17.75391-27.6167,27.84961-56.937L1233.583,549.263l12.14844,18.89551-105.5625,67.86719q-21.44238,13.78418-15.833,22.50488l8.99414,13.99023q5.60742,8.72168,27.04688-5.0625Z" transform="translate(1.04393 0)"/>
      <path d="M1309.97949,543.50713q-13.96435-29.71216,35.10449-52.77246l78.97852-37.11475q49.06641-23.05737,63.03125,6.65576l36.93164,78.5874q13.77978,29.324-35.28906,52.38281l-78.97852,37.11377q-49.0708,23.061-63.03125-6.65527Zm169.20313,27.40723q23.06543-10.83838,18.8418-19.83252l-36.93066-78.58789q-4.41065-9.38306-27.47754,1.45654l-78.97852,37.11475q-23.06836,10.84058-18.6582,20.22412l36.74707,78.19629q4.40918,9.38379,27.47754-1.457Z" transform="translate(1.04393 0)"/>
      <path d="M1527.62891,410.37871l27.29492-8.96045,40.4209,123.13574,117.18457-38.4668,7.00586,21.34326-144.47949,47.42725Z" transform="translate(1.04393 0)"/>
      <path d="M2089.19238,444.08428l-30.87891,3.74121L1964.251,334.1126l-65.47461,133.041-30.45019,3.689,82.06543-163.11865,20.7998-2.52051Z" transform="translate(1.04393 0)"/>
      <path d="M2120.29688,444.01836l1.66113-152.05469,120.30664,1.31445q54.21094,0.5918,53.85352,33.42236L2295.915,345.2752q-0.29883,27.43213-37.93066,31.55566l35.31934,69.07813-30.6709-.335-34.89649-68.20947-77.97168-.85205-0.74219,67.82031ZM2150.43945,314.74l-0.42871,39.30957,91.57813,1.001q25.48242,0.27832,25.59961-10.08887l0.20313-18.5752q0.11426-10.36816-25.373-10.646Z" transform="translate(1.04393 0)"/>
      <path d="M2361.14551,297.20488l26.47461,4.05811,70.43066,136.44482L2565.68555,328.553l24.33887,3.73047-23.03516,150.31006-27.33008-4.18848,16.002-104.40527-91.36914,92.854-23.27344-3.56641-59.61328-115.77588L2365.4375,451.70391l-27.3291-4.18848Z" transform="translate(1.04393 0)"/>
      <path d="M2809.39844,555.2293l-29.72656-9.15234L2740.04,403.92314l-113.96,94.86914-29.31348-9.0249L2738.123,374.17852l20.02441,6.16455Z" transform="translate(1.04393 0)"/>
      <path d="M2902.00391,429.28789l120.46387,55.98975q57.00147,26.4917,39.52149,64.10059l-29.31543,63.07324q-17.29687,37.218-74.29785,10.72363l-120.46484-55.98926Zm65.84082,173.51562q30.94629,14.38477,38.77734-2.46094l29.31445-63.07227q8.01123-17.23389-22.93555-31.62158l-94.41406-43.88135-45.15625,97.15576Z" transform="translate(1.04393 0)"/>
      <path d="M3224.21387,780.18242l-26.209-16.74854-0.28711-147.5752-135.13183,61.04248-25.8457-16.51514L3203.80176,586.68l17.65625,11.28174Z" transform="translate(1.04393 0)"/>
    </g>
  </g>
  <g id="Left_Bars" data-name="Left Bars">
    <g>
      <path d="M960.59277,728.06523l138.27344,163.40527-13.02637,11.02344L947.56641,739.0877Z" transform="translate(1.04393 0)"/>
      <path d="M912.208,770.04863l143.72266,158.63672-12.64746,11.457L899.562,781.50566Z" transform="translate(1.04393 0)"/>
      <path d="M865.25488,813.66387l149.02246,153.67188-12.25,11.87988L853.00439,825.54375Z" transform="translate(1.04393 0)"/>
      <path d="M819.84375,858.81816l154.13281,148.53125-11.84082,12.28711L808.00342,871.10527Z" transform="translate(1.04393 0)"/>
      <path d="M775.9502,905.50566L935.01758,1048.7459l-11.41943,12.68066L764.53027,918.18535Z" transform="translate(1.04393 0)"/>
      <path d="M733.7041,953.617l163.81445,137.77441L886.53564,1104.45l-163.814-137.77441Z" transform="translate(1.04393 0)"/>
      <path d="M693.0791,1003.1541l168.37158,132.16406L850.915,1148.74,682.54346,1016.576Z" transform="translate(1.04393 0)"/>
      <path d="M654.15869,1054.01348l172.74072,126.41211-10.07812,13.77148L644.082,1067.783Z" transform="translate(1.04393 0)"/>
      <path d="M616.96973,1106.16387L793.876,1226.68926l-9.6084,14.10254L607.3623,1120.26543Z" transform="translate(1.04393 0)"/>
      <path d="M581.57129,1159.52324L762.42773,1274.033l-9.12842,14.418L572.44287,1173.94023Z" transform="translate(1.04393 0)"/>
      <path d="M547.9873,1214.04082L732.5835,1322.41875l-8.64014,14.71582L539.34717,1228.75566Z" transform="translate(1.04393 0)"/>
      <path d="M516.26758,1269.64238L704.3877,1371.75957l-8.14111,14.99707L508.127,1284.63848Z" transform="translate(1.04393 0)"/>
      <path d="M486.41406,1326.283l191.44141,95.75586-7.63379,15.26074-191.44141-95.75488Z" transform="translate(1.04393 0)"/>
      <path d="M458.4873,1383.865l194.53418,89.30371-7.11914,15.50684-194.5332-89.30273Z" transform="translate(1.04393 0)"/>
      <path d="M432.49365,1442.366l197.40918,82.75781-6.59717,15.73535L425.896,1458.10332Z" transform="translate(1.04393 0)"/>
      <path d="M408.4668,1501.7l200.06934,76.11621-6.06787,15.94922-200.06885-76.11621Z" transform="translate(1.04393 0)"/>
      <path d="M386.43945,1561.81231l202.498,69.38574-5.53027,16.14258-202.499-69.38574Z" transform="translate(1.04393 0)"/>
      <path d="M366.43848,1622.60137l204.707,62.58106-4.99023,16.31836-204.70557-62.58105Z" transform="translate(1.04393 0)"/>
      <path d="M348.47266,1684.02324l206.68311,55.72168-4.44189,16.47559-206.68262-55.72168Z" transform="translate(1.04393 0)"/>
      <path d="M332.56738,1746.05059L540.99707,1794.826l-3.8877,16.61523-208.43066-48.77539Z" transform="translate(1.04393 0)"/>
      <path d="M318.75488,1808.5457L528.689,1850.324l-3.33105,16.73438-209.93408-41.77734Z" transform="translate(1.04393 0)"/>
      <path d="M307.02588,1871.48613l211.22119,34.7207-2.76758,16.83789L304.2583,1888.324Z" transform="translate(1.04393 0)"/>
      <path d="M297.41016,1934.7791L509.68359,1962.409l-2.20312,16.92188L295.208,1951.701Z" transform="translate(1.04393 0)"/>
      <path d="M289.93945,1998.35723l213.06641,20.49707-1.63379,16.98535-213.06641-20.498Z" transform="translate(1.04393 0)"/>
      <path d="M284.59131,2062.17266l213.63818,13.32324-1.06152,17.03125-213.63818-13.32422Z" transform="translate(1.04393 0)"/>
      <path d="M281.39258,2126.12676l213.97266,6.11523-0.4873,17.05762-213.97363-6.11426Z" transform="translate(1.04393 0)"/>
      <path d="M280.3584,2190.16826l214.0498-1.09961,0.08838,17.0625-214.05078,1.10156Z" transform="translate(1.04393 0)"/>
      <path d="M281.47705,2254.20342l213.89209-8.31641,0.66309,17.05078-213.8916,8.31641Z" transform="translate(1.04393 0)"/>
      <path d="M284.76074,2318.19365l213.48877-15.54687,1.23926,17.01953L286,2335.21123Z" transform="translate(1.04393 0)"/>
      <path d="M290.2041,2382.01787L503.04639,2359.262l1.814,16.9668-212.84277,22.75586Z" transform="translate(1.04393 0)"/>
      <path d="M297.80078,2445.61162l211.95313-29.94531,2.3877,16.89648-211.9541,29.94531Z" transform="translate(1.04393 0)"/>
      <path d="M307.55225,2508.9124l210.81348-37.09766,2.95752,16.80664L310.50977,2525.719Z" transform="translate(1.04393 0)"/>
      <path d="M319.44189,2571.88115l209.437-44.21484,3.52539,16.69531-209.437,44.21484Z" transform="translate(1.04393 0)"/>
      <path d="M333.457,2634.39287l207.81641-51.2793,4.08838,16.56641-207.81689,51.2793Z" transform="translate(1.04393 0)"/>
      <path d="M349.55762,2696.36943l205.98-58.26953,4.644,16.41992-205.979,58.26953Z" transform="translate(1.04393 0)"/>
      <path d="M367.76074,2757.7874l203.8916-65.18359,5.19727,16.25391-203.89209,65.18359Z" transform="translate(1.04393 0)"/>
      <path d="M388.00586,2818.52373l201.58887-71.99414,5.73926,16.07031L393.74512,2834.594Z" transform="translate(1.04393 0)"/>
      <path d="M410.2793,2878.54912l199.0625-78.707,6.27344,15.86719-199.06055,78.709Z" transform="translate(1.04393 0)"/>
      <path d="M434.53857,2937.77373l196.33057-85.28711L637.668,2868.137l-196.33105,85.28711Z" transform="translate(1.04393 0)"/>
      <path d="M460.75391,2996.15264l193.3916-91.74414,7.3125,15.416-193.3916,91.74609Z" transform="translate(1.04393 0)"/>
      <path d="M488.92676,3053.764l190.11377-98.375,7.8418,15.1543-190.11279,98.375Z" transform="translate(1.04393 0)"/>
      <path d="M518.84619,3110.094l186.92236-104.31836,8.31494,14.90039L527.16211,3124.99443Z" transform="translate(1.04393 0)"/>
      <path d="M550.71191,3165.57451l183.3374-110.47461,8.80615,14.61524L559.51758,3180.18975Z" transform="translate(1.04393 0)"/>
      <path d="M584.42285,3220.00029l179.53662-116.55469,9.29248,14.3125L593.71387,3234.31279Z" transform="translate(1.04393 0)"/>
      <path d="M619.93506,3273.262l175.52979-122.51562,9.76563,13.99219L629.70215,3287.2542Z" transform="translate(1.04393 0)"/>
      <path d="M657.23877,3325.33037L828.54,3196.96123l10.2334,13.65625L667.47266,3338.98662Z" transform="translate(1.04393 0)"/>
      <path d="M696.28613,3376.10186l166.8584-134.08008,10.68848,13.30274-166.8584,134.07813Z" transform="translate(1.04393 0)"/>
      <path d="M737.02979,3425.54522l162.23242-139.64844,11.13232,12.93164L748.16211,3438.47881Z" transform="translate(1.04393 0)"/>
      <path d="M779.41943,3473.57647L936.835,3328.51982l11.56445,12.54688-157.4165,145.05664Z" transform="translate(1.04393 0)"/>
      <path d="M823.42871,3520.15459l152.41113-150.30274,11.981,12.15039L835.41016,3532.305Z" transform="translate(1.04393 0)"/>
      <path d="M868.96484,3565.19951l147.23584-155.37891,12.38721,11.73633L881.35205,3576.93779Z" transform="translate(1.04393 0)"/>
      <path d="M916.00586,3608.68584l141.89844-160.27539,12.77539,11.3125L928.7832,3619.99834Z" transform="translate(1.04393 0)"/>
      <path d="M964.49219,3650.553L1100.897,3485.58037l13.15088,10.873L977.64453,3661.42607Z" transform="translate(1.04393 0)"/>
      <path d="M1014.3418,3690.73076L1145.0957,3521.2542l13.50928,10.42188-130.75342,169.47852Z" transform="translate(1.04393 0)"/>
      <path d="M1065.53369,3729.22295l124.96143-173.791,13.854,9.96094-124.9624,173.793Z" transform="translate(1.04393 0)"/>
      <path d="M1117.9917,3765.96709l119.03369-177.9043,14.18213,9.49023-119.0332,177.90234Z" transform="translate(1.04393 0)"/>
      <path d="M1171.65625,3800.928l112.98926-181.80469,14.49316,9.00781-112.98975,181.80469Z" transform="translate(1.04393 0)"/>
      <path d="M1226.44873,3834.06084l106.83057-185.498,14.78906,8.51563-106.83252,185.498Z" transform="translate(1.04393 0)"/>
      <path d="M1282.30859,3865.31475l100.54932-188.96289,15.064,8.01367-100.54981,188.96289Z" transform="translate(1.04393 0)"/>
      <path d="M1339.19434,3894.68975l94.16748-192.2207,15.32324,7.50586-94.167,192.22266Z" transform="translate(1.04393 0)"/>
      <path d="M1396.99951,3922.137l87.688-195.26758,15.56689,6.99023-87.689,195.26758Z" transform="translate(1.04393 0)"/>
      <path d="M1455.72949,3947.65459l81.11572-198.0957,15.7915,6.46484-81.11523,198.09766Z" transform="translate(1.04393 0)"/>
      <path d="M1515.25342,3971.18l74.4541-200.69531,15.999,5.93555-74.4541,200.69531Z" transform="translate(1.04393 0)"/>
      <path d="M1575.52393,3992.69561l67.70361-203.06445,16.188,5.39649-67.70312,203.06445Z" transform="translate(1.04393 0)"/>
      <path d="M1636.49121,4012.20342l60.89209-205.2168,16.35889,4.85352-60.89209,205.2168Z" transform="translate(1.04393 0)"/>
      <path d="M1698.05615,4029.64482l53.99951-207.127,16.51074,4.30469-53.99951,207.127Z" transform="translate(1.04393 0)"/>
      <path d="M1760.19775,4045.03545l47.04394-208.82031,16.646,3.75-47.04443,208.81836Z" transform="translate(1.04393 0)"/>
      <path d="M1822.81787,4058.344l40.03369-210.28516,16.76367,3.19336-40.03467,210.28125Z" transform="translate(1.04393 0)"/>
      <path d="M1885.83838,4069.54131l32.97607-211.50391,16.86035,2.63086-32.97656,211.50391Z" transform="translate(1.04393 0)"/>
      <path d="M1949.23438,4078.63115l25.86475-212.49414,16.93994,2.0625-25.86523,212.49414Z" transform="translate(1.04393 0)"/>
      <path d="M2012.86231,4085.56865l18.7124-213.22656,16.99756,1.49219-18.71191,213.22461Z" transform="translate(1.04393 0)"/>
      <path d="M2076.72559,4090.387l11.53223-213.74414,17.03906,0.91992-11.53174,213.74414Z" transform="translate(1.04393 0)"/>
      <path d="M2140.70166,4093.053l4.33691-214.01758,17.06152,0.3457-4.33691,214.01758Z" transform="translate(1.04393 0)"/>
    </g>
  </g>
  <g id="Right_Bars" data-name="Right Bars">
    <g>
      <path d="M3429.06641,738.56768L3290.793,901.972l-13.02637-11.02148L3416.04,727.54424Z" transform="translate(1.04393 0)"/>
      <path d="M3477.07227,780.98564L3333.35059,939.62236l-12.64648-11.457,143.72266-158.63672Z" transform="translate(1.04393 0)"/>
      <path d="M3523.62891,825.02275L3374.60645,978.69463l-12.25-11.87988,149.02246-153.6709Z" transform="translate(1.04393 0)"/>
      <path d="M3568.63281,870.58525L3414.5,1019.11553l-11.84082-12.28613L3556.792,858.29814Z" transform="translate(1.04393 0)"/>
      <path d="M3612.10449,917.66338l-159.06836,143.24023-11.41894-12.67969,159.06738-143.24121Z" transform="translate(1.04393 0)"/>
      <path d="M3653.92188,966.1458l-163.82129,137.78711-10.98437-13.05957L3642.9375,953.08525Z" transform="translate(1.04393 0)"/>
      <path d="M3694.0918,1016.053l-168.37109,132.165-10.53516-13.42187,168.37109-132.165Z" transform="translate(1.04393 0)"/>
      <path d="M3732.55371,1067.261l-172.73926,126.41309-10.07812-13.77051,172.74024-126.41309Z" transform="translate(1.04393 0)"/>
      <path d="M3769.27344,1119.74346l-176.90527,120.52637-9.6084-14.10254L3759.666,1105.64092Z" transform="translate(1.04393 0)"/>
      <path d="M3804.19336,1173.41924L3623.33691,1287.928l-9.12793-14.417,180.85547-114.50977Z" transform="translate(1.04393 0)"/>
      <path d="M3837.29,1228.23369l-184.59668,108.37793-8.64062-14.71582,184.59668-108.377Z" transform="translate(1.04393 0)"/>
      <path d="M3868.50977,1284.1165l-188.11914,102.11719-8.1416-14.99609,188.12012-102.11719Z" transform="translate(1.04393 0)"/>
      <path d="M3897.86523,1341.013L3706.416,1436.78154l-7.63477-15.26172,191.44922-95.76855Z" transform="translate(1.04393 0)"/>
      <path d="M3925.26856,1398.84893l-194.53418,89.30469-7.11816-15.50781,194.5332-89.30469Z" transform="translate(1.04393 0)"/>
      <path d="M3950.74219,1457.58037l-197.4082,82.75684-6.59863-15.73633,197.41016-82.75781Z" transform="translate(1.04393 0)"/>
      <path d="M3974.24023,1517.12627l-200.06934,76.11719-6.06836-15.94922,200.06934-76.11719Z" transform="translate(1.04393 0)"/>
      <path d="M3995.72852,1577.431l-202.498,69.38672-5.53125-16.14355,202.498-69.38574Z" transform="translate(1.04393 0)"/>
      <path d="M4015.18066,1638.388l-204.69238,62.58887-4.98926-16.31738,204.69238-62.58789Z" transform="translate(1.04393 0)"/>
      <path d="M4032.60742,1699.97588l-206.68262,55.72168-4.44238-16.47559,206.68359-55.72266Z" transform="translate(1.04393 0)"/>
      <path d="M4047.96,1762.14385l-208.42969,48.77344-3.88867-16.61523,208.43066-48.77344Z" transform="translate(1.04393 0)"/>
      <path d="M4061.21094,1824.7376l-209.93359,41.77832-3.33106-16.73535,209.93457-41.77832Z" transform="translate(1.04393 0)"/>
      <path d="M4072.38086,1887.8001l-211.22168,34.72168-2.7666-16.83887,211.2207-34.7207Z" transform="translate(1.04393 0)"/>
      <path d="M4081.42188,1951.16924l-212.25879,27.6377-2.20215-16.9209,212.25879-27.63672Z" transform="translate(1.04393 0)"/>
      <path d="M4088.33594,2014.81768l-213.06738,20.498-1.63379-16.98535,213.06738-20.49707Z" transform="translate(1.04393 0)"/>
      <path d="M4093.11328,2078.679l-213.63867,13.32422-1.0625-17.03125,213.6377-13.32324Z" transform="translate(1.04393 0)"/>
      <path d="M4095.73535,2142.66143l-213.97266,6.11523-0.4873-17.05762,213.97266-6.11523Z" transform="translate(1.04393 0)"/>
      <path d="M4096.20313,2206.68l-214.05664-1.08691,0.08594-17.06445L4096.29,2189.6165Z" transform="translate(1.04393 0)"/>
      <path d="M4094.502,2270.71025l-213.89062-8.31641,0.66211-17.05078,213.89258,8.31641Z" transform="translate(1.04393 0)"/>
      <path d="M4090.64258,2334.66729l-213.48828-15.5459,1.24023-17.01856,213.48731,15.5459Z" transform="translate(1.04393 0)"/>
      <path d="M4084.626,2398.46221l-212.84277-22.75684,1.81445-16.9668,212.8418,22.75684Z" transform="translate(1.04393 0)"/>
      <path d="M4076.4541,2461.98565L3864.501,2432.03838l2.38769-16.89648,211.95313,29.94726Z" transform="translate(1.04393 0)"/>
      <path d="M4066.13281,2525.19658l-210.8125-37.09766,2.957-16.80664,210.81348,37.09766Z" transform="translate(1.04393 0)"/>
      <path d="M4053.67578,2588.054l-209.4375-44.21484,3.52539-16.69531,209.4375,44.21484Z" transform="translate(1.04393 0)"/>
      <path d="M4039.09766,2650.43682l-207.81641-51.2793,4.08789-16.56641,207.81738,51.27832Z" transform="translate(1.04393 0)"/>
      <path d="M4022.44043,2712.2669l-205.97949-58.26856,4.64453-16.4209,205.98047,58.26953Z" transform="translate(1.04393 0)"/>
      <path d="M4003.68555,2773.51885l-203.8916-65.18359,5.19629-16.25488,203.89258,65.18457Z" transform="translate(1.04393 0)"/>
      <path d="M3982.89941,2834.07256L3781.3125,2762.0794l5.73828-16.07031,201.58887,71.99414Z" transform="translate(1.04393 0)"/>
      <path d="M3960.09082,2893.8958l-199.06152-78.708,6.27441-15.86816,199.06152,78.707Z" transform="translate(1.04393 0)"/>
      <path d="M3935.30859,2952.90264l-196.33008-85.28711,6.79883-15.65137,196.33008,85.28711Z" transform="translate(1.04393 0)"/>
      <path d="M3908.5791,3011.04815l-193.3916-91.74609,7.31348-15.416,193.3916,91.74609Z" transform="translate(1.04393 0)"/>
      <path d="M3879.87793,3068.39678l-190.11328-98.374,7.8418-15.1543,190.11328,98.373Z" transform="translate(1.04393 0)"/>
      <path d="M3849.48242,3124.47393l-186.9209-104.31836,8.31543-14.90039,186.92188,104.31836Z" transform="translate(1.04393 0)"/>
      <path d="M3817.12891,3179.66826L3633.791,3069.19463l8.80566-14.61523L3825.93457,3165.054Z" transform="translate(1.04393 0)"/>
      <path d="M3782.93164,3233.79131l-179.53711-116.55566,9.291-14.31152,179.53809,116.55566Z" transform="translate(1.04393 0)"/>
      <path d="M3746.94531,3286.73369L3571.417,3164.21709l9.76563-13.99121,175.52832,122.51563Z" transform="translate(1.04393 0)"/>
      <path d="M3709.17285,3338.46221L3537.87207,3210.094l10.2334-13.65527,171.30078,128.36914Z" transform="translate(1.04393 0)"/>
      <path d="M3669.67871,3388.87432l-166.86426-134.06641L3513.5,3241.50518l166.86523,134.06641Z" transform="translate(1.04393 0)"/>
      <path d="M3628.49219,3437.95049l-162.23926-139.63672,11.13281-12.93262L3639.623,3425.0169Z" transform="translate(1.04393 0)"/>
      <path d="M3585.66406,3485.60283l-157.416-145.05664,11.56348-12.54785,157.416,145.05664Z" transform="translate(1.04393 0)"/>
      <path d="M3541.23731,3531.78447l-152.41113-150.30274,11.98242-12.15039,152.41016,150.30273Z" transform="translate(1.04393 0)"/>
      <path d="M3495.29492,3576.41924l-147.23535-155.37988,12.38672-11.7373L3507.68164,3564.681Z" transform="translate(1.04393 0)"/>
      <path d="M3447.86523,3619.47783l-141.89746-160.27441,12.77637-11.31152,141.89844,160.27539Z" transform="translate(1.04393 0)"/>
      <path d="M3399.00391,3660.90752l-136.4043-164.97363,13.15234-10.874,136.40332,164.97461Z" transform="translate(1.04393 0)"/>
      <path d="M3348.79688,3700.636L3218.043,3531.15752l13.50976-10.42285,130.75488,169.47754Z" transform="translate(1.04393 0)"/>
      <path d="M3297.26074,3738.66631l-124.96191-173.792,13.85449-9.96191,124.96191,173.791Z" transform="translate(1.04393 0)"/>
      <path d="M3244.4834,3774.94658l-119.0459-177.91016,14.18164-9.49024L3258.666,3765.45635Z" transform="translate(1.04393 0)"/>
      <path d="M3190.5,3809.41729l-112.99121-181.80371,14.49316-9.00781,112.99024,181.80566Z" transform="translate(1.04393 0)"/>
      <path d="M3135.41406,3842.05986l-106.832-185.499,14.78711-8.5166,106.832,185.5Z" transform="translate(1.04393 0)"/>
      <path d="M3079.27734,3872.81182l-100.54981-188.96289,15.06348-8.01562,100.5498,188.96289Z" transform="translate(1.04393 0)"/>
      <path d="M3022.13086,3901.681l-94.168-192.22266,15.32422-7.50684,94.167,192.22168Z" transform="translate(1.04393 0)"/>
      <path d="M2964.084,3928.61065l-87.69043-195.26953,15.56738-6.98926,87.68945,195.26856Z" transform="translate(1.04393 0)"/>
      <path d="M2905.12891,3953.60479l-81.11523-198.09766,15.792-6.46484,81.11426,198.09473Z" transform="translate(1.04393 0)"/>
      <path d="M2845.39551,3976.597l-74.45312-200.69336,15.999-5.93555,74.45313,200.69434Z" transform="translate(1.04393 0)"/>
      <path d="M2784.93555,3997.57744L2717.23242,3794.512l16.1875-5.39551L2801.124,3992.18Z" transform="translate(1.04393 0)"/>
      <path d="M2723.81836,4016.53545l-60.89258-205.21777,16.35938-4.85352,60.89258,205.2168Z" transform="translate(1.04393 0)"/>
      <path d="M2662.08106,4033.43291l-53.999-207.127,16.51172-4.30371,53.998,207.126Z" transform="translate(1.04393 0)"/>
      <path d="M2599.80664,4048.2708l-47.04492-208.81934,16.64648-3.751,47.04394,208.82031Z" transform="translate(1.04393 0)"/>
      <path d="M2537.07031,4061.0208l-40.03516-210.28223,16.76367-3.19141L2553.833,4057.8294Z" transform="translate(1.04393 0)"/>
      <path d="M2473.95215,4071.65557l-32.97754-211.50293,16.86133-2.62891,32.97656,211.50293Z" transform="translate(1.04393 0)"/>
      <path d="M2410.49609,4080.1751L2384.63086,3867.68l16.93945-2.06152,25.86523,212.49414Z" transform="translate(1.04393 0)"/>
      <path d="M2346.79688,4086.554l-18.72461-213.23242,16.998-1.49219,18.72656,213.23242Z" transform="translate(1.04393 0)"/>
      <path d="M2282.9043,4090.79131L2271.373,3877.04717l17.03906-.91992,11.53125,213.74414Z" transform="translate(1.04393 0)"/>
      <path d="M2218.88672,4092.887l-4.33594-214.01856,17.06055-.3457,4.33691,214.01758Z" transform="translate(1.04393 0)"/>
    </g>
  </g>
  <circle class="cls-5" cx="2182.47368" cy="2188.6393" r="1571.65107" transform="translate(-408.74907 505.34289) rotate(-12.08301)"/>
</svg>
