<svg id="Arms" xmlns="http://www.w3.org/2000/svg" xmlns:xlink="http://www.w3.org/1999/xlink" viewBox="0 0 4376.48776 4376.48776">
  <defs>
    <style>
      .cls-1 {
        fill: url(#linear-gradient);
      }

      .cls-2 {
        fill: url(#linear-gradient-2);
      }

      .cls-3 {
        fill: url(#linear-gradient-3);
      }

      .cls-4 {
        fill: #fff;
      }

      .cls-5 {
        fill: url(#linear-gradient-4);
      }
    </style>
    <linearGradient id="linear-gradient" x1="640.92179" y1="3735.56596" x2="3735.56596" y2="640.92179" gradientUnits="userSpaceOnUse">
      <stop offset="0.2097" stop-color="#933"/>
      <stop offset="0.50538" stop-color="#fff"/>
      <stop offset="0.8118" stop-color="#933"/>
    </linearGradient>
    <linearGradient id="linear-gradient-2" x1="701.17943" y1="701.9503" x2="3675.50978" y2="3676.28065" gradientUnits="userSpaceOnUse">
      <stop offset="0.20968" stop-color="#933"/>
      <stop offset="0.52151" stop-color="#fff"/>
      <stop offset="0.81183" stop-color="#933"/>
    </linearGradient>
    <linearGradient id="linear-gradient-3" x1="-4343.21112" y1="3610.37535" x2="-1492.39995" y2="759.56418" gradientTransform="translate(304.30197 480.35684) rotate(8.94686)" xlink:href="#linear-gradient-2"/>
    <linearGradient id="linear-gradient-4" x1="-4035.23063" y1="3306.56638" x2="-1812.38044" y2="1083.71619" gradientTransform="translate(344.65176 556.70576) rotate(10.27455)" gradientUnits="userSpaceOnUse">
      <stop offset="0.20968" stop-color="#933"/>
      <stop offset="0.52688" stop-color="#933" stop-opacity="0.7"/>
      <stop offset="0.81183" stop-color="#933"/>
    </linearGradient>
  </defs>
  <title>Sol_Emblem_ARMS</title>
  <circle class="cls-1" cx="2188.24388" cy="2188.24388" r="2188.24388"/>
  <circle class="cls-2" cx="2188.34461" cy="2189.11548" r="2103.16916"/>
  <circle class="cls-3" cx="-2917.80553" cy="2184.96976" r="2015.68646" transform="translate(4730.84631 -425.55074) rotate(-8.94686)"/>
  <circle class="cls-4" cx="2188.17678" cy="2186.60682" r="1658.0922"/>
  <circle class="cls-5" cx="-2923.80553" cy="2195.14128" r="1571.65107" transform="matrix(0.98396, -0.17837, 0.17837, 0.98396, 4667.72814, -484.66767)"/>
  <g>
    <g id="layer10">
      <path id="path4357-3" class="cls-4" d="M-3332.39776,1532.27578h166.25248l-44.08592,55.41752c23.87008,50.65689,24.94287,102.95657,15.65635,158.17291h242.18754l49.01413,70.504h-429.46052c68.29141-85.65751,65.40819-202.99641.43593-284.09439h0Z" transform="translate(5106.15014 1.63706)"/>
    </g>
    <g id="layer23">
      <path id="path4388-4" class="cls-4" d="M-3686.66076,1532.44341l-230.219-.13411-108.45471,157.9382,201.58829-.70407c2.11212,21.59033,3.25195,37.5149,10.35936,53.97591l-248.59093.03356-49.91934,72.81718h425.70568c-36.945-44.38761-59.27294-114.45572-47.00261-180.13205l-154.14984,2.3803,24.87586-40.76689,139.4322-.50288c11.90148-32.68723,24.23885-48.3771,36.375-64.90515h0Z" transform="translate(5106.15014 1.63706)"/>
    </g>
    <path class="cls-4" d="M-3369.93517,1705.09576a140.19942,140.19942,0,0,1-27.65846,57.19439l44.25354,21.85855,0.20118,0.3017a188.22566,188.22566,0,0,0,28.463-59.54116l-0.26822.03356Z" transform="translate(5106.15014 1.63706)"/>
    <path class="cls-4" d="M-3643.7707,1643.476a139.8297,139.8297,0,0,1,27.52435-57.16083l-45.05816-22.26088a188.85485,188.85485,0,0,0-28.396,59.20587h0.067Z" transform="translate(5106.15014 1.63706)"/>
    <path class="cls-4" d="M-3616.3469,1761.92133a139.84653,139.84653,0,0,1-27.45732-57.19438l-45.8963,20.24932h-0.03352a188.74967,188.74967,0,0,0,28.36249,59.34l0.13411-.20119Z" transform="translate(5106.15014 1.63706)"/>
    <path class="cls-4" d="M-3538.03155,1811.03606a139.76949,139.76949,0,0,1-57.09379-27.75906l-22.16029,44.79-0.26822.16763a189.30618,189.30618,0,0,0,59.44057,28.53016v-0.067Z" transform="translate(5106.15014 1.63706)"/>
    <path class="cls-4" d="M-3538.06511,1537.33463l-20.11525-45.52753v-0.03352a188.70373,188.70373,0,0,0-59.13883,28.329l22.22736,44.95757A140.07266,140.07266,0,0,1-3538.06511,1537.33463Z" transform="translate(5106.15014 1.63706)"/>
    <path class="cls-4" d="M-3397.32541,1828.10054l-21.89211-44.2871a140.12678,140.12678,0,0,1-57.22786,27.4238l20.04821,45.561a188.59969,188.59969,0,0,0,59.407-28.463Z" transform="translate(5106.15014 1.63706)"/>
    <path class="cls-4" d="M-3397.69414,1585.98a139.84366,139.84366,0,0,1,27.7255,57.12731l45.12524-19.88059h0.067a188.1031,188.1031,0,0,0-28.463-59.23939l-0.067.10059Z" transform="translate(5106.15014 1.63706)"/>
    <path class="cls-4" d="M-3476.44538,1537.13344a139.53834,139.53834,0,0,1,57.16083,27.35673l21.95914-44.45469,0.03356-.03352a188.87841,188.87841,0,0,0-59.23938-28.329l0.03356,0.20114Z" transform="translate(5106.15014 1.63706)"/>
    <path class="cls-4" d="M-3643.83774,1704.727a140.92527,140.92527,0,0,1-3.319-30.54168,140.40265,140.40265,0,0,1,3.38606-30.70931l-45.86278-20.21584h-0.067a189.52071,189.52071,0,0,0-6.93974,50.99218,189.04254,189.04254,0,0,0,6.87271,50.724h0.03352Z" transform="translate(5106.15014 1.63706)"/>
    <path class="cls-4" d="M-3506.81936,1814.52275a140.707,140.707,0,0,1-31.21219-3.48661l-20.08173,45.66159v0.067a190.10881,190.10881,0,0,0,50.89155,6.90627,189.611,189.611,0,0,0,50.82456-6.90627l-20.04821-45.561A139.6218,139.6218,0,0,1-3506.81936,1814.52275Z" transform="translate(5106.15014 1.63706)"/>
    <path class="cls-4" d="M-3595.12534,1783.277a141.78765,141.78765,0,0,1-21.2216-21.32219l-44.92405,22.19381-0.13411.20118a190.64083,190.64083,0,0,0,43.85126,43.91829l0.26822-.16763Z" transform="translate(5106.15014 1.63706)"/>
    <path class="cls-4" d="M-3538.06511,1537.33463a141.22723,141.22723,0,0,1,31.24567-3.48665,141.71149,141.71149,0,0,1,30.37405,3.28551l19.98118-45.22579-0.03356-.20114a189.10535,189.10535,0,0,0-50.75744-6.87271,189.45794,189.45794,0,0,0-50.95863,6.93974v0.03352Z" transform="translate(5106.15014 1.63706)"/>
    <path class="cls-4" d="M-3595.09178,1565.06013l-22.22736-44.95757a190.05365,190.05365,0,0,0-43.98532,43.95181l45.05816,22.26088A140.8993,140.8993,0,0,1-3595.09178,1565.06013Z" transform="translate(5106.15014 1.63706)"/>
    <path class="cls-4" d="M-3419.251,1564.52373a140.4926,140.4926,0,0,1,21.59033,21.45626l44.38761-21.92563,0.067-.10059a191.365,191.365,0,0,0-44.01888-43.91829l-0.03356.03352Z" transform="translate(5106.15014 1.63706)"/>
    <path class="cls-4" d="M-3369.96864,1643.07375a141.80108,141.80108,0,0,1,3.45313,31.1116,140.202,140.202,0,0,1-3.41958,30.91041l44.99109,19.81355,0.26822-.03356a189.63405,189.63405,0,0,0,6.83915-50.62337,188.69853,188.69853,0,0,0-6.9733-51.05922h-0.067Z" transform="translate(5106.15014 1.63706)"/>
    <path class="cls-4" d="M-3397.59363,1762.25658a142.90324,142.90324,0,0,1-21.62389,21.55685l21.89211,44.2871,0.3017,0.20119A191.30091,191.30091,0,0,0-3353.139,1784.417l-0.20118-.3017Z" transform="translate(5106.15014 1.63706)"/>
    <path class="cls-4" d="M-3689.70052,1623.26024l-550.856,50.82452,550.789,50.89159a189.04209,189.04209,0,0,1-6.87271-50.724A189.52108,189.52108,0,0,1-3689.70052,1623.26024Z" transform="translate(5106.15014 1.63706)"/>
    <path class="cls-4" d="M-3643.83774,1704.727a140.92527,140.92527,0,0,1-3.319-30.54168,140.40265,140.40265,0,0,1,3.38606-30.70931l-45.86278-20.21584h-0.067a189.52071,189.52071,0,0,0-6.93974,50.99218,189.04254,189.04254,0,0,0,6.87271,50.724h0.03352Z" transform="translate(5106.15014 1.63706)"/>
    <path class="cls-4" d="M-3558.11328,1856.76477l50.82452,550.82251,50.89159-550.789v-0.03356a189.61383,189.61383,0,0,1-50.82456,6.90627A190.10878,190.10878,0,0,1-3558.11328,1856.76477Z" transform="translate(5106.15014 1.63706)"/>
    <path class="cls-4" d="M-3506.81936,1814.52275a140.707,140.707,0,0,1-31.21219-3.48661l-20.08173,45.66159v0.067a190.10881,190.10881,0,0,0,50.89155,6.90627,189.611,189.611,0,0,0,50.82456-6.90627l-20.04821-45.561A139.6218,139.6218,0,0,1-3506.81936,1814.52275Z" transform="translate(5106.15014 1.63706)"/>
    <path class="cls-4" d="M-3661.40506,1784.31632l-92.79835,136.71664,136.64957-92.79835A190.64146,190.64146,0,0,1-3661.40506,1784.31632Z" transform="translate(5106.15014 1.63706)"/>
    <path class="cls-4" d="M-3595.12534,1783.277a141.78765,141.78765,0,0,1-21.2216-21.32219l-44.92405,22.19381-0.13411.20118a190.64083,190.64083,0,0,0,43.85126,43.91829l0.26822-.16763Z" transform="translate(5106.15014 1.63706)"/>
    <path class="cls-4" d="M-3456.49776,1491.70651l-50.791-550.72192-50.89159,550.789a189.2746,189.2746,0,0,1,50.95863-6.93974A190.20554,190.20554,0,0,1-3456.49776,1491.70651Z" transform="translate(5106.15014 1.63706)"/>
    <path class="cls-4" d="M-3538.06511,1537.33463a141.22723,141.22723,0,0,1,31.24567-3.48665,141.71149,141.71149,0,0,1,30.37405,3.28551l19.98118-45.22579-0.03356-.20114a189.10535,189.10535,0,0,0-50.75744-6.87271,189.45794,189.45794,0,0,0-50.95863,6.93974v0.03352Z" transform="translate(5106.15014 1.63706)"/>
    <path class="cls-4" d="M-3617.31915,1520.10256h0l-136.91779-92.9995,92.93246,136.95131h0A190.70652,190.70652,0,0,1-3617.31915,1520.10256Z" transform="translate(5106.15014 1.63706)"/>
    <path class="cls-4" d="M-3595.09178,1565.06013l-22.22736-44.95757a190.05365,190.05365,0,0,0-43.98532,43.95181l45.05816,22.26088A140.8993,140.8993,0,0,1-3595.09178,1565.06013Z" transform="translate(5106.15014 1.63706)"/>
    <path class="cls-4" d="M-3353.2395,1563.95377l92.86539-136.85071-136.88427,92.93243A190.708,190.708,0,0,1-3353.2395,1563.95377Z" transform="translate(5106.15014 1.63706)"/>
    <path class="cls-4" d="M-3419.251,1564.52373a140.4926,140.4926,0,0,1,21.59033,21.45626l44.38761-21.92563,0.067-.10059a191.365,191.365,0,0,0-44.01888-43.91829l-0.03356.03352Z" transform="translate(5106.15014 1.63706)"/>
    <path class="cls-4" d="M-3324.67586,1724.87575l550.62133-50.791-550.72192-50.89159a190.02647,190.02647,0,0,1,6.9733,51.05922A189.46031,189.46031,0,0,1-3324.67586,1724.87575Z" transform="translate(5106.15014 1.63706)"/>
    <path class="cls-4" d="M-3369.96864,1643.07375a141.80108,141.80108,0,0,1,3.45313,31.1116,140.202,140.202,0,0,1-3.41958,30.91041l44.99109,19.81355,0.26822-.03356a189.63405,189.63405,0,0,0,6.83915-50.62337,188.69853,188.69853,0,0,0-6.9733-51.05922h-0.067Z" transform="translate(5106.15014 1.63706)"/>
    <path class="cls-4" d="M-3397.02363,1828.30164l136.61605,92.7648-92.73132-136.64953A189.33441,189.33441,0,0,1-3397.02363,1828.30164Z" transform="translate(5106.15014 1.63706)"/>
    <path class="cls-4" d="M-3397.59363,1762.25658a142.90324,142.90324,0,0,1-21.62389,21.55685l21.89211,44.2871,0.3017,0.20119A191.30091,191.30091,0,0,0-3353.139,1784.417l-0.20118-.3017Z" transform="translate(5106.15014 1.63706)"/>
  </g>
  <g>
    <path class="cls-4" d="M-3876.77685,622.13408q45.60351-29.31885,63.35938-1.70215l14.60156,22.71094q17.52246,27.25415-28.083,56.57324l-109.19629,70.20313-12.14844-18.896,109.19629-70.20264q21.438-13.78271,16.06641-22.1416l-14.60156-22.71094q-5.606-8.72168-27.0459,5.06152l-67.95312,43.6875q-45.60645,29.32178-63.35937,1.70215l-8.99414-13.99023q-17.75391-27.61523,27.84961-56.93652l105.5625-67.86621,12.14844,18.89551L-3964.937,634.388q-21.44238,13.78564-15.833,22.50537l8.99414,13.99023q5.60742,8.72168,27.04688-5.0625Z" transform="translate(5106.15014 1.63706)"/>
    <path class="cls-4" d="M-3795.12646,541.87041q-13.96436-29.71289,35.10449-52.77344l78.97852-37.11426q49.06641-23.05737,63.03125,6.65576l36.93164,78.5874q13.77978,29.324-35.28906,52.38281l-78.97852,37.11426q-49.0708,23.05957-63.03125-6.65625Zm169.20313,27.40723q23.06543-10.83911,18.8418-19.833l-36.93066-78.58789q-4.41064-9.38306-27.47754,1.45654l-78.97852,37.11475q-23.06836,10.84131-18.6582,20.22363l36.74707,78.19727q4.40918,9.38232,27.47754-1.45752Z" transform="translate(5106.15014 1.63706)"/>
    <path class="cls-4" d="M-3577.47705,408.7415l27.29492-8.96045,40.4209,123.13574,117.18457-38.4668,7.00586,21.34326-144.47949,47.42725Z" transform="translate(5106.15014 1.63706)"/>
    <path class="cls-4" d="M-3015.91357,442.44707l-30.87891,3.74121-94.0625-113.71289-65.47461,133.041-30.4502,3.689,82.06543-163.11865,20.7998-2.52051Z" transform="translate(5106.15014 1.63706)"/>
    <path class="cls-4" d="M-2984.80908,442.38115l1.66113-152.05469,120.30664,1.31445q54.21094,0.5918,53.85352,33.42236l-0.20312,18.57471q-0.29883,27.43213-37.93066,31.55566l35.31934,69.07813-30.6709-.335-34.89648-68.20947-77.97168-.85205-0.74219,67.82031Zm30.14258-129.27832-0.42871,39.30957,91.57813,1.001q25.48242,0.27832,25.59961-10.08887l0.20313-18.5752q0.11426-10.36816-25.373-10.646Z" transform="translate(5106.15014 1.63706)"/>
    <path class="cls-4" d="M-2743.96045,295.56768l26.47461,4.05811,70.43066,136.44482,107.63477-109.15479,24.33887,3.73047-23.03516,150.31006-27.33008-4.18848,16.002-104.40527-91.36914,92.854-23.27344-3.56641-59.61328-115.77588-15.96777,104.19238-27.3291-4.18848Z" transform="translate(5106.15014 1.63706)"/>
    <path class="cls-4" d="M-2295.70752,553.59209l-29.72656-9.15234-39.63184-142.15381-113.96,94.86914-29.31348-9.0249,141.35644-115.58887,20.02441,6.16455Z" transform="translate(5106.15014 1.63706)"/>
    <path class="cls-4" d="M-2203.10205,427.65068l120.46387,55.98975q57.00147,26.4917,39.52148,64.10059l-29.31543,63.07324q-17.29687,37.218-74.29785,10.72363l-120.46484-55.98926Zm65.84082,173.51563q30.94629,14.38477,38.77734-2.46094l29.31445-63.07227q8.01123-17.23389-22.93555-31.62158l-94.41406-43.88135-45.15625,97.15576Z" transform="translate(5106.15014 1.63706)"/>
    <path class="cls-4" d="M-1880.89209,778.54521l-26.209-16.74854-0.28711-147.5752L-2042.52,675.264l-25.8457-16.51514,167.06152-73.70605,17.65625,11.28174Z" transform="translate(5106.15014 1.63706)"/>
  </g>
  <g>
    <path class="cls-4" d="M-3205.67529,4061.48272l-30.38965-6.625-51.41895-138.32812-105.59766,104.09668-29.96777-6.5332,131.15918-127.042,20.47168,4.46289Z" transform="translate(5106.15014 1.63706)"/>
    <path class="cls-4" d="M-3151.47705,4067.87529L-3139.231,3916.305l119.92285,9.68945q54.03809,4.36523,51.39453,37.0918l-1.49609,18.51563q-2.209,27.3457-40.03613,28.83789l30.42285,71.37012-30.57227-2.4707-30.06152-70.47363-77.72363-6.28125-5.46191,67.60449Zm39.07227-126.86621-3.166,39.18457,91.28711,7.376q25.40039,2.05225,26.24023-8.28125l1.49609-18.51562q0.8335-10.33447-24.57129-12.38769Z" transform="translate(5106.15014 1.63706)"/>
    <path class="cls-4" d="M-2918.65381,3932.7415l26.72949-1.71,98.03125,118.18457,81.74609-129.68262,24.57422-1.57129,9.70508,151.75488-27.59277,1.76367-6.74023-105.4082-69.35156,110.27539-23.49609,1.502-83.03613-100.3125,6.72754,105.19336-27.59082,1.76465Z" transform="translate(5106.15014 1.63706)"/>
    <path class="cls-4" d="M-2497.731,3940.35283q53.01123-11.34961,59.8877,20.75488l5.65234,26.40137q6.78223,31.6831-46.23242,43.03223l-126.93945,27.17578-4.70312-21.96582,126.93945-27.17676q24.91992-5.335,22.84473-15.05078l-5.65332-26.40234q-2.1709-10.13818-27.09375-4.80176l-78.99414,16.91113q-53.01855,11.35107-59.8877-20.75488l-3.48242-16.26269q-6.873-32.10352,46.1416-43.45508l122.71484-26.27148,4.7041,21.9668-122.71582,26.27148q-24.92432,5.33643-22.75293,15.47363l3.48242,16.26367q2.16943,10.13818,27.09277,4.80273Z" transform="translate(5106.15014 1.63706)"/>
  </g>
  <g>
    <path class="cls-4" d="M-4144.51318,726.428l138.27344,163.40527-13.02637,11.02344-138.27344-163.40625Z" transform="translate(5106.15014 1.63706)"/>
    <path class="cls-4" d="M-4192.89795,768.41143l143.72266,158.63672-12.64746,11.457-143.72119-158.63672Z" transform="translate(5106.15014 1.63706)"/>
    <path class="cls-4" d="M-4239.85107,812.02666l149.02246,153.67188-12.25,11.87988-149.023-153.67187Z" transform="translate(5106.15014 1.63706)"/>
    <path class="cls-4" d="M-4285.26221,857.181l154.13281,148.53125-11.84082,12.28711-154.13232-148.53125Z" transform="translate(5106.15014 1.63706)"/>
    <path class="cls-4" d="M-4329.15576,903.86846l159.06738,143.24023-11.41943,12.68066-159.06787-143.24121Z" transform="translate(5106.15014 1.63706)"/>
    <path class="cls-4" d="M-4371.40185,951.97979l163.81445,137.77441-10.98291,13.05859-163.814-137.77441Z" transform="translate(5106.15014 1.63706)"/>
    <path class="cls-4" d="M-4412.02685,1001.5169l168.37158,132.16406-10.53564,13.42188-168.37158-132.16406Z" transform="translate(5106.15014 1.63706)"/>
    <path class="cls-4" d="M-4450.94727,1052.37627l172.74072,126.41211-10.07812,13.77148-172.73926-126.41406Z" transform="translate(5106.15014 1.63706)"/>
    <path class="cls-4" d="M-4488.13623,1104.52666L-4311.23,1225.05205l-9.6084,14.10254-176.90527-120.52637Z" transform="translate(5106.15014 1.63706)"/>
    <path class="cls-4" d="M-4523.53467,1157.886l180.85645,114.50977-9.12842,14.418L-4532.66309,1172.303Z" transform="translate(5106.15014 1.63706)"/>
    <path class="cls-4" d="M-4557.11865,1212.40361l184.59619,108.37793-8.64014,14.71582-184.59619-108.37891Z" transform="translate(5106.15014 1.63706)"/>
    <path class="cls-4" d="M-4588.83838,1268.00518l188.12012,102.11719-8.14111,14.99707L-4596.979,1283.00127Z" transform="translate(5106.15014 1.63706)"/>
    <path class="cls-4" d="M-4618.69189,1324.6458l191.44141,95.75586-7.63379,15.26074-191.44141-95.75488Z" transform="translate(5106.15014 1.63706)"/>
    <path class="cls-4" d="M-4646.61865,1382.22783l194.53418,89.30371-7.11914,15.50684-194.5332-89.30273Z" transform="translate(5106.15014 1.63706)"/>
    <path class="cls-4" d="M-4672.6123,1440.72881l197.40918,82.75781-6.59717,15.73535L-4679.21,1456.46611Z" transform="translate(5106.15014 1.63706)"/>
    <path class="cls-4" d="M-4696.63916,1500.06279l200.06934,76.11621-6.06787,15.94922-200.06885-76.11621Z" transform="translate(5106.15014 1.63706)"/>
    <path class="cls-4" d="M-4718.6665,1560.1751l202.498,69.38574-5.53027,16.14258-202.499-69.38574Z" transform="translate(5106.15014 1.63706)"/>
    <path class="cls-4" d="M-4738.66748,1620.96416l204.707,62.58106-4.99024,16.31836-204.70557-62.58105Z" transform="translate(5106.15014 1.63706)"/>
    <path class="cls-4" d="M-4756.6333,1682.386l206.68311,55.72168-4.44189,16.47559-206.68262-55.72168Z" transform="translate(5106.15014 1.63706)"/>
    <path class="cls-4" d="M-4772.53857,1744.41338l208.42969,48.77539-3.88769,16.61523-208.43066-48.77539Z" transform="translate(5106.15014 1.63706)"/>
    <path class="cls-4" d="M-4786.35107,1806.9085l209.93408,41.77832-3.33105,16.73438-209.93408-41.77734Z" transform="translate(5106.15014 1.63706)"/>
    <path class="cls-4" d="M-4798.08008,1869.84893l211.22119,34.7207-2.76758,16.83789-211.22119-34.7207Z" transform="translate(5106.15014 1.63706)"/>
    <path class="cls-4" d="M-4807.6958,1933.1419l212.27344,27.62988-2.20312,16.92188-212.27246-27.62988Z" transform="translate(5106.15014 1.63706)"/>
    <path class="cls-4" d="M-4815.1665,1996.72l213.06641,20.49707-1.63379,16.98535-213.06641-20.498Z" transform="translate(5106.15014 1.63706)"/>
    <path class="cls-4" d="M-4820.51465,2060.53545l213.63818,13.32324-1.06152,17.03125-213.63818-13.32422Z" transform="translate(5106.15014 1.63706)"/>
    <path class="cls-4" d="M-4823.71338,2124.48955l213.97266,6.11523-0.4873,17.05762-213.97363-6.11426Z" transform="translate(5106.15014 1.63706)"/>
    <path class="cls-4" d="M-4824.74756,2188.53057l214.04981-1.09961,0.08838,17.06348-214.05078,1.10059Z" transform="translate(5106.15014 1.63706)"/>
    <path class="cls-4" d="M-4823.62891,2252.5667l213.89209-8.31641,0.66309,17.05078-213.8916,8.31641Z" transform="translate(5106.15014 1.63706)"/>
    <path class="cls-4" d="M-4820.34521,2316.556l213.48877-15.54687,1.23926,17.01953-213.48877,15.54492Z" transform="translate(5106.15014 1.63706)"/>
    <path class="cls-4" d="M-4814.90185,2380.38018l212.84228-22.75586,1.814,16.9668-212.84277,22.75684Z" transform="translate(5106.15014 1.63706)"/>
    <path class="cls-4" d="M-4807.30518,2443.9749l211.95313-29.94629,2.3877,16.89649-211.9541,29.94629Z" transform="translate(5106.15014 1.63706)"/>
    <path class="cls-4" d="M-4797.55371,2507.27568l210.81348-37.09766,2.95752,16.80566-210.81348,37.09766Z" transform="translate(5106.15014 1.63706)"/>
    <path class="cls-4" d="M-4785.66406,2570.24346l209.437-44.21484,3.52539,16.69531-209.437,44.21484Z" transform="translate(5106.15014 1.63706)"/>
    <path class="cls-4" d="M-4771.64893,2632.75518l207.81641-51.2793,4.08838,16.56641-207.81689,51.2793Z" transform="translate(5106.15014 1.63706)"/>
    <path class="cls-4" d="M-4755.54834,2694.73174l205.98-58.26953,4.644,16.4209-205.979,58.26856Z" transform="translate(5106.15014 1.63706)"/>
    <path class="cls-4" d="M-4737.34521,2756.15068l203.8916-65.18457,5.19726,16.25391-203.89209,65.18359Z" transform="translate(5106.15014 1.63706)"/>
    <path class="cls-4" d="M-4717.1001,2816.886l201.58887-71.99414,5.73926,16.07129-201.58887,71.99316Z" transform="translate(5106.15014 1.63706)"/>
    <path class="cls-4" d="M-4694.82666,2876.91143l199.0625-78.707,6.27344,15.86719-199.06055,78.709Z" transform="translate(5106.15014 1.63706)"/>
    <path class="cls-4" d="M-4670.56738,2936.136l196.33057-85.28711,6.79883,15.65137L-4663.769,2951.7874Z" transform="translate(5106.15014 1.63706)"/>
    <path class="cls-4" d="M-4644.35205,2994.51592l193.3916-91.74512,7.3125,15.416-193.3916,91.74609Z" transform="translate(5106.15014 1.63706)"/>
    <path class="cls-4" d="M-4616.1792,3052.12627l190.11377-98.375,7.8418,15.1543-190.11279,98.375Z" transform="translate(5106.15014 1.63706)"/>
    <path class="cls-4" d="M-4586.25977,3108.45635L-4399.3374,3004.138l8.31494,14.90039-186.92139,104.31934Z" transform="translate(5106.15014 1.63706)"/>
    <path class="cls-4" d="M-4554.394,3163.93682l183.3374-110.47461,8.80615,14.61621-183.33789,110.47363Z" transform="translate(5106.15014 1.63706)"/>
    <path class="cls-4" d="M-4520.6831,3218.3626l179.53662-116.55469,9.29248,14.3125-179.53809,116.55469Z" transform="translate(5106.15014 1.63706)"/>
    <path class="cls-4" d="M-4485.1709,3271.62432l175.52979-122.51562,9.76563,13.99219-175.52832,122.5166Z" transform="translate(5106.15014 1.63706)"/>
    <path class="cls-4" d="M-4447.86719,3323.69268l171.30127-128.36914,10.2334,13.65625-171.30078,128.36914Z" transform="translate(5106.15014 1.63706)"/>
    <path class="cls-4" d="M-4408.81982,3374.46416l166.8584-134.0791,10.68848,13.30176-166.8584,134.0791Z" transform="translate(5106.15014 1.63706)"/>
    <path class="cls-4" d="M-4368.07617,3423.90752l162.23242-139.64844,11.13232,12.93164-162.23242,139.65039Z" transform="translate(5106.15014 1.63706)"/>
    <path class="cls-4" d="M-4325.68652,3471.93877l157.41553-145.05664,11.56445,12.54785-157.4165,145.05664Z" transform="translate(5106.15014 1.63706)"/>
    <path class="cls-4" d="M-4281.67725,3518.5169l152.41113-150.30274,11.981,12.15039-152.41064,150.30273Z" transform="translate(5106.15014 1.63706)"/>
    <path class="cls-4" d="M-4236.14111,3563.56182l147.23584-155.37891,12.38721,11.73731-147.23584,155.37988Z" transform="translate(5106.15014 1.63706)"/>
    <path class="cls-4" d="M-4189.1001,3607.04815l141.89844-160.27442,12.77539,11.31152-141.89648,160.27539Z" transform="translate(5106.15014 1.63706)"/>
    <path class="cls-4" d="M-4140.61377,3648.91533l136.40479-164.97266,13.15088,10.873-136.40332,164.97266Z" transform="translate(5106.15014 1.63706)"/>
    <path class="cls-4" d="M-4090.76416,3689.09307l130.75391-169.47656,13.50928,10.42285-130.75342,169.47754Z" transform="translate(5106.15014 1.63706)"/>
    <path class="cls-4" d="M-4039.57227,3727.58525l124.96143-173.791,13.854,9.96191-124.9624,173.792Z" transform="translate(5106.15014 1.63706)"/>
    <path class="cls-4" d="M-3987.11426,3764.3294l119.03369-177.90332,14.18213,9.48926-119.0332,177.90332Z" transform="translate(5106.15014 1.63706)"/>
    <path class="cls-4" d="M-3933.44971,3799.29131l112.98926-181.80566,14.49316,9.00781L-3918.957,3808.29815Z" transform="translate(5106.15014 1.63706)"/>
    <path class="cls-4" d="M-3878.65723,3832.42315l106.83057-185.498,14.78906,8.51563-106.83252,185.499Z" transform="translate(5106.15014 1.63706)"/>
    <path class="cls-4" d="M-3822.79736,3863.67705l100.54932-188.96289,15.064,8.01465-100.5498,188.96191Z" transform="translate(5106.15014 1.63706)"/>
    <path class="cls-4" d="M-3765.91162,3893.053l94.16748-192.22168,15.32324,7.50586-94.167,192.22266Z" transform="translate(5106.15014 1.63706)"/>
    <path class="cls-4" d="M-3708.10644,3920.50029l87.688-195.26758,15.56689,6.98926-87.689,195.26758Z" transform="translate(5106.15014 1.63706)"/>
    <path class="cls-4" d="M-3649.37646,3946.0169l81.11572-198.0957,15.7915,6.46484-81.11523,198.09766Z" transform="translate(5106.15014 1.63706)"/>
    <path class="cls-4" d="M-3589.85254,3969.54229l74.4541-200.69531,15.999,5.93555-74.4541,200.69531Z" transform="translate(5106.15014 1.63706)"/>
  </g>
  <g>
    <path class="cls-4" d="M-1676.03955,736.931L-1814.313,900.33525l-13.02637-11.02148,138.27344-163.40625Z" transform="translate(5106.15014 1.63706)"/>
    <path class="cls-4" d="M-1628.03369,779.34893l-143.72168,158.63672-12.64648-11.457,143.72266-158.63672Z" transform="translate(5106.15014 1.63706)"/>
    <path class="cls-4" d="M-1581.47656,823.386l-149.02295,153.67188-12.25-11.87988,149.02246-153.6709Z" transform="translate(5106.15014 1.63706)"/>
    <path class="cls-4" d="M-1536.47314,868.94854L-1690.606,1017.47881l-11.84082-12.28613L-1548.314,856.66143Z" transform="translate(5106.15014 1.63706)"/>
    <path class="cls-4" d="M-1493.00146,916.02666l-159.06836,143.24023-11.41895-12.67969L-1504.42139,903.346Z" transform="translate(5106.15014 1.63706)"/>
    <path class="cls-4" d="M-1451.18408,964.50908l-163.82129,137.78711-10.98437-13.05957,163.82129-137.78809Z" transform="translate(5106.15014 1.63706)"/>
    <path class="cls-4" d="M-1411.01367,1014.41631l-168.37158,132.165-10.53564-13.42187,168.37158-132.165Z" transform="translate(5106.15014 1.63706)"/>
    <path class="cls-4" d="M-1372.55225,1065.62432L-1545.2915,1192.0374l-10.07812-13.77051,172.74023-126.41309Z" transform="translate(5106.15014 1.63706)"/>
    <path class="cls-4" d="M-1335.83252,1118.10674l-176.90527,120.52637-9.6084-14.10254,176.90625-120.52637Z" transform="translate(5106.15014 1.63706)"/>
    <path class="cls-4" d="M-1300.91309,1171.78252l-180.856,114.50879-9.12842-14.417,180.856-114.50977Z" transform="translate(5106.15014 1.63706)"/>
    <path class="cls-4" d="M-1267.81592,1226.597L-1452.4126,1334.9749l-8.64062-14.71582,184.59668-108.377Z" transform="translate(5106.15014 1.63706)"/>
    <path class="cls-4" d="M-1236.59619,1282.47979L-1424.71533,1384.597l-8.1416-14.99609,188.12012-102.11719Z" transform="translate(5106.15014 1.63706)"/>
    <path class="cls-4" d="M-1207.24121,1339.37627l-191.44922,95.76855-7.63428-15.26172,191.44922-95.76855Z" transform="translate(5106.15014 1.63706)"/>
    <path class="cls-4" d="M-1179.8374,1397.21221l-194.53369,89.30469-7.11865-15.50781,194.5332-89.30469Z" transform="translate(5106.15014 1.63706)"/>
    <path class="cls-4" d="M-1154.36377,1455.94365l-197.40869,82.75684-6.59814-15.73633,197.41016-82.75781Z" transform="translate(5106.15014 1.63706)"/>
    <path class="cls-4" d="M-1130.86621,1515.48955l-200.06885,76.11719-6.06836-15.94922,200.06885-76.11719Z" transform="translate(5106.15014 1.63706)"/>
    <path class="cls-4" d="M-1109.377,1575.79424l-202.49853,69.38672-5.53125-16.14356,202.498-69.38574Z" transform="translate(5106.15014 1.63706)"/>
    <path class="cls-4" d="M-1089.92529,1636.75127l-204.69238,62.58887-4.98926-16.31738,204.69238-62.58789Z" transform="translate(5106.15014 1.63706)"/>
    <path class="cls-4" d="M-1072.49853,1698.33916l-206.68262,55.72168-4.44189-16.47559,206.68311-55.72266Z" transform="translate(5106.15014 1.63706)"/>
    <path class="cls-4" d="M-1057.146,1760.50713l-208.42969,48.77344-3.88867-16.61523,208.43066-48.77344Z" transform="translate(5106.15014 1.63706)"/>
    <path class="cls-4" d="M-1043.89551,1823.10088l-209.9331,41.77832-3.33106-16.73535,209.93457-41.77832Z" transform="translate(5106.15014 1.63706)"/>
    <path class="cls-4" d="M-1032.72461,1886.16338l-211.22217,34.72168-2.76709-16.83887,211.22119-34.7207Z" transform="translate(5106.15014 1.63706)"/>
    <path class="cls-4" d="M-1023.68359,1949.53252l-212.25928,27.6377-2.20215-16.9209,212.25879-27.63672Z" transform="translate(5106.15014 1.63706)"/>
    <path class="cls-4" d="M-1016.77051,2013.181l-213.06689,20.498-1.63379-16.98535,213.06738-20.49707Z" transform="translate(5106.15014 1.63706)"/>
    <path class="cls-4" d="M-1011.99316,2077.04229l-213.63818,13.32422-1.063-17.03125,213.63818-13.32324Z" transform="translate(5106.15014 1.63706)"/>
    <path class="cls-4" d="M-1009.3706,2141.02471l-213.97266,6.11523-0.4873-17.05762,213.97217-6.11523Z" transform="translate(5106.15014 1.63706)"/>
    <path class="cls-4" d="M-1008.90283,2205.04326l-214.05713-1.08691,0.08643-17.06445,214.05762,1.08789Z" transform="translate(5106.15014 1.63706)"/>
    <path class="cls-4" d="M-1010.60352,2269.07354l-213.8916-8.31641,0.66309-17.05078,213.89209,8.31641Z" transform="translate(5106.15014 1.63706)"/>
    <path class="cls-4" d="M-1014.46338,2333.03057l-213.48828-15.5459,1.24023-17.01856,213.48731,15.5459Z" transform="translate(5106.15014 1.63706)"/>
    <path class="cls-4" d="M-1020.48,2396.82549l-212.84277-22.75684,1.81445-16.9668,212.84229,22.75684Z" transform="translate(5106.15014 1.63706)"/>
    <path class="cls-4" d="M-1028.65185,2460.34893l-211.95312-29.94727,2.38721-16.89648,211.95313,29.94726Z" transform="translate(5106.15014 1.63706)"/>
    <path class="cls-4" d="M-1038.97266,2523.55986l-210.813-37.09766,2.957-16.80664,210.81348,37.09766Z" transform="translate(5106.15014 1.63706)"/>
    <path class="cls-4" d="M-1051.43018,2586.41729l-209.437-44.21484,3.52539-16.69531,209.437,44.21484Z" transform="translate(5106.15014 1.63706)"/>
    <path class="cls-4" d="M-1066.0083,2648.8001l-207.81641-51.2793,4.08838-16.56641,207.81689,51.27832Z" transform="translate(5106.15014 1.63706)"/>
    <path class="cls-4" d="M-1082.66553,2710.63018l-205.97949-58.26856,4.64453-16.4209,205.98047,58.26953Z" transform="translate(5106.15014 1.63706)"/>
    <path class="cls-4" d="M-1101.42041,2771.88213l-203.8916-65.18359,5.19678-16.25488,203.89209,65.18457Z" transform="translate(5106.15014 1.63706)"/>
    <path class="cls-4" d="M-1122.20654,2832.43584l-201.5874-71.99316,5.73877-16.07031,201.58887,71.99414Z" transform="translate(5106.15014 1.63706)"/>
    <path class="cls-4" d="M-1145.01514,2892.25908l-199.06152-78.708,6.27441-15.86816,199.06152,78.707Z" transform="translate(5106.15014 1.63706)"/>
    <path class="cls-4" d="M-1169.79687,2951.26592l-196.33057-85.28711,6.79883-15.65137,196.33057,85.28711Z" transform="translate(5106.15014 1.63706)"/>
    <path class="cls-4" d="M-1196.52685,3009.41143l-193.3916-91.74609,7.31348-15.416,193.3916,91.74609Z" transform="translate(5106.15014 1.63706)"/>
    <path class="cls-4" d="M-1225.228,3066.76006l-190.11328-98.374,7.8418-15.1543,190.11328,98.373Z" transform="translate(5106.15014 1.63706)"/>
    <path class="cls-4" d="M-1255.62353,3122.83721l-186.9209-104.31836,8.31543-14.90039,186.92188,104.31836Z" transform="translate(5106.15014 1.63706)"/>
    <path class="cls-4" d="M-1287.97705,3178.03154l-183.33838-110.47363,8.80615-14.61523,183.33789,110.47461Z" transform="translate(5106.15014 1.63706)"/>
    <path class="cls-4" d="M-1322.17383,3232.15459l-179.5376-116.55566,9.291-14.31152,179.53809,116.55566Z" transform="translate(5106.15014 1.63706)"/>
    <path class="cls-4" d="M-1358.16113,3285.097l-175.52783-122.5166,9.76563-13.99121,175.52832,122.51563Z" transform="translate(5106.15014 1.63706)"/>
    <path class="cls-4" d="M-1395.9331,3336.82549l-171.30078-128.36816,10.2334-13.65527,171.30127,128.36914Z" transform="translate(5106.15014 1.63706)"/>
    <path class="cls-4" d="M-1435.42725,3387.2376l-166.86426-134.06641,10.686-13.30273,166.86523,134.06641Z" transform="translate(5106.15014 1.63706)"/>
    <path class="cls-4" d="M-1476.61377,3436.31377L-1638.853,3296.67705l11.13281-12.93262,162.23779,139.63574Z" transform="translate(5106.15014 1.63706)"/>
    <path class="cls-4" d="M-1519.44189,3483.96611l-157.4165-145.05664,11.564-12.54785,157.416,145.05664Z" transform="translate(5106.15014 1.63706)"/>
    <path class="cls-4" d="M-1563.86865,3530.14775L-1716.27978,3379.845l11.98242-12.15039,152.41016,150.30273Z" transform="translate(5106.15014 1.63706)"/>
    <path class="cls-4" d="M-1609.811,3574.78252l-147.23535-155.37988,12.38672-11.73731,147.23584,155.37891Z" transform="translate(5106.15014 1.63706)"/>
    <path class="cls-4" d="M-1657.24072,3617.84111l-141.89746-160.27441,12.77637-11.31152,141.89795,160.27539Z" transform="translate(5106.15014 1.63706)"/>
    <path class="cls-4" d="M-1706.10205,3659.2708l-136.4043-164.97363,13.15234-10.874,136.40332,164.97461Z" transform="translate(5106.15014 1.63706)"/>
    <path class="cls-4" d="M-1756.30908,3698.99932L-1887.0625,3529.5208l13.50977-10.42285,130.75439,169.47754Z" transform="translate(5106.15014 1.63706)"/>
    <path class="cls-4" d="M-1807.84521,3737.02959l-124.9624-173.792,13.855-9.96191,124.96143,173.791Z" transform="translate(5106.15014 1.63706)"/>
    <path class="cls-4" d="M-1860.62256,3773.30986l-119.0459-177.91016,14.18164-9.49023,119.04736,177.91016Z" transform="translate(5106.15014 1.63706)"/>
    <path class="cls-4" d="M-1914.60644,3807.78057l-112.99072-181.80371,14.49365-9.00781,112.98926,181.80566Z" transform="translate(5106.15014 1.63706)"/>
    <path class="cls-4" d="M-1969.69189,3840.42315l-106.832-185.499,14.7876-8.5166,106.83105,185.5Z" transform="translate(5106.15014 1.63706)"/>
    <path class="cls-4" d="M-2025.8291,3871.1751l-100.54932-188.96289,15.06348-8.01562,100.5498,188.96289Z" transform="translate(5106.15014 1.63706)"/>
    <path class="cls-4" d="M-2082.97461,3900.04424l-94.168-192.22266,15.32373-7.50684,94.167,192.22168Z" transform="translate(5106.15014 1.63706)"/>
    <path class="cls-4" d="M-2141.02246,3926.97393l-87.68994-195.26953,15.56738-6.98926,87.689,195.26855Z" transform="translate(5106.15014 1.63706)"/>
    <path class="cls-4" d="M-2199.97705,3951.96807l-81.11572-198.09766,15.79248-6.46484,81.11475,198.09473Z" transform="translate(5106.15014 1.63706)"/>
    <path class="cls-4" d="M-2259.71045,3974.96025l-74.45312-200.69336,15.999-5.93555,74.45313,200.69434Z" transform="translate(5106.15014 1.63706)"/>
  </g>
  <path class="cls-4" d="M-3147.4993,3168.91137l105.35793,34.40271a179.02873,179.02873,0,0,0,37.39718,116.91584,179.78669,179.78669,0,0,0,252.19937,32.266c72.67511-56.18839,90.42478-157.02266,44.59-234.005l198.47388-197.66028a179.42073,179.42073,0,0,0,61.31275,8.34734,179.33711,179.33711,0,0,0,134.22211-68.06613l130.63117,42.65523a180.32173,180.32173,0,0,0,5.541,37.89425A179.78389,179.78389,0,0,0-1958.853,3070.96582a179.78942,179.78942,0,0,0,129.30423-218.92138,179.7882,179.7882,0,0,0-218.92151-129.30385,179.20821,179.20821,0,0,0-111.43352,85.25832l-116.31362-37.98009a181.27491,181.27491,0,0,0,1.03036-27.183A179.78358,179.78358,0,0,0-2461.52986,2569.854a179.80172,179.80172,0,0,0-48.02388,8.40859l-123.808-256.46961a179.85772,179.85772,0,0,0,57.70862-197.61313,178.88,178.88,0,0,0-52.27035-78.09729l87.98406-97.96488a179.5105,179.5105,0,0,0,50.77089,26.11516,179.78856,179.78856,0,0,0,226.71149-115.0997,179.78843,179.78843,0,0,0-115.09929-226.71145A179.78334,179.78334,0,0,0-2604.26809,1747.521a179.04465,179.04465,0,0,0,3.4544,121.25565l-120.97577,134.69853a178.98614,178.98614,0,0,0-81.66759,7.78256A179.783,179.783,0,0,0-2916.378,2239.06217a179.84328,179.84328,0,0,0,192.34536,121.03057l131.93518,273.30589A179.12648,179.12648,0,0,0-2634.511,2756.1962a178.95263,178.95263,0,0,0,41.8588,108.725l-186.70894,185.94427a179.77052,179.77052,0,0,0-193.11711,17.16419,179.49269,179.49269,0,0,0-39.16855,41.82879l-105.30185-34.3844a179.13923,179.13923,0,0,0-12.111-72.14656,179.78842,179.78842,0,0,0-232.74037-102.36336,179.78736,179.78736,0,0,0-102.363,232.73922,179.78327,179.78327,0,0,0,232.74,102.36323A178.90244,178.90244,0,0,0-3147.4993,3168.91137Z" transform="translate(5106.15014 1.63706)"/>
</svg>
