<svg id="Security" xmlns="http://www.w3.org/2000/svg" xmlns:xlink="http://www.w3.org/1999/xlink" viewBox="0 0 4376.48776 4376.48776">
  <defs>
    <style>
      .cls-1 {
        fill: url(#linear-gradient);
      }

      .cls-2 {
        fill: url(#linear-gradient-2);
      }

      .cls-3 {
        fill: url(#linear-gradient-3);
      }

      .cls-4 {
        fill: #fff;
      }

      .cls-5 {
        fill: url(#linear-gradient-4);
      }

      .cls-6 {
        fill: url(#linear-gradient-5);
      }
    </style>
    <linearGradient id="linear-gradient" x1="640.92179" y1="3735.56596" x2="3735.56596" y2="640.92179" gradientUnits="userSpaceOnUse">
      <stop offset="0.20968"/>
      <stop offset="0.52151" stop-color="#fff"/>
      <stop offset="0.81183"/>
    </linearGradient>
    <linearGradient id="linear-gradient-2" x1="701.17943" y1="701.9503" x2="3675.50978" y2="3676.28065" xlink:href="#linear-gradient"/>
    <linearGradient id="linear-gradient-3" x1="5934.97448" y1="4226.56166" x2="9194.4533" y2="1853.78976" gradientTransform="translate(67.2984 -846.67149)" xlink:href="#linear-gradient"/>
    <linearGradient id="linear-gradient-4" x1="6244.53827" y1="4068.89988" x2="8828.2228" y2="2278.17371" gradientTransform="translate(89.63176 -969.86105)" gradientUnits="userSpaceOnUse">
      <stop offset="0.20968"/>
      <stop offset="0.52688" stop-opacity="0.7"/>
      <stop offset="0.81183"/>
    </linearGradient>
    <linearGradient id="linear-gradient-5" x1="7436.7144" y1="2723.11746" x2="8660.24355" y2="2723.11746" gradientUnits="userSpaceOnUse">
      <stop offset="0" stop-color="#fff"/>
      <stop offset="0.46774" stop-color="#fff"/>
    </linearGradient>
  </defs>
  <title>Sol_Emblem_SECURITY</title>
  <g>
    <circle class="cls-1" cx="2188.24388" cy="2188.24388" r="2188.24388"/>
    <circle class="cls-2" cx="2188.34461" cy="2189.11548" r="2103.16916"/>
    <circle class="cls-3" cx="7632.01229" cy="2193.50423" r="2015.68646" transform="translate(-5691.93918 1206.70895) rotate(-8.94686)"/>
    <circle class="cls-4" cx="2188.17678" cy="2186.60682" r="1658.0922"/>
    <circle class="cls-5" cx="7626.01229" cy="2203.67574" r="1571.65107" transform="matrix(0.98396, -0.17837, 0.17837, 0.98396, -5714.43877, 1388.6554)"/>
    <g>
      <g id="layer10">
        <path id="path4357-3" class="cls-4" d="M7217.42007,1540.81024h166.25248l-44.08592,55.41752c23.87008,50.65689,24.94287,102.95657,15.65635,158.17291h242.18754l49.01414,70.504H7216.98414c68.29141-85.65751,65.40819-202.99641.43593-284.09439h0Z" transform="translate(-5443.66769 -6.8974)"/>
      </g>
      <g id="layer23">
        <path id="path4388-4" class="cls-4" d="M6863.15706,1540.97787l-230.219-.13411L6524.48335,1698.782l201.5883-.70407c2.11212,21.59033,3.25195,37.5149,10.35936,53.97591l-248.59093.03356-49.91934,72.81718h425.70568c-36.945-44.38761-59.27294-114.45572-47.00261-180.13205l-154.14984,2.3803,24.87586-40.76689,139.43219-.50288c11.90148-32.68723,24.23885-48.3771,36.375-64.90515h0Z" transform="translate(-5443.66769 -6.8974)"/>
      </g>
      <path class="cls-4" d="M7179.88266,1713.63022a140.19942,140.19942,0,0,1-27.65847,57.19439l44.25354,21.85855,0.20119,0.30169a188.22564,188.22564,0,0,0,28.463-59.54116l-0.26822.03356Z" transform="translate(-5443.66769 -6.8974)"/>
      <path class="cls-4" d="M6906.04712,1652.01049a139.82971,139.82971,0,0,1,27.52435-57.16083l-45.05816-22.26088a188.85482,188.85482,0,0,0-28.396,59.20587h0.067Z" transform="translate(-5443.66769 -6.8974)"/>
      <path class="cls-4" d="M6933.47093,1770.45579a139.84653,139.84653,0,0,1-27.45732-57.19438l-45.8963,20.24932h-0.03352a188.7497,188.7497,0,0,0,28.36249,59.34l0.13411-.20119Z" transform="translate(-5443.66769 -6.8974)"/>
      <path class="cls-4" d="M7011.78628,1819.57052a139.7695,139.7695,0,0,1-57.09379-27.75906l-22.16029,44.79-0.26822.16763a189.30619,189.30619,0,0,0,59.44057,28.53016v-0.067Z" transform="translate(-5443.66769 -6.8974)"/>
      <path class="cls-4" d="M7011.75272,1545.86909l-20.11525-45.52753V1500.308a188.70375,188.70375,0,0,0-59.13883,28.329l22.22736,44.95757A140.07268,140.07268,0,0,1,7011.75272,1545.86909Z" transform="translate(-5443.66769 -6.8974)"/>
      <path class="cls-4" d="M7152.49242,1836.635l-21.89211-44.2871a140.12679,140.12679,0,0,1-57.22786,27.4238l20.04821,45.561a188.5997,188.5997,0,0,0,59.407-28.463Z" transform="translate(-5443.66769 -6.8974)"/>
      <path class="cls-4" d="M7152.12368,1594.51445a139.84365,139.84365,0,0,1,27.7255,57.12731l45.12524-19.88059h0.067a188.10307,188.10307,0,0,0-28.463-59.23939l-0.067.10059Z" transform="translate(-5443.66769 -6.8974)"/>
      <path class="cls-4" d="M7073.37244,1545.66791a139.53833,139.53833,0,0,1,57.16083,27.35673l21.95914-44.45469,0.03356-.03352a188.8784,188.8784,0,0,0-59.23939-28.329l0.03356,0.20114Z" transform="translate(-5443.66769 -6.8974)"/>
      <path class="cls-4" d="M6905.98009,1713.26149a141.5613,141.5613,0,0,1,.067-61.251l-45.86278-20.21584h-0.067a190.716,190.716,0,0,0-.067,101.71615h0.03352Z" transform="translate(-5443.66769 -6.8974)"/>
      <path class="cls-4" d="M7042.99847,1823.05721a140.707,140.707,0,0,1-31.21219-3.48661l-20.08173,45.66159v0.067a190.71352,190.71352,0,0,0,101.71611,0l-20.04821-45.561A139.6218,139.6218,0,0,1,7042.99847,1823.05721Z" transform="translate(-5443.66769 -6.8974)"/>
      <path class="cls-4" d="M6954.69249,1791.81146a141.78774,141.78774,0,0,1-21.2216-21.32219l-44.92405,22.19381-0.13411.20118a190.64079,190.64079,0,0,0,43.85126,43.91829l0.26822-.16763Z" transform="translate(-5443.66769 -6.8974)"/>
      <path class="cls-4" d="M7011.75272,1545.86909a141.89384,141.89384,0,0,1,61.61972-.20114l19.98118-45.22579-0.03356-.20114a190.71563,190.71563,0,0,0-101.71607.067v0.03352Z" transform="translate(-5443.66769 -6.8974)"/>
      <path class="cls-4" d="M6954.726,1573.59459l-22.22736-44.95757a190.05362,190.05362,0,0,0-43.98532,43.95181l45.05816,22.26088A140.8993,140.8993,0,0,1,6954.726,1573.59459Z" transform="translate(-5443.66769 -6.8974)"/>
      <path class="cls-4" d="M7130.56683,1573.05819a140.49269,140.49269,0,0,1,21.59033,21.45626l44.38761-21.92563,0.067-.10059a191.365,191.365,0,0,0-44.01888-43.91829l-0.03356.03352Z" transform="translate(-5443.66769 -6.8974)"/>
      <path class="cls-4" d="M7179.84918,1651.60821a141.801,141.801,0,0,1,3.45313,31.1116,140.202,140.202,0,0,1-3.41957,30.91041l44.99109,19.81355,0.26822-.03356a190.59583,190.59583,0,0,0-.13415-101.68259h-0.067Z" transform="translate(-5443.66769 -6.8974)"/>
      <path class="cls-4" d="M7152.2242,1770.791a142.90315,142.90315,0,0,1-21.62389,21.55686l21.89211,44.2871,0.3017,0.20118a191.30093,191.30093,0,0,0,43.88473-43.88473l-0.20118-.3017Z" transform="translate(-5443.66769 -6.8974)"/>
      <path class="cls-4" d="M6860.11731,1631.7947l-550.856,50.82452,550.789,50.89159A190.71581,190.71581,0,0,1,6860.11731,1631.7947Z" transform="translate(-5443.66769 -6.8974)"/>
      <path class="cls-4" d="M6905.98009,1713.26149a141.5613,141.5613,0,0,1,.067-61.251l-45.86278-20.21584h-0.067a190.716,190.716,0,0,0-.067,101.71615h0.03352Z" transform="translate(-5443.66769 -6.8974)"/>
      <path class="cls-4" d="M6991.70455,1865.29923l50.82451,550.82251,50.89159-550.789v-0.03356A190.71461,190.71461,0,0,1,6991.70455,1865.29923Z" transform="translate(-5443.66769 -6.8974)"/>
      <path class="cls-4" d="M7042.99847,1823.05721a140.707,140.707,0,0,1-31.21219-3.48661l-20.08173,45.66159v0.067a190.71352,190.71352,0,0,0,101.71611,0l-20.04821-45.561A139.6218,139.6218,0,0,1,7042.99847,1823.05721Z" transform="translate(-5443.66769 -6.8974)"/>
      <path class="cls-4" d="M6888.41277,1792.85078l-92.79835,136.71664,136.64957-92.79835A190.64144,190.64144,0,0,1,6888.41277,1792.85078Z" transform="translate(-5443.66769 -6.8974)"/>
      <path class="cls-4" d="M6954.69249,1791.81146a141.78774,141.78774,0,0,1-21.2216-21.32219l-44.92405,22.19381-0.13411.20118a190.64079,190.64079,0,0,0,43.85126,43.91829l0.26822-.16763Z" transform="translate(-5443.66769 -6.8974)"/>
      <path class="cls-4" d="M7093.32006,1500.241l-50.791-550.72192-50.89159,550.789A190.593,190.593,0,0,1,7093.32006,1500.241Z" transform="translate(-5443.66769 -6.8974)"/>
      <path class="cls-4" d="M7011.75272,1545.86909a141.89384,141.89384,0,0,1,61.61972-.20114l19.98118-45.22579-0.03356-.20114a190.71563,190.71563,0,0,0-101.71607.067v0.03352Z" transform="translate(-5443.66769 -6.8974)"/>
      <path class="cls-4" d="M6932.49868,1528.637h0l-136.91779-92.9995,92.93247,136.95131h0A190.7065,190.7065,0,0,1,6932.49868,1528.637Z" transform="translate(-5443.66769 -6.8974)"/>
      <path class="cls-4" d="M6954.726,1573.59459l-22.22736-44.95757a190.05362,190.05362,0,0,0-43.98532,43.95181l45.05816,22.26088A140.8993,140.8993,0,0,1,6954.726,1573.59459Z" transform="translate(-5443.66769 -6.8974)"/>
      <path class="cls-4" d="M7196.57833,1572.48824l92.86539-136.85071-136.88427,92.93242A190.708,190.708,0,0,1,7196.57833,1572.48824Z" transform="translate(-5443.66769 -6.8974)"/>
      <path class="cls-4" d="M7130.56683,1573.05819a140.49269,140.49269,0,0,1,21.59033,21.45626l44.38761-21.92563,0.067-.10059a191.365,191.365,0,0,0-44.01888-43.91829l-0.03356.03352Z" transform="translate(-5443.66769 -6.8974)"/>
      <path class="cls-4" d="M7225.142,1733.41021l550.62133-50.791-550.72192-50.89159A190.14857,190.14857,0,0,1,7225.142,1733.41021Z" transform="translate(-5443.66769 -6.8974)"/>
      <path class="cls-4" d="M7179.84918,1651.60821a141.801,141.801,0,0,1,3.45313,31.1116,140.202,140.202,0,0,1-3.41957,30.91041l44.99109,19.81355,0.26822-.03356a190.59583,190.59583,0,0,0-.13415-101.68259h-0.067Z" transform="translate(-5443.66769 -6.8974)"/>
      <path class="cls-4" d="M7152.79419,1836.8361l136.61605,92.7648-92.73132-136.64953A189.33445,189.33445,0,0,1,7152.79419,1836.8361Z" transform="translate(-5443.66769 -6.8974)"/>
      <path class="cls-4" d="M7152.2242,1770.791a142.90315,142.90315,0,0,1-21.62389,21.55686l21.89211,44.2871,0.3017,0.20118a191.30093,191.30093,0,0,0,43.88473-43.88473l-0.20118-.3017Z" transform="translate(-5443.66769 -6.8974)"/>
    </g>
    <g>
      <path class="cls-4" d="M6673.041,630.66924q45.60351-29.31885,63.35938-1.70312L6751.002,651.678q17.52246,27.25342-28.083,56.57324l-109.19629,70.20215-12.14844-18.89551,109.19629-70.20264q21.438-13.782,16.06641-22.1416l-14.60156-22.71094q-5.606-8.72241-27.0459,5.062l-67.95312,43.687q-45.60645,29.321-63.35937,1.70215l-8.99414-13.98975q-17.75391-27.6167,27.84961-56.937l105.5625-67.8667,12.14844,18.89551-105.5625,67.86719q-21.44238,13.78418-15.833,22.50488l8.99414,13.99023q5.60742,8.72168,27.04688-5.0625Z" transform="translate(-5443.66769 -6.8974)"/>
      <path class="cls-4" d="M6754.69141,550.40459q-13.96436-29.71216,35.10449-52.77246l78.97852-37.11475q49.06641-23.05737,63.03125,6.65576l36.93164,78.5874q13.77978,29.324-35.28906,52.38281l-78.97852,37.11377q-49.0708,23.061-63.03125-6.65527Zm169.20313,27.40723q23.06543-10.83838,18.8418-19.83252l-36.93066-78.58789q-4.41065-9.38306-27.47754,1.45654l-78.97852,37.11475q-23.06836,10.84058-18.6582,20.22412l36.74707,78.19629q4.40918,9.38379,27.47754-1.457Z" transform="translate(-5443.66769 -6.8974)"/>
      <path class="cls-4" d="M6972.34082,417.27617l27.29492-8.96045,40.4209,123.13574,117.18457-38.4668,7.00586,21.34326-144.47949,47.42725Z" transform="translate(-5443.66769 -6.8974)"/>
      <path class="cls-4" d="M7533.9043,450.98174l-30.87891,3.74121-94.0625-113.71289-65.47461,133.041-30.4502,3.689,82.06543-163.11865,20.7998-2.52051Z" transform="translate(-5443.66769 -6.8974)"/>
      <path class="cls-4" d="M7565.00879,450.91582l1.66113-152.05469,120.30664,1.31445q54.21094,0.5918,53.85351,33.42236l-0.20312,18.57471q-0.29883,27.43213-37.93066,31.55566l35.31934,69.07813-30.6709-.335L7672.44824,384.262l-77.97168-.85205-0.74219,67.82031Zm30.14258-129.27832-0.42871,39.30957,91.57813,1.001q25.48242,0.27832,25.59961-10.08887l0.20313-18.5752q0.11426-10.36816-25.373-10.646Z" transform="translate(-5443.66769 -6.8974)"/>
      <path class="cls-4" d="M7805.85742,304.10234l26.47461,4.05811,70.43066,136.44482,107.63477-109.15479,24.33887,3.73047L8011.70117,489.491l-27.33008-4.18848,16.002-104.40527-91.36914,92.854-23.27344-3.56641L7826.11719,354.409l-15.96777,104.19238-27.3291-4.18848Z" transform="translate(-5443.66769 -6.8974)"/>
      <path class="cls-4" d="M8254.11035,562.12676l-29.72656-9.15234L8184.752,410.82061l-113.96,94.86914-29.31348-9.0249L8182.835,381.076l20.02441,6.16455Z" transform="translate(-5443.66769 -6.8974)"/>
      <path class="cls-4" d="M8346.71582,436.18535l120.46387,55.98975q57.00146,26.4917,39.52148,64.10059l-29.31543,63.07324q-17.29687,37.218-74.29785,10.72363L8282.623,574.0833ZM8412.55664,609.701q30.94629,14.38477,38.77734-2.46094l29.31445-63.07227q8.01123-17.23389-22.93555-31.62158l-94.41406-43.88135-45.15625,97.15576Z" transform="translate(-5443.66769 -6.8974)"/>
      <path class="cls-4" d="M8668.92578,787.07988l-26.209-16.74854-0.28711-147.5752-135.13184,61.04248-25.8457-16.51514,167.06152-73.70605,17.65625,11.28174Z" transform="translate(-5443.66769 -6.8974)"/>
    </g>
    <g>
      <path class="cls-4" d="M6961.48633,3866.23565q49.76807,21.501,36.748,51.64063l-10.707,24.78711q-12.84961,29.74219-62.62012,8.24023l-119.1709-51.48437,8.90918-20.62109,119.1709,51.48438q23.39355,10.10742,27.33789.98633l10.709-24.78516q4.11182-9.51855-19.28613-19.627l-74.15918-32.03809q-49.77246-21.50391-36.75-51.6416l6.59668-15.26856q13.01953-30.1377,62.791-8.63769l115.20508,49.77148-8.90918,20.62109-115.20508-49.77051q-23.39941-10.10889-27.50976-.59082l-6.5957,15.26855q-4.11328,9.51709,19.28516,19.626Z" transform="translate(-5443.66769 -6.8974)"/>
      <path class="cls-4" d="M7083.28125,3935.03447l-12.97949,44.81445,122.61914,35.51172-6.249,21.57617-150.21289-43.502,42.30274-146.06348,150.21094,43.50293-6.249,21.57813-122.61816-35.51172-10.5752,36.51563,116.39355,33.709-6.248,21.57813Z" transform="translate(-5443.66769 -6.8974)"/>
      <path class="cls-4" d="M7420.26758,4056.35479l-3.60449,22.17285-114.48926-18.61426q-53.5166-8.70117-47.89941-43.23926l13.17285-81.0166q5.61475-34.53809,59.12891-25.83789l114.48926,18.61426-3.60449,22.17285-114.49024-18.61426q-25.15869-4.09131-27.168,8.27539l-13.17187,81.0166q-2.00976,12.36768,23.14746,16.45605Z" transform="translate(-5443.66769 -6.8974)"/>
      <path class="cls-4" d="M7617.35742,4067.13018q25.4707,0.79541,25.9873-15.61328L7646.873,3938.388l28.71387,0.89551-3.52832,113.12988q-1.21289,38.86084-55.40234,37.16992l-80.74414-2.51758q-54.19336-1.69043-52.96484-40.9834l3.51563-112.69824,28.71387,0.89648-3.51465,112.69727q-0.52734,16.83984,24.94922,17.63477Z" transform="translate(-5443.66769 -6.8974)"/>
      <path class="cls-4" d="M7738.68555,4088.4124l-15.14844-151.30859,119.71387-11.98535q53.9458-5.40088,57.2168,27.26758l1.85156,18.48438q2.73193,27.29736-34.21289,35.55274l42.73535,64.75391-30.51953,3.05469-42.21973-63.93555-77.58887,7.76758,6.75684,67.48633Zm15.67383-131.81738,3.917,39.11523,91.12891-9.12207q25.35791-2.54,24.32813-12.85645l-1.84961-18.4834q-1.03418-10.31689-26.39551-7.77734Z" transform="translate(-5443.66769 -6.8974)"/>
      <path class="cls-4" d="M7943.38184,3909.92315l28.23535-5.29492,28.02734,149.459-28.23633,5.2959Z" transform="translate(-5443.66769 -6.8974)"/>
      <path class="cls-4" d="M8011.78809,3898.75127l179.26074-49.52832,5.98242,21.65332-74.74414,20.65039,34.51367,124.9209-27.69043,7.65039L8094.59668,3899.178l-76.82617,21.22559Z" transform="translate(-5443.66769 -6.8974)"/>
      <path class="cls-4" d="M8340.55176,3887.05791L8215.418,3842.0501l33.80762-14.33594,96.35547,34.6875,42.05176-93.37793,33.40918-14.167-54.041,120.98633,24.11719,56.874-26.44824,11.21582Z" transform="translate(-5443.66769 -6.8974)"/>
    </g>
    <g>
      <path class="cls-4" d="M6405.30371,734.96221l138.27344,163.40527-13.02637,11.02344L6392.27734,745.98467Z" transform="translate(-5443.66769 -6.8974)"/>
      <path class="cls-4" d="M6356.91895,776.94561L6500.6416,935.58232l-12.64746,11.457-143.7207-158.63672Z" transform="translate(-5443.66769 -6.8974)"/>
      <path class="cls-4" d="M6309.96582,820.56084l149.02246,153.67188-12.25,11.87988L6297.71484,832.44072Z" transform="translate(-5443.66769 -6.8974)"/>
      <path class="cls-4" d="M6264.55469,865.71514l154.13281,148.53125-11.84082,12.28711L6252.71484,878.00225Z" transform="translate(-5443.66769 -6.8974)"/>
      <path class="cls-4" d="M6220.66113,912.40264l159.06738,143.24023-11.41992,12.68066L6209.24121,925.08232Z" transform="translate(-5443.66769 -6.8974)"/>
      <path class="cls-4" d="M6178.415,960.514l163.81445,137.77441-10.9834,13.05859L6167.43262,973.57256Z" transform="translate(-5443.66769 -6.8974)"/>
      <path class="cls-4" d="M6137.79,1010.05107l168.37207,132.16406L6295.626,1155.637l-168.37207-132.16406Z" transform="translate(-5443.66769 -6.8974)"/>
      <path class="cls-4" d="M6098.86914,1060.91045l172.74121,126.41211-10.07812,13.77148L6088.793,1074.68Z" transform="translate(-5443.66769 -6.8974)"/>
      <path class="cls-4" d="M6061.68066,1113.06084l176.90625,120.52539-9.6084,14.10254L6052.07324,1127.1624Z" transform="translate(-5443.66769 -6.8974)"/>
      <path class="cls-4" d="M6026.28223,1166.42022L6207.13867,1280.93l-9.12891,14.418L6017.1543,1180.83721Z" transform="translate(-5443.66769 -6.8974)"/>
      <path class="cls-4" d="M5992.69824,1220.93779l184.59668,108.37793-8.64062,14.71582-184.5957-108.37891Z" transform="translate(-5443.66769 -6.8974)"/>
      <path class="cls-4" d="M5960.97852,1276.53935l188.12012,102.11719-8.1416,14.99707-188.11914-102.11816Z" transform="translate(-5443.66769 -6.8974)"/>
      <path class="cls-4" d="M5931.125,1333.18l191.44141,95.75586-7.63379,15.26074-191.44141-95.75488Z" transform="translate(-5443.66769 -6.8974)"/>
      <path class="cls-4" d="M5903.19824,1390.762l194.53418,89.30371-7.11914,15.50684-194.5332-89.30273Z" transform="translate(-5443.66769 -6.8974)"/>
      <path class="cls-4" d="M5877.20508,1449.263l197.4082,82.75781-6.59668,15.73535-197.40918-82.75586Z" transform="translate(-5443.66769 -6.8974)"/>
      <path class="cls-4" d="M5853.17773,1508.597l200.06934,76.11621-6.06738,15.94922-200.06934-76.11621Z" transform="translate(-5443.66769 -6.8974)"/>
      <path class="cls-4" d="M5831.15039,1568.70928l202.498,69.38574-5.53027,16.14258-202.499-69.38574Z" transform="translate(-5443.66769 -6.8974)"/>
      <path class="cls-4" d="M5811.14941,1629.49834l204.707,62.58105-4.99023,16.31836-204.70605-62.58106Z" transform="translate(-5443.66769 -6.8974)"/>
      <path class="cls-4" d="M5793.18359,1690.92022l206.68359,55.72168-4.44238,16.47558-206.68262-55.72168Z" transform="translate(-5443.66769 -6.8974)"/>
      <path class="cls-4" d="M5777.27832,1752.94756l208.42969,48.77539-3.88769,16.61523-208.43066-48.77539Z" transform="translate(-5443.66769 -6.8974)"/>
      <path class="cls-4" d="M5763.46582,1815.44268l209.93457,41.77832-3.332,16.73438L5760.13477,1832.178Z" transform="translate(-5443.66769 -6.8974)"/>
      <path class="cls-4" d="M5751.73633,1878.38311l211.22168,34.7207-2.76758,16.83789-211.22168-34.7207Z" transform="translate(-5443.66769 -6.8974)"/>
      <path class="cls-4" d="M5742.12109,1941.67607l212.27344,27.62988-2.20312,16.92188-212.27246-27.62988Z" transform="translate(-5443.66769 -6.8974)"/>
      <path class="cls-4" d="M5734.65039,2005.2542l213.06641,20.49707-1.63379,16.98535-213.06641-20.498Z" transform="translate(-5443.66769 -6.8974)"/>
      <path class="cls-4" d="M5729.30273,2069.06963l213.6377,13.32324-1.06152,17.03125-213.63867-13.32422Z" transform="translate(-5443.66769 -6.8974)"/>
      <path class="cls-4" d="M5726.10352,2133.02373l213.97266,6.11524-0.4873,17.05762-213.97363-6.11426Z" transform="translate(-5443.66769 -6.8974)"/>
      <path class="cls-4" d="M5725.06934,2197.06475l214.04981-1.09961,0.08789,17.06348-214.05078,1.10059Z" transform="translate(-5443.66769 -6.8974)"/>
      <path class="cls-4" d="M5726.1875,2261.10088l213.89258-8.31641,0.66309,17.05078-213.8916,8.31641Z" transform="translate(-5443.66769 -6.8974)"/>
      <path class="cls-4" d="M5729.47168,2325.09014l213.48926-15.54687,1.23828,17.01953-213.48828,15.54492Z" transform="translate(-5443.66769 -6.8974)"/>
      <path class="cls-4" d="M5734.915,2388.91436l212.84277-22.75586,1.81348,16.9668-212.84277,22.75684Z" transform="translate(-5443.66769 -6.8974)"/>
      <path class="cls-4" d="M5742.51172,2452.50908l211.95313-29.94629,2.3877,16.89648-211.9541,29.94629Z" transform="translate(-5443.66769 -6.8974)"/>
      <path class="cls-4" d="M5752.26367,2515.80986l210.8125-37.09766,2.958,16.80566-210.81348,37.09766Z" transform="translate(-5443.66769 -6.8974)"/>
      <path class="cls-4" d="M5764.15234,2578.77764l209.4375-44.21484,3.52539,16.69531-209.4375,44.21484Z" transform="translate(-5443.66769 -6.8974)"/>
      <path class="cls-4" d="M5778.168,2641.28936l207.81641-51.2793,4.08789,16.56641-207.81641,51.2793Z" transform="translate(-5443.66769 -6.8974)"/>
      <path class="cls-4" d="M5794.26856,2703.26592l205.97949-58.26953,4.64453,16.4209-205.97851,58.26856Z" transform="translate(-5443.66769 -6.8974)"/>
      <path class="cls-4" d="M5812.47168,2764.68486l203.8916-65.18457,5.19727,16.25391L5817.668,2780.93779Z" transform="translate(-5443.66769 -6.8974)"/>
      <path class="cls-4" d="M5832.7168,2825.42022l201.58887-71.99414,5.73926,16.07129-201.58887,71.99316Z" transform="translate(-5443.66769 -6.8974)"/>
      <path class="cls-4" d="M5854.99023,2885.44561l199.0625-78.707,6.27344,15.86719-199.06055,78.709Z" transform="translate(-5443.66769 -6.8974)"/>
      <path class="cls-4" d="M5879.25,2944.67022l196.33008-85.28711,6.79883,15.65137-196.33105,85.28711Z" transform="translate(-5443.66769 -6.8974)"/>
      <path class="cls-4" d="M5905.46484,3003.0501l193.3916-91.74512,7.3125,15.416-193.3916,91.74609Z" transform="translate(-5443.66769 -6.8974)"/>
      <path class="cls-4" d="M5933.6377,3060.66045l190.11426-98.375,7.8418,15.1543-190.11328,98.375Z" transform="translate(-5443.66769 -6.8974)"/>
      <path class="cls-4" d="M5963.55664,3116.99053l186.92285-104.31836,8.31543,14.90039L5971.873,3131.8919Z" transform="translate(-5443.66769 -6.8974)"/>
      <path class="cls-4" d="M5995.42285,3172.471l183.33691-110.47461,8.80664,14.61621-183.33789,110.47363Z" transform="translate(-5443.66769 -6.8974)"/>
      <path class="cls-4" d="M6029.13379,3226.89678l179.53613-116.55469,9.293,14.3125-179.53809,116.55469Z" transform="translate(-5443.66769 -6.8974)"/>
      <path class="cls-4" d="M6064.64648,3280.1585l175.5293-122.51562,9.76563,13.99219-175.52832,122.5166Z" transform="translate(-5443.66769 -6.8974)"/>
      <path class="cls-4" d="M6101.94922,3332.22686L6273.251,3203.85772l10.2334,13.65625-171.30078,128.36914Z" transform="translate(-5443.66769 -6.8974)"/>
      <path class="cls-4" d="M6140.99707,3382.99834l166.8584-134.0791,10.68848,13.30176-166.8584,134.0791Z" transform="translate(-5443.66769 -6.8974)"/>
      <path class="cls-4" d="M6181.74023,3432.4417l162.23242-139.64844,11.13281,12.93164L6192.873,3445.37529Z" transform="translate(-5443.66769 -6.8974)"/>
      <path class="cls-4" d="M6224.13086,3480.47295l157.415-145.05664,11.56445,12.54785-157.417,145.05664Z" transform="translate(-5443.66769 -6.8974)"/>
      <path class="cls-4" d="M6268.13965,3527.05107l152.41113-150.30273,11.98047,12.15039-152.41016,150.30274Z" transform="translate(-5443.66769 -6.8974)"/>
      <path class="cls-4" d="M6313.67578,3572.096l147.23633-155.37891,12.38672,11.73731L6326.0625,3583.83428Z" transform="translate(-5443.66769 -6.8974)"/>
      <path class="cls-4" d="M6360.7168,3615.58232l141.89844-160.27441,12.77539,11.31152-141.89648,160.27539Z" transform="translate(-5443.66769 -6.8974)"/>
      <path class="cls-4" d="M6409.20313,3657.44951l136.4043-164.97266,13.15137,10.873-136.40332,164.97266Z" transform="translate(-5443.66769 -6.8974)"/>
      <path class="cls-4" d="M6459.05273,3697.62725l130.75391-169.47656,13.50976,10.42285L6472.5625,3708.05107Z" transform="translate(-5443.66769 -6.8974)"/>
      <path class="cls-4" d="M6510.24414,3736.11943l124.96191-173.791,13.85449,9.96191-124.96289,173.792Z" transform="translate(-5443.66769 -6.8974)"/>
      <path class="cls-4" d="M6562.70313,3772.86357l119.0332-177.90332,14.18164,9.48926-119.0332,177.90332Z" transform="translate(-5443.66769 -6.8974)"/>
      <path class="cls-4" d="M6616.36719,3807.82549l112.98926-181.80566,14.49316,9.00781-112.99023,181.80469Z" transform="translate(-5443.66769 -6.8974)"/>
    </g>
    <g>
      <path class="cls-4" d="M8873.77832,745.46514l-138.27344,163.4043-13.02637-11.02148L8860.752,734.4417Z" transform="translate(-5443.66769 -6.8974)"/>
      <path class="cls-4" d="M8921.78418,787.88311L8778.0625,946.51982l-12.64648-11.457,143.72266-158.63672Z" transform="translate(-5443.66769 -6.8974)"/>
      <path class="cls-4" d="M8968.3418,831.92021L8819.31836,985.59209l-12.25-11.87988,149.02246-153.6709Z" transform="translate(-5443.66769 -6.8974)"/>
      <path class="cls-4" d="M9013.34473,877.48271L8859.21191,1026.013l-11.84082-12.28613,154.13281-148.53125Z" transform="translate(-5443.66769 -6.8974)"/>
      <path class="cls-4" d="M9056.81641,924.56084L8897.748,1067.80107l-11.41894-12.67969,159.06738-143.24121Z" transform="translate(-5443.66769 -6.8974)"/>
      <path class="cls-4" d="M9098.63379,973.04326L8934.8125,1110.83037l-10.98437-13.05957,163.82129-137.78809Z" transform="translate(-5443.66769 -6.8974)"/>
      <path class="cls-4" d="M9138.80469,1022.95049l-168.37207,132.165-10.53613-13.42187,168.37207-132.165Z" transform="translate(-5443.66769 -6.8974)"/>
      <path class="cls-4" d="M9177.26563,1074.1585l-172.73926,126.41309-10.07812-13.77051L9167.18848,1060.388Z" transform="translate(-5443.66769 -6.8974)"/>
      <path class="cls-4" d="M9213.98535,1126.64092l-176.90527,120.52637-9.6084-14.10254,176.90625-120.52637Z" transform="translate(-5443.66769 -6.8974)"/>
      <path class="cls-4" d="M9248.9043,1180.3167l-180.85547,114.50879-9.12891-14.417,180.85645-114.50977Z" transform="translate(-5443.66769 -6.8974)"/>
      <path class="cls-4" d="M9282.002,1235.13115l-184.59668,108.37793-8.64062-14.71582,184.59668-108.377Z" transform="translate(-5443.66769 -6.8974)"/>
      <path class="cls-4" d="M9313.22168,1291.014l-188.11914,102.11719-8.1416-14.99609,188.12012-102.11719Z" transform="translate(-5443.66769 -6.8974)"/>
      <path class="cls-4" d="M9342.57617,1347.91045L9151.127,1443.679l-7.63379-15.26172,191.44922-95.76856Z" transform="translate(-5443.66769 -6.8974)"/>
      <path class="cls-4" d="M9369.98047,1405.74639l-194.5332,89.30469-7.11914-15.50781,194.5332-89.30469Z" transform="translate(-5443.66769 -6.8974)"/>
      <path class="cls-4" d="M9395.4541,1464.47783l-197.40918,82.75684-6.59766-15.73633,197.41016-82.75781Z" transform="translate(-5443.66769 -6.8974)"/>
      <path class="cls-4" d="M9418.95117,1524.02373l-200.06836,76.11719-6.06836-15.94922,200.06836-76.11719Z" transform="translate(-5443.66769 -6.8974)"/>
      <path class="cls-4" d="M9440.44141,1584.32842l-202.499,69.38672-5.53125-16.14355,202.498-69.38574Z" transform="translate(-5443.66769 -6.8974)"/>
      <path class="cls-4" d="M9459.89258,1645.28545l-204.69238,62.58887-4.98926-16.31738,204.69238-62.58789Z" transform="translate(-5443.66769 -6.8974)"/>
      <path class="cls-4" d="M9477.31934,1706.87334L9270.63672,1762.595l-4.44141-16.47559,206.68262-55.72266Z" transform="translate(-5443.66769 -6.8974)"/>
      <path class="cls-4" d="M9492.67188,1769.04131l-208.42969,48.77344-3.88867-16.61523,208.43066-48.77344Z" transform="translate(-5443.66769 -6.8974)"/>
      <path class="cls-4" d="M9505.92188,1831.63506l-209.93262,41.77832-3.33105-16.73535,209.93457-41.77832Z" transform="translate(-5443.66769 -6.8974)"/>
      <path class="cls-4" d="M9517.09375,1894.69756l-211.22266,34.72168-2.76758-16.83887,211.22168-34.7207Z" transform="translate(-5443.66769 -6.8974)"/>
      <path class="cls-4" d="M9526.13477,1958.0667L9313.875,1985.7044l-2.20215-16.9209,212.25879-27.63672Z" transform="translate(-5443.66769 -6.8974)"/>
      <path class="cls-4" d="M9533.04688,2021.71514l-213.06641,20.498-1.63379-16.98535,213.06738-20.49707Z" transform="translate(-5443.66769 -6.8974)"/>
      <path class="cls-4" d="M9537.82422,2085.57647l-213.6377,13.32422-1.06348-17.03125,213.63867-13.32324Z" transform="translate(-5443.66769 -6.8974)"/>
      <path class="cls-4" d="M9540.44727,2149.55889l-213.97266,6.11523-0.4873-17.05762,213.97168-6.11523Z" transform="translate(-5443.66769 -6.8974)"/>
      <path class="cls-4" d="M9540.915,2213.57744l-214.05762-1.08691,0.08691-17.06445L9541.002,2196.514Z" transform="translate(-5443.66769 -6.8974)"/>
      <path class="cls-4" d="M9539.21484,2277.60772l-213.89258-8.31641,0.66406-17.05078,213.8916,8.31641Z" transform="translate(-5443.66769 -6.8974)"/>
      <path class="cls-4" d="M9535.35449,2341.56475l-213.48828-15.5459,1.24023-17.01856,213.48731,15.5459Z" transform="translate(-5443.66769 -6.8974)"/>
      <path class="cls-4" d="M9529.33789,2405.35967l-212.84277-22.75684,1.81445-16.9668,212.84277,22.75684Z" transform="translate(-5443.66769 -6.8974)"/>
      <path class="cls-4" d="M9521.166,2468.88311l-211.95312-29.94726,2.38672-16.89649,211.95313,29.94727Z" transform="translate(-5443.66769 -6.8974)"/>
      <path class="cls-4" d="M9510.8457,2532.094l-210.81348-37.09766,2.957-16.80664,210.81348,37.09766Z" transform="translate(-5443.66769 -6.8974)"/>
      <path class="cls-4" d="M9498.3877,2594.95147l-209.43652-44.21484,3.52539-16.69531,209.43652,44.21484Z" transform="translate(-5443.66769 -6.8974)"/>
      <path class="cls-4" d="M9483.80957,2657.33428l-207.81641-51.2793,4.08887-16.56641,207.81641,51.27832Z" transform="translate(-5443.66769 -6.8974)"/>
      <path class="cls-4" d="M9467.15234,2719.16436l-205.97949-58.26855,4.64453-16.4209,205.98047,58.26953Z" transform="translate(-5443.66769 -6.8974)"/>
      <path class="cls-4" d="M9448.39746,2780.41631l-203.8916-65.18359,5.19727-16.25488,203.8916,65.18457Z" transform="translate(-5443.66769 -6.8974)"/>
      <path class="cls-4" d="M9427.61133,2840.97l-201.58789-71.99317,5.73926-16.07031,201.58887,71.99414Z" transform="translate(-5443.66769 -6.8974)"/>
      <path class="cls-4" d="M9404.80273,2900.79326l-199.06152-78.708,6.27441-15.86816,199.06152,78.707Z" transform="translate(-5443.66769 -6.8974)"/>
      <path class="cls-4" d="M9380.02148,2959.8001L9183.69043,2874.513l6.79883-15.65137,196.33106,85.28711Z" transform="translate(-5443.66769 -6.8974)"/>
      <path class="cls-4" d="M9353.291,3017.94561l-193.3916-91.74609,7.31348-15.416,193.3916,91.74609Z" transform="translate(-5443.66769 -6.8974)"/>
      <path class="cls-4" d="M9324.58984,3075.29424l-190.11328-98.374,7.8418-15.1543,190.11328,98.373Z" transform="translate(-5443.66769 -6.8974)"/>
      <path class="cls-4" d="M9294.19434,3131.37139L9107.27344,3027.053l8.31543-14.90039L9302.51074,3116.471Z" transform="translate(-5443.66769 -6.8974)"/>
      <path class="cls-4" d="M9261.84082,3186.56572L9078.502,3076.09209l8.80664-14.61524,183.33789,110.47461Z" transform="translate(-5443.66769 -6.8974)"/>
      <path class="cls-4" d="M9227.64453,3240.68877l-179.53809-116.55567,9.291-14.31152,179.53809,116.55566Z" transform="translate(-5443.66769 -6.8974)"/>
      <path class="cls-4" d="M9191.65625,3293.63115l-175.52734-122.5166,9.76563-13.99121L9201.42285,3279.639Z" transform="translate(-5443.66769 -6.8974)"/>
      <path class="cls-4" d="M9153.88477,3345.35967L8982.584,3216.9915l10.2334-13.65527,171.30176,128.36914Z" transform="translate(-5443.66769 -6.8974)"/>
      <path class="cls-4" d="M9114.39063,3395.77178l-166.86426-134.06641,10.68652-13.30273L9125.07813,3382.469Z" transform="translate(-5443.66769 -6.8974)"/>
      <path class="cls-4" d="M9073.2041,3444.84795l-162.23926-139.63672,11.13281-12.93262,162.23828,139.63574Z" transform="translate(-5443.66769 -6.8974)"/>
      <path class="cls-4" d="M9030.376,3492.50029l-157.417-145.05664,11.56445-12.54785,157.416,145.05664Z" transform="translate(-5443.66769 -6.8974)"/>
      <path class="cls-4" d="M8985.94922,3538.68193L8833.53809,3388.3792l11.98242-12.15039,152.41016,150.30273Z" transform="translate(-5443.66769 -6.8974)"/>
      <path class="cls-4" d="M8940.00684,3583.3167l-147.23535-155.37988,12.38672-11.7373,147.23633,155.37891Z" transform="translate(-5443.66769 -6.8974)"/>
      <path class="cls-4" d="M8892.57715,3626.37529l-141.89746-160.27441,12.77637-11.31152,141.89746,160.27539Z" transform="translate(-5443.66769 -6.8974)"/>
      <path class="cls-4" d="M8843.71582,3667.805l-136.4043-164.97363,13.15234-10.874,136.40332,164.97461Z" transform="translate(-5443.66769 -6.8974)"/>
      <path class="cls-4" d="M8793.50879,3707.5335L8662.75586,3538.055l13.50977-10.42285,130.75391,169.47754Z" transform="translate(-5443.66769 -6.8974)"/>
      <path class="cls-4" d="M8741.97266,3745.56377l-124.96289-173.792,13.85547-9.96191,124.96094,173.791Z" transform="translate(-5443.66769 -6.8974)"/>
      <path class="cls-4" d="M8689.19531,3781.844l-119.0459-177.91016,14.18164-9.49024,119.04785,177.91016Z" transform="translate(-5443.66769 -6.8974)"/>
      <path class="cls-4" d="M8635.21094,3816.31475L8522.2207,3634.511l14.49414-9.00781,112.98828,181.80566Z" transform="translate(-5443.66769 -6.8974)"/>
    </g>
    <path class="cls-6" d="M8660.24355,2008.87738c-203.92137,0-392.39414.77256-611.76473-59.21963-222.71729,63.5966-407.843,59.21963-611.76441,59.21963v743.0775c0,537.35361,407.843,549.19778,611.76441,744.62229,203.92137-195.42451,611.76473-207.26869,611.76473-744.62229v-743.0775h0Z" transform="translate(-5443.66769 -6.8974)"/>
  </g>
</svg>
